G04 Layer: TopSolderMaskLayer*
G04 EasyEDA v6.4.25, 2021-09-15T07:48:06+01:00*
G04 1eb5522c02d34d8f89c77509865788c0,48bc864c7916494db8d10f71d93e82f1,10*
G04 Gerber Generator version 0.2*
G04 Scale: 100 percent, Rotated: No, Reflected: No *
G04 Dimensions in millimeters *
G04 leading zeros omitted , absolute positions ,4 integer and 5 decimal *
%FSLAX45Y45*%
%MOMM*%

%ADD55C,0.5496*%
%ADD56C,0.6756*%
%ADD57C,1.4016*%
%ADD74C,1.3016*%
%ADD80C,3.6016*%
%ADD81C,2.6016*%

%LPD*%
D55*
X2392756Y-4635197D02*
G01*
X2392756Y-4767298D01*
X2472766Y-4635197D02*
G01*
X2472766Y-4767298D01*
X2552750Y-4635197D02*
G01*
X2552750Y-4767298D01*
X2632760Y-4635197D02*
G01*
X2632760Y-4767298D01*
X2712745Y-4635197D02*
G01*
X2712745Y-4767298D01*
X2792755Y-4635197D02*
G01*
X2792755Y-4767298D01*
X2792755Y-4353308D02*
G01*
X2792755Y-4485408D01*
X2712745Y-4353308D02*
G01*
X2712745Y-4485408D01*
X2632760Y-4353308D02*
G01*
X2632760Y-4485408D01*
X2552750Y-4353308D02*
G01*
X2552750Y-4485408D01*
X2472766Y-4353308D02*
G01*
X2472766Y-4485408D01*
X2392756Y-4353308D02*
G01*
X2392756Y-4485408D01*
D56*
X5303786Y-1024521D02*
G01*
X5486438Y-1024521D01*
X5303786Y-897521D02*
G01*
X5486438Y-897521D01*
X5303786Y-770521D02*
G01*
X5486438Y-770521D01*
X5303786Y-643521D02*
G01*
X5486438Y-643521D01*
X5303786Y-516521D02*
G01*
X5486438Y-516521D01*
X5303786Y-389521D02*
G01*
X5486438Y-389521D01*
X5303786Y-262521D02*
G01*
X5486438Y-262521D01*
X5303786Y-135521D02*
G01*
X5486438Y-135521D01*
X4353725Y-1024521D02*
G01*
X4536376Y-1024521D01*
X4353725Y-897521D02*
G01*
X4536376Y-897521D01*
X4353725Y-770521D02*
G01*
X4536376Y-770521D01*
X4353725Y-643521D02*
G01*
X4536376Y-643521D01*
X4353725Y-516521D02*
G01*
X4536376Y-516521D01*
X4353725Y-389521D02*
G01*
X4536376Y-389521D01*
X4353725Y-262521D02*
G01*
X4536376Y-262521D01*
X4353725Y-135521D02*
G01*
X4536376Y-135521D01*
D57*
X6954987Y-2379891D02*
G01*
X7044987Y-2379891D01*
X6954987Y-3099879D02*
G01*
X7044987Y-3099879D01*
G36*
X6481419Y-2179205D02*
G01*
X6481419Y-1904885D01*
X6818731Y-1904885D01*
X6818731Y-2179205D01*
G37*
G36*
X6481419Y-655205D02*
G01*
X6481419Y-380885D01*
X6818731Y-380885D01*
X6818731Y-655205D01*
G37*
G36*
X6441795Y-1488071D02*
G01*
X6441795Y-1071765D01*
X6858101Y-1071765D01*
X6858101Y-1488071D01*
G37*
G36*
X3069945Y-4781943D02*
G01*
X3069945Y-4717935D01*
X3159099Y-4717935D01*
X3159099Y-4781943D01*
G37*
G36*
X2960979Y-4781943D02*
G01*
X2960979Y-4717935D01*
X3050133Y-4717935D01*
X3050133Y-4781943D01*
G37*
G36*
X3689959Y-4671961D02*
G01*
X3689959Y-4607953D01*
X3779113Y-4607953D01*
X3779113Y-4671961D01*
G37*
G36*
X3580993Y-4671961D02*
G01*
X3580993Y-4607953D01*
X3670147Y-4607953D01*
X3670147Y-4671961D01*
G37*
G36*
X3069945Y-4602111D02*
G01*
X3069945Y-4537849D01*
X3159099Y-4537849D01*
X3159099Y-4602111D01*
G37*
G36*
X2960979Y-4602111D02*
G01*
X2960979Y-4537849D01*
X3050133Y-4537849D01*
X3050133Y-4602111D01*
G37*
G36*
X2960979Y-4412119D02*
G01*
X2960979Y-4348111D01*
X3050133Y-4348111D01*
X3050133Y-4412119D01*
G37*
G36*
X3069945Y-4412119D02*
G01*
X3069945Y-4348111D01*
X3159099Y-4348111D01*
X3159099Y-4412119D01*
G37*
G36*
X3409797Y-4502797D02*
G01*
X3409797Y-4407293D01*
X3450183Y-4407293D01*
X3450183Y-4502797D01*
G37*
G36*
X3369919Y-4502797D02*
G01*
X3369919Y-4407293D01*
X3410051Y-4407293D01*
X3410051Y-4502797D01*
G37*
G36*
X3329787Y-4502797D02*
G01*
X3329787Y-4407293D01*
X3370173Y-4407293D01*
X3370173Y-4502797D01*
G37*
G36*
X3289909Y-4502797D02*
G01*
X3289909Y-4407293D01*
X3330041Y-4407293D01*
X3330041Y-4502797D01*
G37*
G36*
X3289909Y-4752733D02*
G01*
X3289909Y-4657229D01*
X3330041Y-4657229D01*
X3330041Y-4752733D01*
G37*
G36*
X3329787Y-4752733D02*
G01*
X3329787Y-4657229D01*
X3370173Y-4657229D01*
X3370173Y-4752733D01*
G37*
G36*
X3369919Y-4752733D02*
G01*
X3369919Y-4657229D01*
X3410051Y-4657229D01*
X3410051Y-4752733D01*
G37*
G36*
X3409797Y-4752733D02*
G01*
X3409797Y-4657229D01*
X3450183Y-4657229D01*
X3450183Y-4752733D01*
G37*
G36*
X3274923Y-4657737D02*
G01*
X3274923Y-4502289D01*
X3465169Y-4502289D01*
X3465169Y-4657737D01*
G37*
G36*
X2740253Y-4600333D02*
G01*
X2740253Y-4520323D01*
X2904845Y-4520323D01*
X2904845Y-4600333D01*
G37*
G36*
X2280767Y-4600333D02*
G01*
X2280767Y-4520323D01*
X2445359Y-4520323D01*
X2445359Y-4600333D01*
G37*
G36*
X4881473Y-4211205D02*
G01*
X4687417Y-4017149D01*
X4881473Y-3823093D01*
X5075529Y-4017149D01*
G37*
G36*
X4179925Y-2757817D02*
G01*
X4179925Y-2637421D01*
X4320387Y-2637421D01*
X4320387Y-2757817D01*
G37*
G36*
X4179925Y-2884817D02*
G01*
X4179925Y-2764421D01*
X4320387Y-2764421D01*
X4320387Y-2884817D01*
G37*
G36*
X4179925Y-3011817D02*
G01*
X4179925Y-2891421D01*
X4320387Y-2891421D01*
X4320387Y-3011817D01*
G37*
G36*
X4179925Y-3138817D02*
G01*
X4179925Y-3018421D01*
X4320387Y-3018421D01*
X4320387Y-3138817D01*
G37*
G36*
X4179925Y-3265817D02*
G01*
X4179925Y-3145421D01*
X4320387Y-3145421D01*
X4320387Y-3265817D01*
G37*
G36*
X4179925Y-3392817D02*
G01*
X4179925Y-3272421D01*
X4320387Y-3272421D01*
X4320387Y-3392817D01*
G37*
G36*
X4179925Y-3519817D02*
G01*
X4179925Y-3399421D01*
X4320387Y-3399421D01*
X4320387Y-3519817D01*
G37*
G36*
X4179925Y-3646817D02*
G01*
X4179925Y-3526421D01*
X4320387Y-3526421D01*
X4320387Y-3646817D01*
G37*
G36*
X4179925Y-3773817D02*
G01*
X4179925Y-3653421D01*
X4320387Y-3653421D01*
X4320387Y-3773817D01*
G37*
G36*
X4179925Y-3900817D02*
G01*
X4179925Y-3780421D01*
X4320387Y-3780421D01*
X4320387Y-3900817D01*
G37*
G36*
X4179925Y-4027817D02*
G01*
X4179925Y-3907421D01*
X4320387Y-3907421D01*
X4320387Y-4027817D01*
G37*
G36*
X4179925Y-4154817D02*
G01*
X4179925Y-4034421D01*
X4320387Y-4034421D01*
X4320387Y-4154817D01*
G37*
G36*
X4179925Y-4281817D02*
G01*
X4179925Y-4161421D01*
X4320387Y-4161421D01*
X4320387Y-4281817D01*
G37*
G36*
X4179925Y-4408817D02*
G01*
X4179925Y-4288421D01*
X4320387Y-4288421D01*
X4320387Y-4408817D01*
G37*
G36*
X5413857Y-2756547D02*
G01*
X5413857Y-2636405D01*
X5554319Y-2636405D01*
X5554319Y-2756547D01*
G37*
G36*
X5413857Y-2883547D02*
G01*
X5413857Y-2763405D01*
X5554319Y-2763405D01*
X5554319Y-2883547D01*
G37*
G36*
X5413857Y-3010547D02*
G01*
X5413857Y-2890405D01*
X5554319Y-2890405D01*
X5554319Y-3010547D01*
G37*
G36*
X5413857Y-3137547D02*
G01*
X5413857Y-3017405D01*
X5554319Y-3017405D01*
X5554319Y-3137547D01*
G37*
G36*
X5413857Y-3264547D02*
G01*
X5413857Y-3144405D01*
X5554319Y-3144405D01*
X5554319Y-3264547D01*
G37*
G36*
X5413857Y-3391547D02*
G01*
X5413857Y-3271405D01*
X5554319Y-3271405D01*
X5554319Y-3391547D01*
G37*
G36*
X5413857Y-3518547D02*
G01*
X5413857Y-3398405D01*
X5554319Y-3398405D01*
X5554319Y-3518547D01*
G37*
G36*
X5413857Y-3645547D02*
G01*
X5413857Y-3525405D01*
X5554319Y-3525405D01*
X5554319Y-3645547D01*
G37*
G36*
X5413857Y-3772547D02*
G01*
X5413857Y-3652405D01*
X5554319Y-3652405D01*
X5554319Y-3772547D01*
G37*
G36*
X5413857Y-3899547D02*
G01*
X5413857Y-3779405D01*
X5554319Y-3779405D01*
X5554319Y-3899547D01*
G37*
G36*
X5413857Y-4026547D02*
G01*
X5413857Y-3906405D01*
X5554319Y-3906405D01*
X5554319Y-4026547D01*
G37*
G36*
X5413857Y-4153547D02*
G01*
X5413857Y-4033405D01*
X5554319Y-4033405D01*
X5554319Y-4153547D01*
G37*
G36*
X5413857Y-4280547D02*
G01*
X5413857Y-4160405D01*
X5554319Y-4160405D01*
X5554319Y-4280547D01*
G37*
G36*
X5413857Y-4407547D02*
G01*
X5413857Y-4287405D01*
X5554319Y-4287405D01*
X5554319Y-4407547D01*
G37*
G36*
X5252567Y-2300363D02*
G01*
X5252567Y-2159901D01*
X5372709Y-2159901D01*
X5372709Y-2300363D01*
G37*
G36*
X5125567Y-2300363D02*
G01*
X5125567Y-2159901D01*
X5245709Y-2159901D01*
X5245709Y-2300363D01*
G37*
G36*
X4998567Y-2300363D02*
G01*
X4998567Y-2159901D01*
X5118709Y-2159901D01*
X5118709Y-2300363D01*
G37*
G36*
X4871567Y-2300363D02*
G01*
X4871567Y-2159901D01*
X4991709Y-2159901D01*
X4991709Y-2300363D01*
G37*
G36*
X4744567Y-2300363D02*
G01*
X4744567Y-2159901D01*
X4864709Y-2159901D01*
X4864709Y-2300363D01*
G37*
G36*
X4617567Y-2300363D02*
G01*
X4617567Y-2159901D01*
X4737709Y-2159901D01*
X4737709Y-2300363D01*
G37*
G36*
X4490567Y-2300363D02*
G01*
X4490567Y-2159901D01*
X4610709Y-2159901D01*
X4610709Y-2300363D01*
G37*
G36*
X4363567Y-2300363D02*
G01*
X4363567Y-2159901D01*
X4483709Y-2159901D01*
X4483709Y-2300363D01*
G37*
G36*
X4948275Y-4210951D02*
G01*
X4721707Y-3984383D01*
X4948275Y-3757815D01*
X5174843Y-3984383D01*
G37*
G36*
X4871059Y-4206887D02*
G01*
X4871059Y-4120527D01*
X4958435Y-4120527D01*
X4958435Y-4206887D01*
G37*
G36*
X5786729Y-3117227D02*
G01*
X5786729Y-2842907D01*
X5959449Y-2842907D01*
X5959449Y-3117227D01*
G37*
G36*
X6040729Y-3117227D02*
G01*
X6040729Y-2842907D01*
X6213449Y-2842907D01*
X6213449Y-3117227D01*
G37*
G36*
X5786729Y-3587127D02*
G01*
X5786729Y-3312807D01*
X5959449Y-3312807D01*
X5959449Y-3587127D01*
G37*
G36*
X6040729Y-3587127D02*
G01*
X6040729Y-3312807D01*
X6213449Y-3312807D01*
X6213449Y-3587127D01*
G37*
G36*
X5796889Y-4047121D02*
G01*
X5796889Y-3772801D01*
X5969609Y-3772801D01*
X5969609Y-4047121D01*
G37*
G36*
X6050889Y-4047121D02*
G01*
X6050889Y-3772801D01*
X6223609Y-3772801D01*
X6223609Y-4047121D01*
G37*
G36*
X5786729Y-4527181D02*
G01*
X5786729Y-4252861D01*
X5959449Y-4252861D01*
X5959449Y-4527181D01*
G37*
G36*
X6040729Y-4527181D02*
G01*
X6040729Y-4252861D01*
X6213449Y-4252861D01*
X6213449Y-4527181D01*
G37*
G36*
X3169767Y-1320177D02*
G01*
X3169767Y-1269885D01*
X3310229Y-1269885D01*
X3310229Y-1320177D01*
G37*
G36*
X3169767Y-1370215D02*
G01*
X3169767Y-1319923D01*
X3310229Y-1319923D01*
X3310229Y-1370215D01*
G37*
G36*
X3169767Y-1420253D02*
G01*
X3169767Y-1369961D01*
X3310229Y-1369961D01*
X3310229Y-1420253D01*
G37*
G36*
X3169767Y-1470291D02*
G01*
X3169767Y-1419999D01*
X3310229Y-1419999D01*
X3310229Y-1470291D01*
G37*
G36*
X3169767Y-1520329D02*
G01*
X3169767Y-1470037D01*
X3310229Y-1470037D01*
X3310229Y-1520329D01*
G37*
G36*
X3169767Y-1570113D02*
G01*
X3169767Y-1519821D01*
X3310229Y-1519821D01*
X3310229Y-1570113D01*
G37*
G36*
X3169767Y-1620151D02*
G01*
X3169767Y-1569859D01*
X3310229Y-1569859D01*
X3310229Y-1620151D01*
G37*
G36*
X3169767Y-1670189D02*
G01*
X3169767Y-1619897D01*
X3310229Y-1619897D01*
X3310229Y-1670189D01*
G37*
G36*
X3169767Y-1720227D02*
G01*
X3169767Y-1669935D01*
X3310229Y-1669935D01*
X3310229Y-1720227D01*
G37*
G36*
X3169767Y-1770265D02*
G01*
X3169767Y-1719973D01*
X3310229Y-1719973D01*
X3310229Y-1770265D01*
G37*
G36*
X3169767Y-1820303D02*
G01*
X3169767Y-1770011D01*
X3310229Y-1770011D01*
X3310229Y-1820303D01*
G37*
G36*
X3169767Y-1870341D02*
G01*
X3169767Y-1819795D01*
X3310229Y-1819795D01*
X3310229Y-1870341D01*
G37*
G36*
X3169767Y-1920125D02*
G01*
X3169767Y-1869833D01*
X3310229Y-1869833D01*
X3310229Y-1920125D01*
G37*
G36*
X3169767Y-1970163D02*
G01*
X3169767Y-1919871D01*
X3310229Y-1919871D01*
X3310229Y-1970163D01*
G37*
G36*
X3169767Y-2020201D02*
G01*
X3169767Y-1969909D01*
X3310229Y-1969909D01*
X3310229Y-2020201D01*
G37*
G36*
X3169767Y-2070239D02*
G01*
X3169767Y-2019947D01*
X3310229Y-2019947D01*
X3310229Y-2070239D01*
G37*
G36*
X3169767Y-2120277D02*
G01*
X3169767Y-2069985D01*
X3310229Y-2069985D01*
X3310229Y-2120277D01*
G37*
G36*
X3169767Y-2170315D02*
G01*
X3169767Y-2120023D01*
X3310229Y-2120023D01*
X3310229Y-2170315D01*
G37*
G36*
X3169767Y-2220353D02*
G01*
X3169767Y-2169807D01*
X3310229Y-2169807D01*
X3310229Y-2220353D01*
G37*
G36*
X3169767Y-2270137D02*
G01*
X3169767Y-2219845D01*
X3310229Y-2219845D01*
X3310229Y-2270137D01*
G37*
G36*
X3169767Y-2320175D02*
G01*
X3169767Y-2269883D01*
X3310229Y-2269883D01*
X3310229Y-2320175D01*
G37*
G36*
X3169767Y-2370213D02*
G01*
X3169767Y-2319921D01*
X3310229Y-2319921D01*
X3310229Y-2370213D01*
G37*
G36*
X3169767Y-2420251D02*
G01*
X3169767Y-2369959D01*
X3310229Y-2369959D01*
X3310229Y-2420251D01*
G37*
G36*
X3169767Y-2470289D02*
G01*
X3169767Y-2419997D01*
X3310229Y-2419997D01*
X3310229Y-2470289D01*
G37*
G36*
X3169767Y-2520327D02*
G01*
X3169767Y-2470035D01*
X3310229Y-2470035D01*
X3310229Y-2520327D01*
G37*
G36*
X3169767Y-2570111D02*
G01*
X3169767Y-2519819D01*
X3310229Y-2519819D01*
X3310229Y-2570111D01*
G37*
G36*
X3169767Y-2620149D02*
G01*
X3169767Y-2569857D01*
X3310229Y-2569857D01*
X3310229Y-2620149D01*
G37*
G36*
X3169767Y-2670187D02*
G01*
X3169767Y-2619895D01*
X3310229Y-2619895D01*
X3310229Y-2670187D01*
G37*
G36*
X3169767Y-2720225D02*
G01*
X3169767Y-2669933D01*
X3310229Y-2669933D01*
X3310229Y-2720225D01*
G37*
G36*
X3169767Y-2770263D02*
G01*
X3169767Y-2719971D01*
X3310229Y-2719971D01*
X3310229Y-2770263D01*
G37*
G36*
X3169767Y-2820301D02*
G01*
X3169767Y-2770009D01*
X3310229Y-2770009D01*
X3310229Y-2820301D01*
G37*
G36*
X3169767Y-2870339D02*
G01*
X3169767Y-2819793D01*
X3310229Y-2819793D01*
X3310229Y-2870339D01*
G37*
G36*
X3169767Y-2920123D02*
G01*
X3169767Y-2869831D01*
X3310229Y-2869831D01*
X3310229Y-2920123D01*
G37*
G36*
X3169767Y-2970161D02*
G01*
X3169767Y-2919869D01*
X3310229Y-2919869D01*
X3310229Y-2970161D01*
G37*
G36*
X3169767Y-3020199D02*
G01*
X3169767Y-2969907D01*
X3310229Y-2969907D01*
X3310229Y-3020199D01*
G37*
G36*
X3169767Y-3070237D02*
G01*
X3169767Y-3019945D01*
X3310229Y-3019945D01*
X3310229Y-3070237D01*
G37*
G36*
X3169767Y-3120275D02*
G01*
X3169767Y-3069983D01*
X3310229Y-3069983D01*
X3310229Y-3120275D01*
G37*
G36*
X3169767Y-3170313D02*
G01*
X3169767Y-3120021D01*
X3310229Y-3120021D01*
X3310229Y-3170313D01*
G37*
G36*
X3169767Y-3220351D02*
G01*
X3169767Y-3169805D01*
X3310229Y-3169805D01*
X3310229Y-3220351D01*
G37*
G36*
X3169767Y-3270135D02*
G01*
X3169767Y-3219843D01*
X3310229Y-3219843D01*
X3310229Y-3270135D01*
G37*
G36*
X3169767Y-3320173D02*
G01*
X3169767Y-3269881D01*
X3310229Y-3269881D01*
X3310229Y-3320173D01*
G37*
G36*
X3169767Y-3370211D02*
G01*
X3169767Y-3319919D01*
X3310229Y-3319919D01*
X3310229Y-3370211D01*
G37*
G36*
X3169767Y-3420249D02*
G01*
X3169767Y-3369957D01*
X3310229Y-3369957D01*
X3310229Y-3420249D01*
G37*
G36*
X3169767Y-3470287D02*
G01*
X3169767Y-3419995D01*
X3310229Y-3419995D01*
X3310229Y-3470287D01*
G37*
G36*
X3169767Y-3520325D02*
G01*
X3169767Y-3470033D01*
X3310229Y-3470033D01*
X3310229Y-3520325D01*
G37*
G36*
X3169767Y-3570109D02*
G01*
X3169767Y-3519817D01*
X3310229Y-3519817D01*
X3310229Y-3570109D01*
G37*
G36*
X3169767Y-3620147D02*
G01*
X3169767Y-3569855D01*
X3310229Y-3569855D01*
X3310229Y-3620147D01*
G37*
G36*
X3169767Y-3670185D02*
G01*
X3169767Y-3619893D01*
X3310229Y-3619893D01*
X3310229Y-3670185D01*
G37*
G36*
X3169767Y-3720223D02*
G01*
X3169767Y-3669931D01*
X3310229Y-3669931D01*
X3310229Y-3720223D01*
G37*
G36*
X3169767Y-3770261D02*
G01*
X3169767Y-3719969D01*
X3310229Y-3719969D01*
X3310229Y-3770261D01*
G37*
G36*
X2839821Y-1215275D02*
G01*
X2839821Y-954925D01*
X3100171Y-954925D01*
X3100171Y-1215275D01*
G37*
G36*
X2839821Y-4085221D02*
G01*
X2839821Y-3824871D01*
X3100171Y-3824871D01*
X3100171Y-4085221D01*
G37*
G36*
X659993Y-4342015D02*
G01*
X659993Y-4278007D01*
X726541Y-4278007D01*
X726541Y-4342015D01*
G37*
G36*
X573379Y-4342015D02*
G01*
X573379Y-4278007D01*
X640181Y-4278007D01*
X640181Y-4342015D01*
G37*
G36*
X6484975Y-4090301D02*
G01*
X6484975Y-3969905D01*
X6855307Y-3969905D01*
X6855307Y-4090301D01*
G37*
G36*
X6484975Y-3890149D02*
G01*
X6484975Y-3769753D01*
X6855307Y-3769753D01*
X6855307Y-3890149D01*
G37*
G36*
X7045045Y-4350143D02*
G01*
X7045045Y-4179963D01*
X7405217Y-4179963D01*
X7405217Y-4350143D01*
G37*
G36*
X7045045Y-3680091D02*
G01*
X7045045Y-3509911D01*
X7405217Y-3509911D01*
X7405217Y-3680091D01*
G37*
G36*
X74777Y-2495181D02*
G01*
X74777Y-2344813D01*
X225145Y-2344813D01*
X225145Y-2495181D01*
G37*
G36*
X74777Y-2695333D02*
G01*
X74777Y-2544965D01*
X225145Y-2544965D01*
X225145Y-2695333D01*
G37*
G36*
X274929Y-2695333D02*
G01*
X274929Y-2544965D01*
X425297Y-2544965D01*
X425297Y-2695333D01*
G37*
G36*
X274929Y-2495181D02*
G01*
X274929Y-2344813D01*
X425297Y-2344813D01*
X425297Y-2495181D01*
G37*
G36*
X6612483Y-2634881D02*
G01*
X6612483Y-2584843D01*
X6747611Y-2584843D01*
X6747611Y-2634881D01*
G37*
G36*
X6612483Y-2699905D02*
G01*
X6612483Y-2649867D01*
X6747611Y-2649867D01*
X6747611Y-2699905D01*
G37*
G36*
X6612483Y-2764929D02*
G01*
X6612483Y-2714891D01*
X6747611Y-2714891D01*
X6747611Y-2764929D01*
G37*
G36*
X6612483Y-2829953D02*
G01*
X6612483Y-2779915D01*
X6747611Y-2779915D01*
X6747611Y-2829953D01*
G37*
G36*
X6612483Y-2894977D02*
G01*
X6612483Y-2844685D01*
X6747611Y-2844685D01*
X6747611Y-2894977D01*
G37*
D74*
G01*
X6729984Y-2982379D03*
G01*
X6729984Y-2497391D03*
G36*
X5909919Y-4878209D02*
G01*
X5909919Y-4781689D01*
X6000851Y-4781689D01*
X6000851Y-4878209D01*
G37*
G36*
X5759297Y-4878209D02*
G01*
X5759297Y-4781689D01*
X5849975Y-4781689D01*
X5849975Y-4878209D01*
G37*
G36*
X6319875Y-4868303D02*
G01*
X6319875Y-4771783D01*
X6410807Y-4771783D01*
X6410807Y-4868303D01*
G37*
G36*
X6169253Y-4868303D02*
G01*
X6169253Y-4771783D01*
X6260185Y-4771783D01*
X6260185Y-4868303D01*
G37*
G36*
X734923Y-3120021D02*
G01*
X734923Y-3019945D01*
X825093Y-3019945D01*
X825093Y-3120021D01*
G37*
G36*
X874877Y-3120021D02*
G01*
X874877Y-3019945D01*
X965047Y-3019945D01*
X965047Y-3120021D01*
G37*
G36*
X5604865Y-950099D02*
G01*
X5604865Y-850023D01*
X5695035Y-850023D01*
X5695035Y-950099D01*
G37*
G36*
X5744819Y-950099D02*
G01*
X5744819Y-850023D01*
X5834989Y-850023D01*
X5834989Y-950099D01*
G37*
G36*
X3543147Y-1066685D02*
G01*
X3543147Y-1003439D01*
X3657193Y-1003439D01*
X3657193Y-1066685D01*
G37*
G36*
X3543147Y-876693D02*
G01*
X3543147Y-813447D01*
X3657193Y-813447D01*
X3657193Y-876693D01*
G37*
G36*
X3322929Y-971689D02*
G01*
X3322929Y-908443D01*
X3436721Y-908443D01*
X3436721Y-971689D01*
G37*
G36*
X3793337Y-1062113D02*
G01*
X3793337Y-997851D01*
X3860139Y-997851D01*
X3860139Y-1062113D01*
G37*
G36*
X3879951Y-1062113D02*
G01*
X3879951Y-997851D01*
X3946753Y-997851D01*
X3946753Y-1062113D01*
G37*
G36*
X3783431Y-1332115D02*
G01*
X3783431Y-1267853D01*
X3849979Y-1267853D01*
X3849979Y-1332115D01*
G37*
G36*
X3870045Y-1332115D02*
G01*
X3870045Y-1267853D01*
X3936593Y-1267853D01*
X3936593Y-1332115D01*
G37*
G36*
X3615029Y-1577479D02*
G01*
X3615029Y-1502295D01*
X3705199Y-1502295D01*
X3705199Y-1577479D01*
G37*
G36*
X3434943Y-1577479D02*
G01*
X3434943Y-1502295D01*
X3525113Y-1502295D01*
X3525113Y-1577479D01*
G37*
G36*
X3615029Y-1490103D02*
G01*
X3615029Y-1429905D01*
X3705199Y-1429905D01*
X3705199Y-1490103D01*
G37*
G36*
X3434943Y-1490103D02*
G01*
X3434943Y-1429905D01*
X3525113Y-1429905D01*
X3525113Y-1490103D01*
G37*
G36*
X3615029Y-1410093D02*
G01*
X3615029Y-1349895D01*
X3705199Y-1349895D01*
X3705199Y-1410093D01*
G37*
G36*
X3434943Y-1410093D02*
G01*
X3434943Y-1349895D01*
X3525113Y-1349895D01*
X3525113Y-1410093D01*
G37*
G36*
X3615029Y-1337703D02*
G01*
X3615029Y-1262519D01*
X3705199Y-1262519D01*
X3705199Y-1337703D01*
G37*
G36*
X3434943Y-1337703D02*
G01*
X3434943Y-1262519D01*
X3525113Y-1262519D01*
X3525113Y-1337703D01*
G37*
G36*
X3729837Y-3722001D02*
G01*
X3729837Y-3657993D01*
X3796639Y-3657993D01*
X3796639Y-3722001D01*
G37*
G36*
X3643477Y-3722001D02*
G01*
X3643477Y-3657993D01*
X3710025Y-3657993D01*
X3710025Y-3722001D01*
G37*
G36*
X3550005Y-3322205D02*
G01*
X3550005Y-3257943D01*
X3616553Y-3257943D01*
X3616553Y-3322205D01*
G37*
G36*
X3463391Y-3322205D02*
G01*
X3463391Y-3257943D01*
X3530193Y-3257943D01*
X3530193Y-3322205D01*
G37*
G36*
X6524853Y-3460127D02*
G01*
X6524853Y-3359797D01*
X6615023Y-3359797D01*
X6615023Y-3460127D01*
G37*
G36*
X6384899Y-3460127D02*
G01*
X6384899Y-3359797D01*
X6475069Y-3359797D01*
X6475069Y-3460127D01*
G37*
G36*
X6524853Y-3149993D02*
G01*
X6524853Y-3049917D01*
X6615023Y-3049917D01*
X6615023Y-3149993D01*
G37*
G36*
X6384899Y-3149993D02*
G01*
X6384899Y-3049917D01*
X6475069Y-3049917D01*
X6475069Y-3149993D01*
G37*
D80*
G01*
X250012Y-4770005D03*
G01*
X250012Y-249999D03*
G01*
X7190003Y-249999D03*
G01*
X7190003Y-4770005D03*
D81*
G01*
X250012Y-3019996D03*
G01*
X250012Y-2019998D03*
G36*
X1639925Y-2630055D02*
G01*
X1639925Y-2409837D01*
X1860143Y-2409837D01*
X1860143Y-2630055D01*
G37*
M02*
