G04 Layer: BottomLayer*
G04 EasyEDA v6.4.25, 2021-09-15T07:48:06+01:00*
G04 1eb5522c02d34d8f89c77509865788c0,48bc864c7916494db8d10f71d93e82f1,10*
G04 Gerber Generator version 0.2*
G04 Scale: 100 percent, Rotated: No, Reflected: No *
G04 Dimensions in millimeters *
G04 leading zeros omitted , absolute positions ,4 integer and 5 decimal *
%FSLAX45Y45*%
%MOMM*%

%ADD10C,0.2540*%
%ADD14C,0.6096*%
%ADD15C,0.6100*%
%ADD37C,1.2000*%
%ADD38C,3.5000*%
%ADD39C,2.5000*%
%ADD40R,2.0000X2.0000*%
%ADD41C,1.3000*%

%LPD*%
G36*
X250748Y-4994097D02*
G01*
X230022Y-4993182D01*
X210667Y-4990592D01*
X191566Y-4986324D01*
X172974Y-4980381D01*
X154889Y-4972862D01*
X137566Y-4963820D01*
X121107Y-4953304D01*
X105664Y-4941366D01*
X91236Y-4928108D01*
X78079Y-4913680D01*
X66192Y-4898136D01*
X55727Y-4881676D01*
X46736Y-4864303D01*
X39319Y-4846218D01*
X33477Y-4827574D01*
X29260Y-4808474D01*
X26771Y-4789119D01*
X25908Y-4769256D01*
X25908Y-250748D01*
X26822Y-230022D01*
X29413Y-210667D01*
X33680Y-191617D01*
X39624Y-172974D01*
X47142Y-154940D01*
X56184Y-137617D01*
X66700Y-121158D01*
X78638Y-105664D01*
X91897Y-91287D01*
X106324Y-78079D01*
X121869Y-66243D01*
X138379Y-55778D01*
X155702Y-46786D01*
X173786Y-39319D01*
X192430Y-33477D01*
X211531Y-29311D01*
X230936Y-26771D01*
X250748Y-25908D01*
X7189317Y-25908D01*
X7209993Y-26873D01*
X7229348Y-29464D01*
X7248398Y-33731D01*
X7267041Y-39624D01*
X7285075Y-47142D01*
X7302398Y-56184D01*
X7318857Y-66751D01*
X7334351Y-78689D01*
X7348728Y-91897D01*
X7361936Y-106324D01*
X7373772Y-121869D01*
X7384237Y-138379D01*
X7393228Y-155702D01*
X7400696Y-173786D01*
X7406538Y-192430D01*
X7410703Y-211531D01*
X7413244Y-230936D01*
X7414107Y-250850D01*
X7414107Y-2108352D01*
X7413345Y-2112264D01*
X7411110Y-2115515D01*
X7407859Y-2117750D01*
X7403947Y-2118512D01*
X7246061Y-2118512D01*
X7242352Y-2118817D01*
X7235291Y-2120849D01*
X7230364Y-2123592D01*
X7227163Y-2126284D01*
X7191908Y-2161336D01*
X7189368Y-2164232D01*
X7185863Y-2170684D01*
X7184288Y-2176068D01*
X7183983Y-2180386D01*
X7183983Y-3279648D01*
X7184288Y-3283458D01*
X7186320Y-3290519D01*
X7189063Y-3295396D01*
X7191857Y-3298647D01*
X7241336Y-3348126D01*
X7244232Y-3350615D01*
X7250684Y-3354171D01*
X7256068Y-3355695D01*
X7260336Y-3356000D01*
X7403947Y-3356000D01*
X7407808Y-3356762D01*
X7411110Y-3358997D01*
X7413294Y-3362248D01*
X7414107Y-3366160D01*
X7414107Y-4769256D01*
X7413142Y-4789982D01*
X7410551Y-4809337D01*
X7406284Y-4828438D01*
X7400391Y-4847082D01*
X7392873Y-4865116D01*
X7383830Y-4882438D01*
X7373264Y-4898898D01*
X7361326Y-4914392D01*
X7348118Y-4928768D01*
X7333691Y-4941925D01*
X7318146Y-4953812D01*
X7301636Y-4964277D01*
X7284262Y-4973269D01*
X7266228Y-4980686D01*
X7247585Y-4986528D01*
X7228484Y-4990744D01*
X7209078Y-4993233D01*
X7189266Y-4994097D01*
X5155184Y-4994097D01*
X5151272Y-4993335D01*
X5147970Y-4991150D01*
X5145786Y-4987848D01*
X5145024Y-4983937D01*
X5145024Y-4436008D01*
X5144008Y-4434992D01*
X4106011Y-4434992D01*
X4104995Y-4436008D01*
X4104995Y-4983937D01*
X4104233Y-4987848D01*
X4102049Y-4991150D01*
X4098747Y-4993335D01*
X4094835Y-4994097D01*
G37*

%LPC*%
G36*
X3659987Y-4966411D02*
G01*
X3669792Y-4965547D01*
X3679291Y-4963007D01*
X3688181Y-4958842D01*
X3696258Y-4953203D01*
X3703218Y-4946243D01*
X3708806Y-4938217D01*
X3712972Y-4929327D01*
X3715512Y-4919827D01*
X3716375Y-4910023D01*
X3715512Y-4900218D01*
X3712972Y-4890719D01*
X3708806Y-4881829D01*
X3703218Y-4873802D01*
X3696258Y-4866843D01*
X3691229Y-4863338D01*
X3688537Y-4860544D01*
X3687064Y-4856937D01*
X3687064Y-4853076D01*
X3688537Y-4849469D01*
X3691229Y-4846675D01*
X3696258Y-4843170D01*
X3703167Y-4836261D01*
X3708806Y-4828184D01*
X3712972Y-4819294D01*
X3715512Y-4809794D01*
X3716375Y-4800041D01*
X3715512Y-4790236D01*
X3712972Y-4780737D01*
X3708806Y-4771847D01*
X3703167Y-4763770D01*
X3696258Y-4756861D01*
X3688181Y-4751222D01*
X3679291Y-4747056D01*
X3669792Y-4744516D01*
X3659987Y-4743653D01*
X3650234Y-4744516D01*
X3640734Y-4747056D01*
X3631844Y-4751222D01*
X3623767Y-4756861D01*
X3622243Y-4758385D01*
X3618941Y-4760620D01*
X3615029Y-4761382D01*
X3010154Y-4761382D01*
X3006242Y-4760620D01*
X3002940Y-4758385D01*
X2831642Y-4587087D01*
X2829407Y-4583785D01*
X2828645Y-4579874D01*
X2828645Y-4455007D01*
X2829407Y-4451096D01*
X2831642Y-4447794D01*
X2833166Y-4446270D01*
X2838805Y-4438192D01*
X2842971Y-4429302D01*
X2845511Y-4419803D01*
X2846374Y-4410049D01*
X2845511Y-4400245D01*
X2842971Y-4390745D01*
X2838805Y-4381855D01*
X2833166Y-4373778D01*
X2826258Y-4366869D01*
X2818180Y-4361230D01*
X2809290Y-4357065D01*
X2799791Y-4354525D01*
X2790037Y-4353661D01*
X2780233Y-4354525D01*
X2770733Y-4357065D01*
X2761843Y-4361230D01*
X2753766Y-4366869D01*
X2746857Y-4373778D01*
X2741218Y-4381855D01*
X2737053Y-4390745D01*
X2734513Y-4400245D01*
X2733649Y-4410049D01*
X2734513Y-4419803D01*
X2737053Y-4429302D01*
X2741218Y-4438192D01*
X2746857Y-4446270D01*
X2748432Y-4447844D01*
X2750667Y-4451146D01*
X2751429Y-4455058D01*
X2751429Y-4599584D01*
X2752242Y-4607610D01*
X2754426Y-4614824D01*
X2757982Y-4621530D01*
X2763113Y-4627727D01*
X2962300Y-4826914D01*
X2968498Y-4832045D01*
X2975203Y-4835601D01*
X2982417Y-4837785D01*
X2990443Y-4838598D01*
X3614978Y-4838598D01*
X3618788Y-4839309D01*
X3621989Y-4841392D01*
X3624681Y-4843932D01*
X3626967Y-4847234D01*
X3627831Y-4851146D01*
X3627120Y-4855057D01*
X3624935Y-4858410D01*
X3621582Y-4860645D01*
X3617671Y-4861458D01*
X2525064Y-4861458D01*
X2521204Y-4860696D01*
X2517902Y-4858461D01*
X2516225Y-4856835D01*
X2508199Y-4851196D01*
X2499309Y-4847031D01*
X2489809Y-4844491D01*
X2480005Y-4843627D01*
X2470200Y-4844491D01*
X2460701Y-4847031D01*
X2451811Y-4851196D01*
X2443784Y-4856835D01*
X2436825Y-4863795D01*
X2431186Y-4871821D01*
X2427020Y-4880711D01*
X2424480Y-4890211D01*
X2423617Y-4900015D01*
X2424480Y-4909820D01*
X2427020Y-4919319D01*
X2431186Y-4928209D01*
X2436825Y-4936236D01*
X2443784Y-4943195D01*
X2451811Y-4948834D01*
X2460701Y-4953000D01*
X2470200Y-4955540D01*
X2480005Y-4956403D01*
X2489809Y-4955540D01*
X2499309Y-4953000D01*
X2508199Y-4948834D01*
X2516225Y-4943195D01*
X2517800Y-4941671D01*
X2521102Y-4939436D01*
X2524963Y-4938674D01*
X3606241Y-4938674D01*
X3609441Y-4939182D01*
X3612286Y-4940706D01*
X3614572Y-4942992D01*
X3616807Y-4946243D01*
X3623767Y-4953203D01*
X3631844Y-4958842D01*
X3640734Y-4963007D01*
X3650234Y-4965547D01*
G37*
G36*
X343865Y-4947462D02*
G01*
X347624Y-4945583D01*
X364134Y-4935372D01*
X379526Y-4923536D01*
X393750Y-4910328D01*
X406654Y-4895799D01*
X418033Y-4880102D01*
X427583Y-4863846D01*
X343865Y-4863846D01*
G37*
G36*
X7283856Y-4947462D02*
G01*
X7287666Y-4945583D01*
X7304125Y-4935372D01*
X7319568Y-4923536D01*
X7333742Y-4910328D01*
X7346645Y-4895799D01*
X7358024Y-4880102D01*
X7367574Y-4863846D01*
X7283856Y-4863846D01*
G37*
G36*
X156159Y-4947412D02*
G01*
X156159Y-4863846D01*
X72644Y-4863846D01*
X76809Y-4871872D01*
X87477Y-4888077D01*
X99618Y-4903216D01*
X113182Y-4917135D01*
X128016Y-4929632D01*
X144018Y-4940655D01*
G37*
G36*
X7096150Y-4947412D02*
G01*
X7096150Y-4863846D01*
X7012635Y-4863846D01*
X7016851Y-4871872D01*
X7027468Y-4888077D01*
X7039609Y-4903216D01*
X7053173Y-4917135D01*
X7068007Y-4929632D01*
X7084009Y-4940655D01*
G37*
G36*
X3620008Y-4696358D02*
G01*
X3629812Y-4695494D01*
X3639261Y-4692954D01*
X3648201Y-4688840D01*
X3656228Y-4683201D01*
X3663187Y-4676241D01*
X3668826Y-4668215D01*
X3672941Y-4659274D01*
X3675481Y-4649825D01*
X3676345Y-4640021D01*
X3675481Y-4630216D01*
X3672941Y-4620768D01*
X3668826Y-4611827D01*
X3663187Y-4603800D01*
X3656228Y-4596841D01*
X3648201Y-4591202D01*
X3639261Y-4587087D01*
X3629812Y-4584547D01*
X3620008Y-4583684D01*
X3610203Y-4584547D01*
X3600754Y-4587087D01*
X3591814Y-4591202D01*
X3583787Y-4596841D01*
X3582263Y-4598365D01*
X3578961Y-4600600D01*
X3575050Y-4601362D01*
X3530295Y-4601362D01*
X3526434Y-4600600D01*
X3523132Y-4598365D01*
X3299155Y-4374591D01*
X3297123Y-4371695D01*
X3296208Y-4368292D01*
X3295497Y-4360214D01*
X3292957Y-4350766D01*
X3288792Y-4341825D01*
X3283153Y-4333798D01*
X3281578Y-4332224D01*
X3279394Y-4328922D01*
X3278632Y-4325010D01*
X3278632Y-4202430D01*
X3279394Y-4198518D01*
X3281578Y-4195216D01*
X3284931Y-4193032D01*
X3288792Y-4192270D01*
X3292703Y-4193082D01*
X3296005Y-4195267D01*
X3303828Y-4203192D01*
X3311804Y-4208830D01*
X3320745Y-4212945D01*
X3330194Y-4215485D01*
X3339998Y-4216349D01*
X3349802Y-4215485D01*
X3364484Y-4211574D01*
X3368801Y-4212539D01*
X3372256Y-4215231D01*
X3374288Y-4219092D01*
X3377031Y-4229303D01*
X3381197Y-4238193D01*
X3386836Y-4246270D01*
X3393744Y-4253179D01*
X3401822Y-4258818D01*
X3410712Y-4262983D01*
X3420211Y-4265523D01*
X3430015Y-4266387D01*
X3439769Y-4265523D01*
X3449269Y-4262983D01*
X3458159Y-4258818D01*
X3466236Y-4253179D01*
X3473145Y-4246270D01*
X3478784Y-4238193D01*
X3482949Y-4229303D01*
X3485489Y-4219803D01*
X3486353Y-4210050D01*
X3485489Y-4200245D01*
X3482949Y-4190746D01*
X3478784Y-4181856D01*
X3473145Y-4173778D01*
X3471570Y-4172254D01*
X3469386Y-4168952D01*
X3468624Y-4165041D01*
X3468624Y-3994962D01*
X3469386Y-3991101D01*
X3471570Y-3987800D01*
X3473145Y-3986225D01*
X3478784Y-3978198D01*
X3482949Y-3969258D01*
X3485489Y-3959809D01*
X3486353Y-3950004D01*
X3485489Y-3940200D01*
X3482949Y-3930751D01*
X3478784Y-3921810D01*
X3473145Y-3913784D01*
X3471570Y-3912209D01*
X3469386Y-3908907D01*
X3468573Y-3904996D01*
X3468573Y-2443784D01*
X3469386Y-2439873D01*
X3471570Y-2436571D01*
X3689350Y-2218791D01*
X3692245Y-2216810D01*
X3695649Y-2215896D01*
X3699814Y-2215489D01*
X3709263Y-2212949D01*
X3718204Y-2208834D01*
X3725519Y-2203653D01*
X3729583Y-2201976D01*
X3734003Y-2202180D01*
X3737914Y-2204212D01*
X3740556Y-2207717D01*
X3741521Y-2211984D01*
X3741521Y-2964891D01*
X3740759Y-2968802D01*
X3738524Y-2972104D01*
X3736848Y-2973781D01*
X3731209Y-2981858D01*
X3727043Y-2990748D01*
X3724503Y-3000248D01*
X3723640Y-3010052D01*
X3724554Y-3020364D01*
X3724046Y-3024479D01*
X3721912Y-3028086D01*
X3718509Y-3030524D01*
X3714445Y-3031388D01*
X3660394Y-3031388D01*
X3656482Y-3030626D01*
X3653180Y-3028391D01*
X3607866Y-2983077D01*
X3601618Y-2977946D01*
X3594100Y-2973933D01*
X3591763Y-2972257D01*
X3586276Y-2966923D01*
X3578199Y-2961233D01*
X3569258Y-2957068D01*
X3559810Y-2954528D01*
X3550005Y-2953664D01*
X3540201Y-2954528D01*
X3530752Y-2957068D01*
X3521811Y-2961233D01*
X3513785Y-2966872D01*
X3506825Y-2973781D01*
X3501186Y-2981858D01*
X3497072Y-2990748D01*
X3494532Y-3000248D01*
X3493668Y-3010052D01*
X3494532Y-3019806D01*
X3497072Y-3029305D01*
X3501186Y-3038195D01*
X3506825Y-3046272D01*
X3513785Y-3053181D01*
X3521811Y-3058820D01*
X3530752Y-3062986D01*
X3540201Y-3065526D01*
X3550005Y-3066389D01*
X3559810Y-3065526D01*
X3573272Y-3062071D01*
X3577234Y-3062833D01*
X3580637Y-3065068D01*
X3612540Y-3096920D01*
X3618737Y-3102051D01*
X3625392Y-3105607D01*
X3632657Y-3107791D01*
X3640683Y-3108604D01*
X4037076Y-3108604D01*
X4040682Y-3109264D01*
X4043832Y-3111195D01*
X4046118Y-3114141D01*
X4047185Y-3117697D01*
X4046880Y-3121406D01*
X4044492Y-3130245D01*
X4043629Y-3140049D01*
X4044492Y-3149803D01*
X4047032Y-3159302D01*
X4051198Y-3168192D01*
X4056837Y-3176270D01*
X4063746Y-3183178D01*
X4071823Y-3188817D01*
X4080713Y-3192983D01*
X4090212Y-3195523D01*
X4099966Y-3196386D01*
X4109770Y-3195523D01*
X4119270Y-3192983D01*
X4128160Y-3188817D01*
X4136237Y-3183178D01*
X4137812Y-3181604D01*
X4141114Y-3179419D01*
X4144975Y-3178657D01*
X4919472Y-3178657D01*
X4927498Y-3177844D01*
X4934762Y-3175660D01*
X4941417Y-3172104D01*
X4947666Y-3166973D01*
X5235448Y-2879140D01*
X5238343Y-2877108D01*
X5241747Y-2876194D01*
X5249773Y-2875483D01*
X5259273Y-2872943D01*
X5268163Y-2868828D01*
X5276240Y-2863189D01*
X5283149Y-2856230D01*
X5288788Y-2848203D01*
X5292953Y-2839262D01*
X5295493Y-2829814D01*
X5296357Y-2820009D01*
X5295493Y-2810205D01*
X5292953Y-2800756D01*
X5288788Y-2791815D01*
X5283149Y-2783789D01*
X5276240Y-2776829D01*
X5268163Y-2771190D01*
X5259273Y-2767076D01*
X5249773Y-2764536D01*
X5240020Y-2763672D01*
X5230215Y-2764536D01*
X5220716Y-2767076D01*
X5211826Y-2771190D01*
X5203748Y-2776829D01*
X5196840Y-2783789D01*
X5191201Y-2791815D01*
X5187035Y-2800756D01*
X5184495Y-2810205D01*
X5183784Y-2818231D01*
X5182870Y-2821635D01*
X5180838Y-2824530D01*
X4933289Y-3072130D01*
X4930140Y-3074263D01*
X4926431Y-3075076D01*
X4922621Y-3074466D01*
X4919370Y-3072536D01*
X4917033Y-3069488D01*
X4915966Y-3065830D01*
X4915509Y-3060242D01*
X4912969Y-3050743D01*
X4908804Y-3041853D01*
X4903165Y-3033776D01*
X4896256Y-3026867D01*
X4888179Y-3021228D01*
X4879289Y-3017062D01*
X4869789Y-3014522D01*
X4860036Y-3013659D01*
X4850231Y-3014522D01*
X4840732Y-3017062D01*
X4831842Y-3021228D01*
X4823764Y-3026867D01*
X4822240Y-3028391D01*
X4818938Y-3030626D01*
X4815027Y-3031388D01*
X3845560Y-3031388D01*
X3841496Y-3030524D01*
X3838092Y-3028086D01*
X3835958Y-3024479D01*
X3835450Y-3020364D01*
X3836365Y-3010052D01*
X3835501Y-3000248D01*
X3832961Y-2990748D01*
X3828796Y-2981858D01*
X3823157Y-2973781D01*
X3821734Y-2972358D01*
X3819499Y-2969056D01*
X3818737Y-2965145D01*
X3818737Y-1530146D01*
X3819499Y-1526235D01*
X3821734Y-1522933D01*
X3926941Y-1417726D01*
X3932072Y-1411478D01*
X3934612Y-1406702D01*
X3937406Y-1403451D01*
X3941267Y-1401622D01*
X3945585Y-1401572D01*
X3949547Y-1403299D01*
X3952392Y-1406499D01*
X3953662Y-1410614D01*
X3954475Y-1419809D01*
X3957015Y-1429308D01*
X3961180Y-1438198D01*
X3966819Y-1446225D01*
X3973779Y-1453184D01*
X3981805Y-1458823D01*
X3990695Y-1462989D01*
X4000195Y-1465529D01*
X4009999Y-1466392D01*
X4019804Y-1465529D01*
X4029303Y-1462989D01*
X4038193Y-1458823D01*
X4046220Y-1453184D01*
X4047845Y-1451610D01*
X4051147Y-1449374D01*
X4055008Y-1448612D01*
X4169765Y-1448612D01*
X4173677Y-1449374D01*
X4176979Y-1451610D01*
X4180840Y-1455470D01*
X4182872Y-1458366D01*
X4183786Y-1461770D01*
X4184497Y-1469796D01*
X4187037Y-1479296D01*
X4191203Y-1488186D01*
X4196791Y-1496263D01*
X4203750Y-1503222D01*
X4211828Y-1508810D01*
X4220718Y-1512976D01*
X4230217Y-1515516D01*
X4240022Y-1516380D01*
X4249775Y-1515516D01*
X4259275Y-1512976D01*
X4268165Y-1508810D01*
X4275429Y-1503781D01*
X4279493Y-1502105D01*
X4283862Y-1502257D01*
X4287774Y-1504289D01*
X4290466Y-1507794D01*
X4291431Y-1512112D01*
X4291431Y-1564995D01*
X4290618Y-1568856D01*
X4288434Y-1572158D01*
X4286808Y-1573784D01*
X4281220Y-1581810D01*
X4277055Y-1590700D01*
X4274515Y-1600200D01*
X4273651Y-1610004D01*
X4274515Y-1619808D01*
X4277055Y-1629308D01*
X4281220Y-1638198D01*
X4286808Y-1646224D01*
X4293768Y-1653184D01*
X4301845Y-1658823D01*
X4310735Y-1662988D01*
X4320235Y-1665528D01*
X4330039Y-1666392D01*
X4339793Y-1665528D01*
X4349292Y-1662988D01*
X4358182Y-1658823D01*
X4366260Y-1653184D01*
X4373219Y-1646224D01*
X4378807Y-1638198D01*
X4382973Y-1629308D01*
X4385513Y-1619808D01*
X4386376Y-1610004D01*
X4385513Y-1600200D01*
X4382973Y-1590700D01*
X4378807Y-1581810D01*
X4373219Y-1573784D01*
X4371594Y-1572158D01*
X4369409Y-1568856D01*
X4368596Y-1564995D01*
X4368596Y-830529D01*
X4367834Y-822502D01*
X4365650Y-815289D01*
X4362094Y-808583D01*
X4356963Y-802386D01*
X4169156Y-614578D01*
X4167124Y-611682D01*
X4166209Y-608279D01*
X4165498Y-600202D01*
X4162958Y-590702D01*
X4158792Y-581812D01*
X4153204Y-573786D01*
X4146245Y-566826D01*
X4138168Y-561187D01*
X4129278Y-557022D01*
X4119778Y-554482D01*
X4110024Y-553618D01*
X4100220Y-554482D01*
X4090720Y-557022D01*
X4081830Y-561187D01*
X4073753Y-566826D01*
X4066794Y-573786D01*
X4061206Y-581812D01*
X4057040Y-590702D01*
X4054500Y-600202D01*
X4053636Y-610006D01*
X4054500Y-619810D01*
X4057040Y-629310D01*
X4061206Y-638200D01*
X4066794Y-646226D01*
X4073753Y-653186D01*
X4081830Y-658825D01*
X4090720Y-662990D01*
X4100220Y-665530D01*
X4108246Y-666242D01*
X4111650Y-667156D01*
X4114546Y-669137D01*
X4203293Y-757936D01*
X4205630Y-761441D01*
X4206290Y-765657D01*
X4205173Y-769721D01*
X4202531Y-773023D01*
X4198772Y-774903D01*
X4190746Y-777087D01*
X4181805Y-781202D01*
X4173778Y-786841D01*
X4166819Y-793800D01*
X4161180Y-801827D01*
X4157065Y-810768D01*
X4154525Y-820216D01*
X4153662Y-830021D01*
X4154525Y-839825D01*
X4157065Y-849274D01*
X4161180Y-858215D01*
X4166819Y-866241D01*
X4168394Y-867816D01*
X4170629Y-871118D01*
X4171391Y-875030D01*
X4171391Y-1109522D01*
X4172204Y-1117549D01*
X4174388Y-1124762D01*
X4177944Y-1131417D01*
X4183075Y-1137666D01*
X4190898Y-1145489D01*
X4192879Y-1148384D01*
X4193794Y-1151788D01*
X4194505Y-1159814D01*
X4197045Y-1169263D01*
X4201210Y-1178204D01*
X4206849Y-1186230D01*
X4213758Y-1193190D01*
X4221835Y-1198829D01*
X4230725Y-1202944D01*
X4236567Y-1204518D01*
X4239971Y-1206195D01*
X4242562Y-1208989D01*
X4243933Y-1212545D01*
X4243882Y-1216406D01*
X4242409Y-1219911D01*
X4239717Y-1222654D01*
X4233773Y-1226820D01*
X4226814Y-1233779D01*
X4221175Y-1241856D01*
X4217009Y-1250746D01*
X4214469Y-1260246D01*
X4213606Y-1270050D01*
X4214469Y-1279804D01*
X4217009Y-1289304D01*
X4221175Y-1298194D01*
X4226814Y-1306271D01*
X4233773Y-1313230D01*
X4241800Y-1318818D01*
X4250690Y-1322984D01*
X4260189Y-1325524D01*
X4269994Y-1326388D01*
X4280357Y-1325473D01*
X4284522Y-1325981D01*
X4288129Y-1328115D01*
X4290568Y-1331518D01*
X4291431Y-1335633D01*
X4291431Y-1407922D01*
X4290466Y-1412240D01*
X4287774Y-1415745D01*
X4283862Y-1417777D01*
X4279493Y-1417929D01*
X4275429Y-1416253D01*
X4268165Y-1411224D01*
X4259275Y-1407058D01*
X4249775Y-1404518D01*
X4241749Y-1403807D01*
X4238345Y-1402892D01*
X4235450Y-1400860D01*
X4217619Y-1383080D01*
X4211421Y-1377950D01*
X4204766Y-1374394D01*
X4197502Y-1372209D01*
X4189476Y-1371396D01*
X4055008Y-1371396D01*
X4051147Y-1370634D01*
X4047845Y-1368399D01*
X4046220Y-1366824D01*
X4038193Y-1361186D01*
X4029303Y-1357020D01*
X4019804Y-1354480D01*
X4009999Y-1353616D01*
X4000195Y-1354480D01*
X3990695Y-1357020D01*
X3981805Y-1361186D01*
X3973779Y-1366824D01*
X3966819Y-1373784D01*
X3961180Y-1381810D01*
X3957980Y-1388719D01*
X3955694Y-1391869D01*
X3952341Y-1393901D01*
X3948531Y-1394561D01*
X3944721Y-1393748D01*
X3941470Y-1391513D01*
X3939336Y-1388262D01*
X3938625Y-1384401D01*
X3938625Y-1345031D01*
X3939387Y-1341120D01*
X3941572Y-1337818D01*
X3943146Y-1336243D01*
X3948785Y-1328216D01*
X3952951Y-1319276D01*
X3955491Y-1309827D01*
X3956354Y-1300022D01*
X3955491Y-1290218D01*
X3952951Y-1280769D01*
X3948785Y-1271828D01*
X3943146Y-1263802D01*
X3936237Y-1256842D01*
X3928160Y-1251204D01*
X3919270Y-1247089D01*
X3909771Y-1244549D01*
X3900017Y-1243685D01*
X3890213Y-1244549D01*
X3880713Y-1247089D01*
X3871823Y-1251204D01*
X3863746Y-1256842D01*
X3856837Y-1263802D01*
X3851198Y-1271828D01*
X3847033Y-1280769D01*
X3844493Y-1290218D01*
X3843629Y-1300022D01*
X3844493Y-1309827D01*
X3847033Y-1319276D01*
X3851198Y-1328216D01*
X3856837Y-1336243D01*
X3858412Y-1337818D01*
X3860596Y-1341120D01*
X3861409Y-1345031D01*
X3861409Y-1369872D01*
X3860596Y-1373733D01*
X3858412Y-1377035D01*
X3753205Y-1482293D01*
X3748074Y-1488490D01*
X3744518Y-1495196D01*
X3742334Y-1502410D01*
X3741521Y-1510436D01*
X3741521Y-1994763D01*
X3740759Y-1998573D01*
X3738626Y-2001824D01*
X3735425Y-2004060D01*
X3731615Y-2004923D01*
X3727754Y-2004263D01*
X3724452Y-2002180D01*
X3722166Y-1999030D01*
X3718814Y-1991817D01*
X3713175Y-1983790D01*
X3706215Y-1976831D01*
X3698189Y-1971192D01*
X3689248Y-1967077D01*
X3679799Y-1964537D01*
X3669995Y-1963674D01*
X3660190Y-1964537D01*
X3650742Y-1967077D01*
X3641801Y-1971192D01*
X3633774Y-1976831D01*
X3626815Y-1983790D01*
X3621176Y-1991817D01*
X3617061Y-2000757D01*
X3614521Y-2010206D01*
X3613810Y-2018233D01*
X3612896Y-2021636D01*
X3610864Y-2024532D01*
X3313074Y-2322372D01*
X3307943Y-2328570D01*
X3304387Y-2335276D01*
X3302203Y-2342489D01*
X3301390Y-2350516D01*
X3301390Y-3977589D01*
X3300628Y-3981500D01*
X3298393Y-3984802D01*
X3295091Y-3986987D01*
X3291179Y-3987749D01*
X3287268Y-3986936D01*
X3284016Y-3984751D01*
X3276193Y-3976827D01*
X3268167Y-3971188D01*
X3259277Y-3967073D01*
X3249777Y-3964533D01*
X3239973Y-3963670D01*
X3230219Y-3964533D01*
X3220720Y-3967073D01*
X3211830Y-3971188D01*
X3203752Y-3976827D01*
X3196844Y-3983786D01*
X3191205Y-3991813D01*
X3187039Y-4000754D01*
X3184499Y-4010202D01*
X3183636Y-4020007D01*
X3184499Y-4029811D01*
X3187039Y-4039260D01*
X3191205Y-4048201D01*
X3196844Y-4056227D01*
X3198266Y-4057700D01*
X3200501Y-4061002D01*
X3201263Y-4064863D01*
X3201263Y-4325162D01*
X3200501Y-4329023D01*
X3198266Y-4332325D01*
X3196844Y-4333798D01*
X3191205Y-4341825D01*
X3187039Y-4350766D01*
X3184499Y-4360214D01*
X3183636Y-4370019D01*
X3184499Y-4379823D01*
X3187039Y-4389272D01*
X3191205Y-4398213D01*
X3196844Y-4406239D01*
X3203752Y-4413199D01*
X3211830Y-4418838D01*
X3220720Y-4422952D01*
X3230219Y-4425492D01*
X3238195Y-4426204D01*
X3241598Y-4427118D01*
X3244494Y-4429150D01*
X3482492Y-4666945D01*
X3488690Y-4672025D01*
X3495395Y-4675581D01*
X3502609Y-4677765D01*
X3510635Y-4678578D01*
X3574948Y-4678578D01*
X3578860Y-4679340D01*
X3582162Y-4681575D01*
X3583787Y-4683201D01*
X3591814Y-4688840D01*
X3600754Y-4692954D01*
X3610203Y-4695494D01*
G37*
G36*
X72644Y-4676140D02*
G01*
X156159Y-4676140D01*
X156159Y-4592624D01*
X144018Y-4599381D01*
X128016Y-4610404D01*
X113182Y-4622901D01*
X99618Y-4636770D01*
X87477Y-4651908D01*
X76809Y-4668164D01*
G37*
G36*
X7012635Y-4676140D02*
G01*
X7096150Y-4676140D01*
X7096150Y-4592624D01*
X7084009Y-4599381D01*
X7068007Y-4610404D01*
X7053173Y-4622901D01*
X7039609Y-4636770D01*
X7027468Y-4651908D01*
X7016851Y-4668164D01*
G37*
G36*
X343865Y-4676140D02*
G01*
X427583Y-4676140D01*
X418033Y-4659934D01*
X406654Y-4644237D01*
X393750Y-4629708D01*
X379526Y-4616450D01*
X364134Y-4604664D01*
X347624Y-4594453D01*
X343865Y-4592574D01*
G37*
G36*
X7283856Y-4676140D02*
G01*
X7367574Y-4676140D01*
X7358024Y-4659934D01*
X7346645Y-4644237D01*
X7333742Y-4629708D01*
X7319568Y-4616450D01*
X7304125Y-4604664D01*
X7287666Y-4594453D01*
X7283856Y-4592574D01*
G37*
G36*
X2363012Y-4616653D02*
G01*
X2372817Y-4615789D01*
X2382266Y-4613249D01*
X2391206Y-4609134D01*
X2399233Y-4603496D01*
X2406192Y-4596536D01*
X2411831Y-4588510D01*
X2415946Y-4579569D01*
X2418486Y-4570120D01*
X2419350Y-4560316D01*
X2418486Y-4550511D01*
X2415946Y-4541062D01*
X2411831Y-4532122D01*
X2406192Y-4524095D01*
X2399233Y-4517136D01*
X2391206Y-4511497D01*
X2382266Y-4507382D01*
X2372817Y-4504842D01*
X2363012Y-4503978D01*
X2353208Y-4504842D01*
X2343759Y-4507382D01*
X2334818Y-4511497D01*
X2326792Y-4517136D01*
X2325217Y-4518710D01*
X2321915Y-4520946D01*
X2318054Y-4521708D01*
X1980488Y-4521708D01*
X1976628Y-4520946D01*
X1973325Y-4518710D01*
X1899107Y-4444542D01*
X1897125Y-4441647D01*
X1896211Y-4438243D01*
X1895500Y-4430217D01*
X1894687Y-4427118D01*
X1894332Y-4423613D01*
X1895246Y-4420209D01*
X1897278Y-4417314D01*
X2062988Y-4251604D01*
X2066289Y-4249420D01*
X2070201Y-4248658D01*
X2084425Y-4248658D01*
X2088235Y-4249369D01*
X2091486Y-4251502D01*
X2093722Y-4254754D01*
X2094585Y-4258564D01*
X2093925Y-4262374D01*
X2091842Y-4265726D01*
X2088692Y-4268012D01*
X2081834Y-4271213D01*
X2073757Y-4276852D01*
X2066848Y-4283760D01*
X2061210Y-4291838D01*
X2057044Y-4300728D01*
X2054504Y-4310227D01*
X2053640Y-4320032D01*
X2054504Y-4329785D01*
X2057044Y-4339285D01*
X2061210Y-4348175D01*
X2066848Y-4356252D01*
X2073757Y-4363161D01*
X2081834Y-4368800D01*
X2090724Y-4372965D01*
X2100224Y-4375505D01*
X2110028Y-4376369D01*
X2119782Y-4375505D01*
X2129282Y-4372965D01*
X2138172Y-4368800D01*
X2146249Y-4363161D01*
X2147824Y-4361586D01*
X2151075Y-4359402D01*
X2154986Y-4358640D01*
X2345029Y-4358640D01*
X2348941Y-4359402D01*
X2352192Y-4361586D01*
X2353767Y-4363161D01*
X2361844Y-4368800D01*
X2370734Y-4372965D01*
X2380234Y-4375505D01*
X2389987Y-4376369D01*
X2399792Y-4375505D01*
X2409291Y-4372965D01*
X2418181Y-4368800D01*
X2426258Y-4363161D01*
X2433167Y-4356252D01*
X2438806Y-4348175D01*
X2442972Y-4339285D01*
X2445512Y-4329785D01*
X2446375Y-4320032D01*
X2445512Y-4310227D01*
X2442972Y-4300728D01*
X2438806Y-4291838D01*
X2433167Y-4283760D01*
X2428341Y-4278934D01*
X2426106Y-4275582D01*
X2425344Y-4271619D01*
X2426208Y-4267708D01*
X2428544Y-4264406D01*
X2431948Y-4262272D01*
X2435910Y-4261612D01*
X2450185Y-4265523D01*
X2459990Y-4266387D01*
X2469794Y-4265523D01*
X2479243Y-4262983D01*
X2488184Y-4258818D01*
X2496210Y-4253179D01*
X2503170Y-4246270D01*
X2508808Y-4238193D01*
X2512923Y-4229303D01*
X2515463Y-4219803D01*
X2516327Y-4210050D01*
X2515463Y-4200245D01*
X2512923Y-4190746D01*
X2508808Y-4181856D01*
X2503170Y-4173778D01*
X2496210Y-4166870D01*
X2488184Y-4161231D01*
X2479243Y-4157065D01*
X2469794Y-4154525D01*
X2459990Y-4153662D01*
X2450185Y-4154525D01*
X2440736Y-4157065D01*
X2431796Y-4161231D01*
X2423769Y-4166870D01*
X2422194Y-4168444D01*
X2418892Y-4170629D01*
X2414981Y-4171442D01*
X2050491Y-4171442D01*
X2042464Y-4172204D01*
X2035251Y-4174388D01*
X2028596Y-4177944D01*
X2022348Y-4183075D01*
X1817522Y-4387900D01*
X1814626Y-4389932D01*
X1811832Y-4391202D01*
X1803755Y-4396841D01*
X1796846Y-4403801D01*
X1791207Y-4411827D01*
X1787042Y-4420768D01*
X1784502Y-4430217D01*
X1783638Y-4440021D01*
X1784502Y-4449826D01*
X1787042Y-4459274D01*
X1791207Y-4468215D01*
X1796846Y-4476242D01*
X1803755Y-4483201D01*
X1811832Y-4488840D01*
X1820722Y-4492955D01*
X1830222Y-4495495D01*
X1838248Y-4496206D01*
X1841652Y-4497120D01*
X1844548Y-4499152D01*
X1932635Y-4587240D01*
X1938883Y-4592370D01*
X1945538Y-4595926D01*
X1952752Y-4598111D01*
X1960778Y-4598924D01*
X2318004Y-4598924D01*
X2321915Y-4599686D01*
X2325217Y-4601870D01*
X2326792Y-4603496D01*
X2334818Y-4609134D01*
X2343759Y-4613249D01*
X2353208Y-4615789D01*
G37*
G36*
X4069994Y-4406392D02*
G01*
X4079798Y-4405528D01*
X4089298Y-4402988D01*
X4098188Y-4398822D01*
X4106214Y-4393184D01*
X4107840Y-4391609D01*
X4111142Y-4389374D01*
X4115003Y-4388612D01*
X4374997Y-4388612D01*
X4378909Y-4389374D01*
X4382211Y-4391609D01*
X4383786Y-4393184D01*
X4391812Y-4398822D01*
X4400753Y-4402937D01*
X4410202Y-4405477D01*
X4420006Y-4406341D01*
X4429810Y-4405477D01*
X4439259Y-4402937D01*
X4448200Y-4398822D01*
X4456226Y-4393184D01*
X4463186Y-4386224D01*
X4468825Y-4378198D01*
X4472940Y-4369257D01*
X4475480Y-4359808D01*
X4476343Y-4350004D01*
X4475480Y-4340199D01*
X4472940Y-4330750D01*
X4468825Y-4321810D01*
X4463186Y-4313783D01*
X4456226Y-4306824D01*
X4448200Y-4301185D01*
X4439259Y-4297070D01*
X4429810Y-4294530D01*
X4420006Y-4293666D01*
X4410202Y-4294530D01*
X4400753Y-4297070D01*
X4391812Y-4301185D01*
X4383786Y-4306824D01*
X4382211Y-4308398D01*
X4378909Y-4310634D01*
X4374997Y-4311396D01*
X4115003Y-4311396D01*
X4111142Y-4310634D01*
X4107840Y-4308398D01*
X4106214Y-4306824D01*
X4098188Y-4301185D01*
X4089298Y-4297019D01*
X4079798Y-4294479D01*
X4069994Y-4293616D01*
X4060190Y-4294479D01*
X4050690Y-4297019D01*
X4041800Y-4301185D01*
X4033774Y-4306824D01*
X4026814Y-4313783D01*
X4021175Y-4321810D01*
X4017010Y-4330700D01*
X4014470Y-4340199D01*
X4013606Y-4350004D01*
X4014470Y-4359808D01*
X4017010Y-4369308D01*
X4021175Y-4378198D01*
X4026814Y-4386224D01*
X4033774Y-4393184D01*
X4041800Y-4398822D01*
X4050690Y-4402988D01*
X4060190Y-4405528D01*
G37*
G36*
X154736Y-4388662D02*
G01*
X233578Y-4388662D01*
X239877Y-4387951D01*
X246634Y-4385513D01*
X250037Y-4384903D01*
X253441Y-4385513D01*
X260197Y-4387951D01*
X266496Y-4388662D01*
X345338Y-4388662D01*
X351688Y-4387900D01*
X357124Y-4386021D01*
X362051Y-4382922D01*
X366115Y-4378858D01*
X369214Y-4373930D01*
X371094Y-4368495D01*
X371856Y-4362145D01*
X371856Y-4356557D01*
X372618Y-4352696D01*
X374802Y-4349394D01*
X378104Y-4347210D01*
X382016Y-4346397D01*
X562813Y-4346397D01*
X566674Y-4347210D01*
X569976Y-4349394D01*
X573786Y-4353204D01*
X581812Y-4358843D01*
X590753Y-4362958D01*
X600202Y-4365498D01*
X610006Y-4366361D01*
X619810Y-4365498D01*
X629259Y-4362958D01*
X638200Y-4358843D01*
X646226Y-4353204D01*
X653186Y-4346244D01*
X658825Y-4338218D01*
X662940Y-4329277D01*
X665480Y-4319828D01*
X666343Y-4310024D01*
X665480Y-4300220D01*
X662940Y-4290771D01*
X658825Y-4281830D01*
X653186Y-4273804D01*
X646226Y-4266844D01*
X638200Y-4261205D01*
X629259Y-4257090D01*
X619810Y-4254550D01*
X610006Y-4253687D01*
X600202Y-4254550D01*
X590753Y-4257090D01*
X581812Y-4261205D01*
X573074Y-4267352D01*
X570280Y-4268724D01*
X567232Y-4269181D01*
X382016Y-4269181D01*
X378104Y-4268419D01*
X374802Y-4266234D01*
X372618Y-4262932D01*
X371856Y-4259021D01*
X371856Y-4253331D01*
X371094Y-4246981D01*
X369214Y-4241546D01*
X366115Y-4236618D01*
X362051Y-4232554D01*
X357124Y-4229455D01*
X351688Y-4227576D01*
X345338Y-4226864D01*
X266496Y-4226864D01*
X260197Y-4227525D01*
X253441Y-4229963D01*
X250037Y-4230573D01*
X246634Y-4229963D01*
X239877Y-4227525D01*
X233578Y-4226864D01*
X154736Y-4226864D01*
X148386Y-4227576D01*
X142951Y-4229455D01*
X138023Y-4232554D01*
X133959Y-4236618D01*
X130860Y-4241546D01*
X128981Y-4246981D01*
X128270Y-4253331D01*
X128270Y-4362145D01*
X128981Y-4368495D01*
X130860Y-4373930D01*
X133959Y-4378858D01*
X138023Y-4382922D01*
X142951Y-4386021D01*
X148386Y-4387900D01*
G37*
G36*
X3999992Y-4216349D02*
G01*
X4009796Y-4215485D01*
X4019245Y-4212945D01*
X4028186Y-4208830D01*
X4036212Y-4203192D01*
X4043172Y-4196232D01*
X4048810Y-4188206D01*
X4052925Y-4179265D01*
X4055465Y-4169816D01*
X4056176Y-4161790D01*
X4057091Y-4158386D01*
X4059123Y-4155490D01*
X4453026Y-3761587D01*
X4456328Y-3759403D01*
X4460189Y-3758641D01*
X4495038Y-3758641D01*
X4498898Y-3759403D01*
X4502200Y-3761587D01*
X4503775Y-3763162D01*
X4511802Y-3768801D01*
X4520742Y-3772966D01*
X4530191Y-3775506D01*
X4539996Y-3776370D01*
X4549800Y-3775506D01*
X4559249Y-3772966D01*
X4568190Y-3768801D01*
X4576216Y-3763162D01*
X4583176Y-3756253D01*
X4588814Y-3748176D01*
X4592929Y-3739286D01*
X4595469Y-3729786D01*
X4596333Y-3720033D01*
X4595469Y-3710228D01*
X4592929Y-3700729D01*
X4588814Y-3691839D01*
X4583176Y-3683762D01*
X4576216Y-3676853D01*
X4568190Y-3671214D01*
X4559249Y-3667048D01*
X4549800Y-3664508D01*
X4539996Y-3663645D01*
X4530191Y-3664508D01*
X4520742Y-3667048D01*
X4511802Y-3671214D01*
X4503775Y-3676853D01*
X4502200Y-3678428D01*
X4498898Y-3680612D01*
X4494987Y-3681425D01*
X4440478Y-3681425D01*
X4432452Y-3682187D01*
X4425238Y-3684371D01*
X4418584Y-3687927D01*
X4412335Y-3693058D01*
X4004513Y-4100880D01*
X4001617Y-4102912D01*
X3998214Y-4103827D01*
X3990187Y-4104538D01*
X3980738Y-4107078D01*
X3971798Y-4111193D01*
X3963771Y-4116832D01*
X3956812Y-4123791D01*
X3951173Y-4131818D01*
X3947058Y-4140758D01*
X3944518Y-4150207D01*
X3943654Y-4160012D01*
X3944518Y-4169816D01*
X3947058Y-4179265D01*
X3951173Y-4188206D01*
X3956812Y-4196232D01*
X3963771Y-4203192D01*
X3971798Y-4208830D01*
X3980738Y-4212945D01*
X3990187Y-4215485D01*
G37*
G36*
X929995Y-4186377D02*
G01*
X939800Y-4185513D01*
X949248Y-4182973D01*
X958189Y-4178808D01*
X966216Y-4173169D01*
X973175Y-4166260D01*
X978814Y-4158183D01*
X982929Y-4149293D01*
X985469Y-4139793D01*
X986332Y-4130040D01*
X985469Y-4120235D01*
X982929Y-4110736D01*
X978814Y-4101846D01*
X973175Y-4093768D01*
X966216Y-4086860D01*
X958189Y-4081221D01*
X949248Y-4077055D01*
X939800Y-4074515D01*
X931773Y-4073804D01*
X928369Y-4072890D01*
X925474Y-4070858D01*
X779780Y-3925163D01*
X773531Y-3920083D01*
X766876Y-3916527D01*
X759663Y-3914343D01*
X751636Y-3913530D01*
X336143Y-3913530D01*
X332232Y-3912768D01*
X328980Y-3910533D01*
X326745Y-3907231D01*
X325983Y-3903370D01*
X325983Y-3897731D01*
X325272Y-3891381D01*
X323342Y-3885946D01*
X320294Y-3881018D01*
X316179Y-3876954D01*
X311302Y-3873855D01*
X305816Y-3871976D01*
X299516Y-3871264D01*
X200558Y-3871264D01*
X194259Y-3871976D01*
X188772Y-3873855D01*
X183896Y-3876954D01*
X179781Y-3881018D01*
X176733Y-3885946D01*
X174802Y-3891381D01*
X174091Y-3897731D01*
X174091Y-4006545D01*
X174802Y-4012895D01*
X176733Y-4018330D01*
X179781Y-4023258D01*
X183896Y-4027322D01*
X188772Y-4030421D01*
X194259Y-4032300D01*
X200558Y-4033062D01*
X299516Y-4033062D01*
X305816Y-4032300D01*
X311302Y-4030421D01*
X316179Y-4027322D01*
X320294Y-4023258D01*
X323342Y-4018330D01*
X325272Y-4012895D01*
X325983Y-4006545D01*
X325983Y-4000906D01*
X326745Y-3996994D01*
X328980Y-3993743D01*
X332232Y-3991508D01*
X336143Y-3990746D01*
X731926Y-3990746D01*
X735787Y-3991508D01*
X739089Y-3993743D01*
X870864Y-4125468D01*
X872896Y-4128363D01*
X873810Y-4131767D01*
X874521Y-4139793D01*
X877062Y-4149293D01*
X881176Y-4158183D01*
X886815Y-4166260D01*
X893775Y-4173169D01*
X901801Y-4178808D01*
X910742Y-4182973D01*
X920191Y-4185513D01*
G37*
G36*
X6955332Y-3190798D02*
G01*
X7044639Y-3190798D01*
X7057339Y-3189935D01*
X7069531Y-3187395D01*
X7081215Y-3183229D01*
X7092188Y-3177540D01*
X7102348Y-3170377D01*
X7111390Y-3161944D01*
X7119213Y-3152292D01*
X7125665Y-3141726D01*
X7130643Y-3130346D01*
X7133945Y-3118358D01*
X7135672Y-3106115D01*
X7135672Y-3093669D01*
X7133945Y-3081375D01*
X7130643Y-3069437D01*
X7125665Y-3058058D01*
X7119213Y-3047492D01*
X7111390Y-3037840D01*
X7102348Y-3029407D01*
X7092188Y-3022244D01*
X7081215Y-3016554D01*
X7069531Y-3012389D01*
X7057339Y-3009849D01*
X7044639Y-3008985D01*
X6955332Y-3008985D01*
X6942632Y-3009849D01*
X6930440Y-3012389D01*
X6918756Y-3016554D01*
X6907784Y-3022244D01*
X6897624Y-3029407D01*
X6888581Y-3037840D01*
X6880758Y-3047492D01*
X6874306Y-3058058D01*
X6869328Y-3069437D01*
X6866026Y-3081375D01*
X6864299Y-3093669D01*
X6864299Y-3106115D01*
X6866026Y-3118358D01*
X6869328Y-3130346D01*
X6874306Y-3141726D01*
X6880758Y-3152292D01*
X6888581Y-3161944D01*
X6897624Y-3170377D01*
X6907784Y-3177540D01*
X6918756Y-3183229D01*
X6930440Y-3187395D01*
X6942632Y-3189935D01*
G37*
G36*
X181152Y-3154070D02*
G01*
X181152Y-3088843D01*
X115925Y-3088843D01*
X122224Y-3100273D01*
X132029Y-3114090D01*
X143306Y-3126689D01*
X155905Y-3137966D01*
X169722Y-3147771D01*
G37*
G36*
X318871Y-3154070D02*
G01*
X330301Y-3147771D01*
X344068Y-3137966D01*
X356717Y-3126689D01*
X367995Y-3114090D01*
X377748Y-3100273D01*
X384098Y-3088843D01*
X318871Y-3088843D01*
G37*
G36*
X6729984Y-3068269D02*
G01*
X6742226Y-3067405D01*
X6754164Y-3064814D01*
X6765645Y-3060496D01*
X6776415Y-3054654D01*
X6786219Y-3047288D01*
X6794906Y-3038652D01*
X6802221Y-3028848D01*
X6808114Y-3018078D01*
X6812381Y-3006598D01*
X6814972Y-2994609D01*
X6815886Y-2982417D01*
X6814972Y-2970174D01*
X6812381Y-2958185D01*
X6808114Y-2946704D01*
X6802221Y-2935986D01*
X6794906Y-2926181D01*
X6786219Y-2917494D01*
X6776415Y-2910128D01*
X6765645Y-2904286D01*
X6754164Y-2899968D01*
X6742226Y-2897378D01*
X6729984Y-2896514D01*
X6717741Y-2897378D01*
X6705803Y-2899968D01*
X6694322Y-2904286D01*
X6683552Y-2910128D01*
X6673748Y-2917494D01*
X6665061Y-2926181D01*
X6657746Y-2935986D01*
X6651853Y-2946704D01*
X6647586Y-2958185D01*
X6644995Y-2970174D01*
X6644081Y-2982417D01*
X6644995Y-2994609D01*
X6647586Y-3006598D01*
X6651853Y-3018078D01*
X6657746Y-3028848D01*
X6665061Y-3038652D01*
X6673748Y-3047288D01*
X6683552Y-3054654D01*
X6694322Y-3060496D01*
X6705803Y-3064814D01*
X6717741Y-3067405D01*
G37*
G36*
X6130036Y-3036366D02*
G01*
X6139789Y-3035503D01*
X6149289Y-3032963D01*
X6158179Y-3028797D01*
X6166256Y-3023158D01*
X6173165Y-3016250D01*
X6178804Y-3008172D01*
X6182969Y-2999282D01*
X6185509Y-2989783D01*
X6186373Y-2980029D01*
X6185509Y-2970225D01*
X6182969Y-2960725D01*
X6178804Y-2951835D01*
X6173165Y-2943758D01*
X6171590Y-2942183D01*
X6169406Y-2938881D01*
X6168644Y-2935020D01*
X6168644Y-2800502D01*
X6167831Y-2792476D01*
X6165646Y-2785262D01*
X6162090Y-2778607D01*
X6156960Y-2772359D01*
X5609132Y-2224532D01*
X5607100Y-2221636D01*
X5606186Y-2218232D01*
X5605475Y-2210206D01*
X5602935Y-2200757D01*
X5598820Y-2191816D01*
X5593181Y-2183790D01*
X5586222Y-2176830D01*
X5578195Y-2171192D01*
X5569254Y-2167077D01*
X5559806Y-2164537D01*
X5550001Y-2163673D01*
X5540197Y-2164537D01*
X5530748Y-2167077D01*
X5521807Y-2171192D01*
X5513781Y-2176830D01*
X5506821Y-2183790D01*
X5501182Y-2191816D01*
X5497068Y-2200757D01*
X5494528Y-2210206D01*
X5493664Y-2220010D01*
X5494528Y-2229815D01*
X5497068Y-2239264D01*
X5501182Y-2248204D01*
X5506821Y-2256231D01*
X5513781Y-2263190D01*
X5521807Y-2268829D01*
X5530748Y-2272944D01*
X5540197Y-2275484D01*
X5548223Y-2276195D01*
X5551627Y-2277110D01*
X5554522Y-2279142D01*
X6088430Y-2813050D01*
X6090615Y-2816352D01*
X6091428Y-2820212D01*
X6091428Y-2935020D01*
X6090615Y-2938881D01*
X6088430Y-2942183D01*
X6086856Y-2943758D01*
X6081217Y-2951835D01*
X6077051Y-2960725D01*
X6074511Y-2970225D01*
X6073648Y-2980029D01*
X6074511Y-2989783D01*
X6077051Y-2999282D01*
X6081217Y-3008172D01*
X6086856Y-3016250D01*
X6093764Y-3023158D01*
X6101842Y-3028797D01*
X6110732Y-3032963D01*
X6120231Y-3035503D01*
G37*
G36*
X318871Y-2951175D02*
G01*
X384098Y-2951175D01*
X377748Y-2939745D01*
X367995Y-2925927D01*
X356717Y-2913329D01*
X344068Y-2902051D01*
X330301Y-2892247D01*
X318871Y-2885948D01*
G37*
G36*
X115925Y-2951175D02*
G01*
X181152Y-2951175D01*
X181152Y-2885948D01*
X169722Y-2892247D01*
X155905Y-2902051D01*
X143306Y-2913329D01*
X132029Y-2925927D01*
X122224Y-2939745D01*
G37*
G36*
X1650593Y-2645918D02*
G01*
X1849424Y-2645918D01*
X1855774Y-2645206D01*
X1861210Y-2643276D01*
X1866138Y-2640228D01*
X1870202Y-2636113D01*
X1873300Y-2631236D01*
X1875180Y-2625750D01*
X1875891Y-2619451D01*
X1875891Y-2420569D01*
X1875180Y-2414270D01*
X1873300Y-2408783D01*
X1870202Y-2403906D01*
X1866138Y-2399792D01*
X1861210Y-2396744D01*
X1855774Y-2394813D01*
X1849424Y-2394102D01*
X1650593Y-2394102D01*
X1644243Y-2394813D01*
X1638807Y-2396744D01*
X1633880Y-2399792D01*
X1629816Y-2403906D01*
X1626717Y-2408783D01*
X1624787Y-2414270D01*
X1624076Y-2420569D01*
X1624076Y-2619451D01*
X1624787Y-2625750D01*
X1626717Y-2631236D01*
X1629816Y-2636113D01*
X1633880Y-2640228D01*
X1638807Y-2643276D01*
X1644243Y-2645206D01*
G37*
G36*
X6729984Y-2583281D02*
G01*
X6742226Y-2582418D01*
X6754164Y-2579827D01*
X6765645Y-2575509D01*
X6776415Y-2569667D01*
X6786219Y-2562301D01*
X6794906Y-2553665D01*
X6802221Y-2543810D01*
X6808114Y-2533091D01*
X6812381Y-2521610D01*
X6814972Y-2509621D01*
X6815886Y-2497378D01*
X6814972Y-2485186D01*
X6812381Y-2473198D01*
X6808114Y-2461717D01*
X6802221Y-2450947D01*
X6794906Y-2441143D01*
X6786219Y-2432507D01*
X6776415Y-2425141D01*
X6765645Y-2419299D01*
X6754164Y-2414981D01*
X6742226Y-2412390D01*
X6729984Y-2411526D01*
X6717741Y-2412390D01*
X6705803Y-2414981D01*
X6694322Y-2419299D01*
X6683552Y-2425141D01*
X6673748Y-2432507D01*
X6665061Y-2441143D01*
X6657746Y-2450947D01*
X6651853Y-2461717D01*
X6647586Y-2473198D01*
X6644995Y-2485186D01*
X6644081Y-2497378D01*
X6644995Y-2509621D01*
X6647586Y-2521610D01*
X6651853Y-2533091D01*
X6657746Y-2543810D01*
X6665061Y-2553665D01*
X6673748Y-2562301D01*
X6683552Y-2569667D01*
X6694322Y-2575509D01*
X6705803Y-2579827D01*
X6717741Y-2582418D01*
G37*
G36*
X6955332Y-2470810D02*
G01*
X7044639Y-2470810D01*
X7057339Y-2469946D01*
X7069531Y-2467406D01*
X7081215Y-2463241D01*
X7092188Y-2457551D01*
X7102348Y-2450388D01*
X7111390Y-2441956D01*
X7119213Y-2432304D01*
X7125665Y-2421737D01*
X7130643Y-2410358D01*
X7133945Y-2398420D01*
X7135672Y-2386126D01*
X7135672Y-2373680D01*
X7133945Y-2361438D01*
X7130643Y-2349449D01*
X7125665Y-2338070D01*
X7119213Y-2327503D01*
X7111390Y-2317851D01*
X7102348Y-2309418D01*
X7092188Y-2302256D01*
X7081215Y-2296566D01*
X7069531Y-2292400D01*
X7057339Y-2289860D01*
X7044639Y-2288997D01*
X6955332Y-2288997D01*
X6942632Y-2289860D01*
X6930440Y-2292400D01*
X6918756Y-2296566D01*
X6907784Y-2302256D01*
X6897624Y-2309418D01*
X6888581Y-2317851D01*
X6880758Y-2327503D01*
X6874306Y-2338070D01*
X6869328Y-2349449D01*
X6866026Y-2361438D01*
X6864299Y-2373680D01*
X6864299Y-2386126D01*
X6866026Y-2398420D01*
X6869328Y-2410358D01*
X6874306Y-2421737D01*
X6880758Y-2432304D01*
X6888581Y-2441956D01*
X6897624Y-2450388D01*
X6907784Y-2457551D01*
X6918756Y-2463241D01*
X6930440Y-2467406D01*
X6942632Y-2469946D01*
G37*
G36*
X181152Y-2154072D02*
G01*
X181152Y-2088845D01*
X115925Y-2088845D01*
X122224Y-2100275D01*
X132029Y-2114092D01*
X143306Y-2126691D01*
X155905Y-2137968D01*
X169722Y-2147773D01*
G37*
G36*
X318871Y-2154072D02*
G01*
X330301Y-2147773D01*
X344068Y-2137968D01*
X356717Y-2126691D01*
X367995Y-2114092D01*
X377748Y-2100275D01*
X384098Y-2088845D01*
X318871Y-2088845D01*
G37*
G36*
X318871Y-1951177D02*
G01*
X384098Y-1951177D01*
X377748Y-1939747D01*
X367995Y-1925929D01*
X356717Y-1913331D01*
X344068Y-1902053D01*
X330301Y-1892249D01*
X318871Y-1885950D01*
G37*
G36*
X115925Y-1951177D02*
G01*
X181152Y-1951177D01*
X181152Y-1885950D01*
X169722Y-1892249D01*
X155905Y-1902053D01*
X143306Y-1913331D01*
X132029Y-1925929D01*
X122224Y-1939747D01*
G37*
G36*
X5550001Y-1516380D02*
G01*
X5559806Y-1515516D01*
X5569305Y-1512976D01*
X5578195Y-1508810D01*
X5586222Y-1503222D01*
X5593181Y-1496263D01*
X5598820Y-1488186D01*
X5602986Y-1479296D01*
X5605526Y-1469796D01*
X5606389Y-1460042D01*
X5605526Y-1450238D01*
X5602986Y-1440738D01*
X5598820Y-1431848D01*
X5593181Y-1423771D01*
X5591606Y-1422196D01*
X5589371Y-1418894D01*
X5588609Y-1414983D01*
X5588609Y-1245006D01*
X5589371Y-1241145D01*
X5591606Y-1237843D01*
X5593181Y-1236268D01*
X5598820Y-1228191D01*
X5602935Y-1219301D01*
X5605475Y-1209802D01*
X5606338Y-1200048D01*
X5605475Y-1190244D01*
X5602935Y-1180744D01*
X5598820Y-1171854D01*
X5593181Y-1163777D01*
X5586222Y-1156868D01*
X5578195Y-1151229D01*
X5569254Y-1147064D01*
X5559806Y-1144524D01*
X5550001Y-1143660D01*
X5540197Y-1144524D01*
X5530748Y-1147064D01*
X5521807Y-1151229D01*
X5513781Y-1156868D01*
X5506821Y-1163777D01*
X5501182Y-1171854D01*
X5497068Y-1180744D01*
X5494528Y-1190244D01*
X5493664Y-1200048D01*
X5494528Y-1209802D01*
X5497068Y-1219301D01*
X5501182Y-1228191D01*
X5506821Y-1236268D01*
X5508396Y-1237843D01*
X5510631Y-1241145D01*
X5511393Y-1245006D01*
X5511393Y-1414983D01*
X5510631Y-1418894D01*
X5508396Y-1422196D01*
X5506821Y-1423771D01*
X5501182Y-1431848D01*
X5497017Y-1440738D01*
X5494477Y-1450238D01*
X5493613Y-1460042D01*
X5494477Y-1469796D01*
X5497017Y-1479296D01*
X5501182Y-1488186D01*
X5506821Y-1496263D01*
X5513781Y-1503222D01*
X5521807Y-1508810D01*
X5530697Y-1512976D01*
X5540197Y-1515516D01*
G37*
G36*
X200558Y-1335887D02*
G01*
X228650Y-1335887D01*
X228650Y-1293876D01*
X174091Y-1293876D01*
X174091Y-1309420D01*
X174802Y-1315770D01*
X176733Y-1321206D01*
X179781Y-1326134D01*
X183896Y-1330198D01*
X188772Y-1333296D01*
X194259Y-1335176D01*
G37*
G36*
X311353Y-1335887D02*
G01*
X339445Y-1335887D01*
X345744Y-1335176D01*
X351231Y-1333296D01*
X356108Y-1330198D01*
X360222Y-1326134D01*
X363270Y-1321206D01*
X365201Y-1315770D01*
X365912Y-1309420D01*
X365912Y-1293876D01*
X311353Y-1293876D01*
G37*
G36*
X174091Y-1236167D02*
G01*
X228650Y-1236167D01*
X228650Y-1194104D01*
X200558Y-1194104D01*
X194259Y-1194816D01*
X188772Y-1196746D01*
X183896Y-1199794D01*
X179781Y-1203909D01*
X176733Y-1208786D01*
X174802Y-1214272D01*
X174091Y-1220571D01*
G37*
G36*
X311353Y-1236167D02*
G01*
X365912Y-1236167D01*
X365912Y-1220571D01*
X365201Y-1214272D01*
X363270Y-1208786D01*
X360222Y-1203909D01*
X356108Y-1199794D01*
X351231Y-1196746D01*
X345744Y-1194816D01*
X339445Y-1194104D01*
X311353Y-1194104D01*
G37*
G36*
X200558Y-685901D02*
G01*
X339445Y-685901D01*
X345744Y-685190D01*
X351231Y-683310D01*
X356108Y-680212D01*
X360222Y-676148D01*
X363270Y-671220D01*
X365201Y-665784D01*
X365912Y-659434D01*
X365912Y-570585D01*
X365201Y-564286D01*
X363270Y-558800D01*
X360222Y-553923D01*
X356108Y-549808D01*
X351231Y-546760D01*
X345744Y-544830D01*
X339445Y-544118D01*
X200558Y-544118D01*
X194259Y-544830D01*
X188772Y-546760D01*
X183896Y-549808D01*
X179781Y-553923D01*
X176733Y-558800D01*
X174802Y-564286D01*
X174091Y-570585D01*
X174091Y-659434D01*
X174802Y-665784D01*
X176733Y-671220D01*
X179781Y-676148D01*
X183896Y-680212D01*
X188772Y-683310D01*
X194259Y-685190D01*
G37*
G36*
X156159Y-427431D02*
G01*
X156159Y-343865D01*
X72644Y-343865D01*
X76809Y-351840D01*
X87477Y-368096D01*
X99618Y-383235D01*
X113182Y-397103D01*
X128016Y-409651D01*
X144018Y-420674D01*
G37*
G36*
X7096150Y-427431D02*
G01*
X7096150Y-343865D01*
X7012635Y-343865D01*
X7016851Y-351840D01*
X7027468Y-368096D01*
X7039609Y-383235D01*
X7053173Y-397103D01*
X7068007Y-409651D01*
X7084009Y-420674D01*
G37*
G36*
X343865Y-427431D02*
G01*
X347624Y-425602D01*
X364134Y-415340D01*
X379526Y-403555D01*
X393750Y-390347D01*
X406654Y-375818D01*
X418033Y-360121D01*
X427583Y-343865D01*
X343865Y-343865D01*
G37*
G36*
X7283856Y-427431D02*
G01*
X7287666Y-425602D01*
X7304125Y-415340D01*
X7319568Y-403555D01*
X7333742Y-390347D01*
X7346645Y-375818D01*
X7358024Y-360121D01*
X7367574Y-343865D01*
X7283856Y-343865D01*
G37*
G36*
X72644Y-156159D02*
G01*
X156159Y-156159D01*
X156159Y-72593D01*
X144018Y-79349D01*
X128016Y-90373D01*
X113182Y-102920D01*
X99618Y-116789D01*
X87477Y-131927D01*
X76809Y-148183D01*
G37*
G36*
X7012635Y-156159D02*
G01*
X7096150Y-156159D01*
X7096150Y-72593D01*
X7084009Y-79349D01*
X7068007Y-90373D01*
X7053173Y-102920D01*
X7039609Y-116789D01*
X7027468Y-131927D01*
X7016851Y-148183D01*
G37*
G36*
X343865Y-156159D02*
G01*
X427583Y-156159D01*
X418033Y-139903D01*
X406654Y-124206D01*
X393750Y-109677D01*
X379526Y-96469D01*
X364134Y-84683D01*
X347624Y-74422D01*
X343865Y-72593D01*
G37*
G36*
X7283856Y-156159D02*
G01*
X7367574Y-156159D01*
X7358024Y-139903D01*
X7346645Y-124206D01*
X7333742Y-109677D01*
X7319568Y-96469D01*
X7304125Y-84683D01*
X7287666Y-74422D01*
X7283856Y-72593D01*
G37*

%LPD*%
D10*
X3620109Y-4639957D02*
G01*
X3510127Y-4639957D01*
X3239871Y-4369955D01*
X3239871Y-4019943D01*
X2790037Y-4410087D02*
G01*
X2790037Y-4600079D01*
X2989935Y-4799977D01*
X3659987Y-4799977D01*
X3429990Y-4210011D02*
G01*
X3430000Y-4210001D01*
X3430000Y-3950002D01*
X3239998Y-4370009D02*
G01*
X3239998Y-4019994D01*
X3239998Y-4019994D01*
X3690010Y-2160003D02*
G01*
X3690010Y-2163531D01*
X3429990Y-2423553D01*
X3429990Y-3949989D01*
X3339998Y-4159999D02*
G01*
X3339998Y-2350000D01*
X3670000Y-2019998D01*
X2363007Y-4560298D02*
G01*
X1960298Y-4560298D01*
X1840001Y-4440001D01*
X1840003Y-4440006D02*
G01*
X1840003Y-4420001D01*
X2049993Y-4210011D01*
X2459989Y-4210011D01*
X4109996Y-609996D02*
G01*
X4330014Y-830011D01*
X4330014Y-1609991D01*
X4069994Y-4349991D02*
G01*
X4420006Y-4349991D01*
X4420006Y-4349991D01*
X4009999Y-1409992D02*
G01*
X4189989Y-1409992D01*
X4239999Y-1460002D01*
X194106Y-4307791D02*
G01*
X305866Y-4307791D01*
X3550005Y-3010014D02*
G01*
X3580203Y-3010014D01*
X3640173Y-3069981D01*
X4859881Y-3069981D01*
X610006Y-4310011D02*
G01*
X610006Y-4307791D01*
X305864Y-4307791D01*
X2390015Y-4319996D02*
G01*
X2110005Y-4319996D01*
X2110003Y-4319993D01*
X4099991Y-3140011D02*
G01*
X4919987Y-3140011D01*
X5239999Y-2819999D01*
X250035Y-3952123D02*
G01*
X752116Y-3952123D01*
X929995Y-4130001D01*
X5549996Y-1200012D02*
G01*
X5550001Y-1200017D01*
X5550001Y-1460004D01*
X6130010Y-2979991D02*
G01*
X6130010Y-2800002D01*
X5550009Y-2220000D01*
X3899992Y-1300010D02*
G01*
X3899992Y-1390055D01*
X3780132Y-1509915D01*
X3780132Y-3010042D01*
X4210001Y-830000D02*
G01*
X4210001Y-1110000D01*
X4250001Y-1150000D01*
X3999992Y-4159999D02*
G01*
X4439991Y-3720000D01*
X4539998Y-3720000D01*
X2479908Y-4900053D02*
G01*
X3660012Y-4900053D01*
X3660012Y-4910010D01*
G36*
X300075Y-4007116D02*
G01*
X300075Y-3897134D01*
X199999Y-3897134D01*
X199999Y-4007116D01*
G37*
G36*
X345922Y-4362716D02*
G01*
X345922Y-4252734D01*
X265912Y-4252734D01*
X265912Y-4362716D01*
G37*
G36*
X234162Y-4362716D02*
G01*
X234162Y-4252734D01*
X154152Y-4252734D01*
X154152Y-4362716D01*
G37*
G36*
X199997Y-1309989D02*
G01*
X340001Y-1309989D01*
X340001Y-1219997D01*
X199997Y-1219997D01*
G37*
G36*
X199997Y-660003D02*
G01*
X340001Y-660003D01*
X340001Y-570011D01*
X199997Y-570011D01*
G37*
D37*
G01*
X6729984Y-2982379D03*
G01*
X6729984Y-2497391D03*
D38*
G01*
X250012Y-4770005D03*
G01*
X250012Y-249999D03*
G01*
X7190003Y-249999D03*
G01*
X7190003Y-4770005D03*
D39*
G01*
X250012Y-3019996D03*
G01*
X250012Y-2019998D03*
D40*
G01*
X1750001Y-2520002D03*
D14*
G01*
X3550005Y-3010014D03*
G01*
X4860010Y-3070009D03*
G01*
X4099991Y-3140011D03*
G01*
X5239994Y-2819996D03*
G01*
X2459989Y-4210011D03*
G01*
X2390012Y-4319993D03*
G01*
X1840001Y-4440008D03*
G01*
X2110003Y-4319993D03*
G01*
X3899992Y-1300010D03*
G01*
X3780002Y-3010014D03*
G01*
X3429990Y-3949992D03*
G01*
X3339998Y-4159999D03*
G01*
X3690010Y-2160003D03*
G01*
X4420006Y-4349991D03*
G01*
X3669995Y-2019998D03*
G01*
X929995Y-4130001D03*
G01*
X5550001Y-1200010D03*
G01*
X5550001Y-2219998D03*
G01*
X3239998Y-4019994D03*
G01*
X3620007Y-4640008D03*
G01*
X6130010Y-2979991D03*
G01*
X250012Y-1300010D03*
G01*
X789990Y-3230003D03*
G01*
X4769993Y-1740014D03*
G01*
X5809996Y-409994D03*
G01*
X80010Y-4459998D03*
G01*
X2629992Y-2500007D03*
G01*
X140004Y-2260003D03*
G01*
X4280001Y-639991D03*
G01*
X6570014Y-2610015D03*
G01*
X6570014Y-3719995D03*
D15*
G01*
X5550001Y-1460004D03*
G01*
X4009999Y-1409992D03*
G01*
X4239996Y-1460004D03*
G01*
X259994Y-609993D03*
G01*
X4109999Y-609993D03*
G01*
X4269994Y-1270012D03*
G01*
X4330014Y-1609991D03*
G01*
X2480005Y-4900002D03*
G01*
X3660012Y-4910010D03*
G01*
X4069994Y-4349991D03*
D14*
G01*
X3980002Y-4919992D03*
G01*
X2650007Y-4959997D03*
G01*
X4209999Y-830008D03*
G01*
X4250004Y-1149997D03*
G01*
X3429990Y-4210011D03*
G01*
X2790012Y-4410011D03*
G01*
X3660012Y-4800003D03*
G01*
X3999992Y-4159999D03*
G01*
X4539996Y-3719995D03*
G01*
X610006Y-4310011D03*
G01*
X3290011Y-4959997D03*
D15*
G01*
X3983228Y-2071484D03*
G01*
X4491228Y-1563484D03*
G01*
X4491228Y-2071484D03*
G01*
X4999228Y-1563484D03*
G01*
X4999228Y-2071484D03*
G01*
X107213Y-1123200D03*
G01*
X107213Y-1631200D03*
G01*
X107213Y-3663200D03*
G01*
X107213Y-4171200D03*
G01*
X615213Y-107200D03*
G01*
X615213Y-1123200D03*
G01*
X615213Y-1631200D03*
G01*
X615213Y-2139200D03*
G01*
X615213Y-3155200D03*
G01*
X615213Y-3663200D03*
G01*
X689990Y-4200004D03*
G01*
X615213Y-4679200D03*
G01*
X1123213Y-107200D03*
G01*
X1123213Y-1123200D03*
G01*
X1123213Y-1631200D03*
G01*
X1123213Y-2139200D03*
G01*
X1123213Y-2647200D03*
G01*
X1123213Y-4679200D03*
G01*
X1631213Y-107200D03*
G01*
X2139213Y-107200D03*
G01*
X2139213Y-1123200D03*
G01*
X2139213Y-1631200D03*
G01*
X2139213Y-2139200D03*
G01*
X2139213Y-2647200D03*
G01*
X2139213Y-3155200D03*
G01*
X2139213Y-3663200D03*
G01*
X2140000Y-4110012D03*
G01*
X2647213Y-107200D03*
G01*
X2647213Y-1123200D03*
G01*
X2647213Y-1631200D03*
G01*
X2647213Y-2139200D03*
G01*
X2647213Y-2647200D03*
G01*
X2647213Y-3155200D03*
G01*
X2647213Y-3663200D03*
G01*
X3155213Y-107200D03*
G01*
X3663213Y-107200D03*
G01*
X4171213Y-107200D03*
G01*
X4679213Y-107200D03*
G01*
X4679213Y-615200D03*
G01*
X4679213Y-1123200D03*
G01*
X4679213Y-4171200D03*
G01*
X5187213Y-107200D03*
G01*
X5187213Y-615200D03*
G01*
X5187213Y-1123200D03*
G01*
X5187213Y-4171200D03*
G01*
X5695213Y-107200D03*
G01*
X5695213Y-615200D03*
G01*
X5695213Y-1631200D03*
G01*
X5695213Y-2139200D03*
G01*
X6203213Y-107200D03*
G01*
X6203213Y-615200D03*
G01*
X6203213Y-1123200D03*
G01*
X6203213Y-2139200D03*
G01*
X6711213Y-107200D03*
G01*
X6711213Y-1631200D03*
G01*
X6711213Y-3155200D03*
G01*
X6711213Y-3663200D03*
G01*
X6711213Y-4171200D03*
G01*
X6711213Y-4679200D03*
G01*
X7219213Y-615200D03*
D14*
G01*
X2363012Y-4560303D03*
G01*
X3120009Y-4570006D03*
G01*
X3239998Y-4370006D03*
G01*
X2999994Y-4380014D03*
D15*
G01*
X5369991Y-4680013D03*
G01*
X4680000Y-3370008D03*
G01*
X5190007Y-3370008D03*
G01*
X2472766Y-4419358D03*
G01*
X4033393Y-3452431D03*
G01*
X4033393Y-3960431D03*
G01*
X615213Y-4171200D03*
G01*
X1631213Y-4679200D03*
G01*
X4033393Y-3452431D03*
G01*
X4033393Y-3960431D03*
G01*
X615213Y-4171200D03*
G01*
X1631213Y-4679200D03*
D41*
X6954987Y-2379891D02*
G01*
X7044987Y-2379891D01*
X6954987Y-3099879D02*
G01*
X7044987Y-3099879D01*
M02*
