G04 Layer: TopLayer*
G04 EasyEDA v6.4.25, 2021-09-15T07:48:06+01:00*
G04 1eb5522c02d34d8f89c77509865788c0,48bc864c7916494db8d10f71d93e82f1,10*
G04 Gerber Generator version 0.2*
G04 Scale: 100 percent, Rotated: No, Reflected: No *
G04 Dimensions in millimeters *
G04 leading zeros omitted , absolute positions ,4 integer and 5 decimal *
%FSLAX45Y45*%
%MOMM*%

%ADD10C,0.2540*%
%ADD11C,0.5080*%
%ADD12C,0.4480*%
%ADD13C,0.5740*%
%ADD14C,0.6096*%
%ADD15C,0.6100*%
%ADD16R,3.1699X2.5400*%
%ADD17R,3.9601X3.9601*%
%ADD19R,0.1999X0.7501*%
%ADD28R,3.4999X1.0000*%
%ADD29R,3.4000X1.4999*%
%ADD33R,0.8000X0.9000*%
%ADD35R,0.8000X0.6500*%
%ADD36R,0.8000X0.5000*%
%ADD37C,1.2000*%
%ADD38C,3.5000*%
%ADD39C,2.5000*%
%ADD40R,2.0000X2.0000*%
%ADD41C,1.3000*%

%LPD*%
G36*
X3317494Y-1558950D02*
G01*
X3314700Y-1558544D01*
X3311194Y-1556816D01*
X3305149Y-1554683D01*
X3301593Y-1552549D01*
X3299155Y-1549146D01*
X3298342Y-1545082D01*
X3299155Y-1541018D01*
X3301593Y-1537665D01*
X3305149Y-1535480D01*
X3309061Y-1534109D01*
X3312464Y-1533550D01*
X3314903Y-1533550D01*
X3318814Y-1534312D01*
X3322116Y-1536547D01*
X3327146Y-1541576D01*
X3329381Y-1544878D01*
X3330143Y-1548790D01*
X3329381Y-1552651D01*
X3327146Y-1555953D01*
X3323894Y-1558137D01*
X3319983Y-1558950D01*
G37*

%LPD*%
G36*
X3160217Y-1708962D02*
G01*
X3156305Y-1708150D01*
X3153003Y-1705965D01*
X3150819Y-1702663D01*
X3150057Y-1698802D01*
X3150819Y-1694891D01*
X3153003Y-1691589D01*
X3157982Y-1686610D01*
X3161284Y-1684426D01*
X3165195Y-1683664D01*
X3167837Y-1683664D01*
X3171190Y-1684223D01*
X3174847Y-1685493D01*
X3178403Y-1687626D01*
X3180842Y-1691030D01*
X3181654Y-1695094D01*
X3180842Y-1699158D01*
X3178403Y-1702511D01*
X3174847Y-1704695D01*
X3168802Y-1706778D01*
X3165246Y-1708556D01*
G37*

%LPD*%
G36*
X5020564Y-2911805D02*
G01*
X5016703Y-2910992D01*
X5013401Y-2908808D01*
X4487672Y-2383078D01*
X4481423Y-2377948D01*
X4474768Y-2374392D01*
X4467504Y-2372207D01*
X4459528Y-2371394D01*
X3780180Y-2371394D01*
X3776319Y-2370632D01*
X3773017Y-2368448D01*
X3411575Y-2007006D01*
X3409391Y-2003704D01*
X3408629Y-1999792D01*
X3408629Y-1790496D01*
X3407816Y-1782470D01*
X3405632Y-1775256D01*
X3402076Y-1768602D01*
X3396945Y-1762353D01*
X3352647Y-1718106D01*
X3346450Y-1712975D01*
X3339795Y-1709420D01*
X3332530Y-1707235D01*
X3324504Y-1706422D01*
X3311855Y-1706422D01*
X3308502Y-1705864D01*
X3305149Y-1704695D01*
X3301593Y-1702511D01*
X3299155Y-1699158D01*
X3298342Y-1695094D01*
X3299155Y-1691030D01*
X3301593Y-1687626D01*
X3305149Y-1685493D01*
X3308756Y-1684223D01*
X3312109Y-1683664D01*
X3579926Y-1683664D01*
X3587953Y-1682902D01*
X3595217Y-1680667D01*
X3601872Y-1677111D01*
X3608070Y-1672031D01*
X3678732Y-1601368D01*
X3681984Y-1599184D01*
X3685895Y-1598422D01*
X3699408Y-1598422D01*
X3705758Y-1597710D01*
X3711194Y-1595780D01*
X3716121Y-1592732D01*
X3720185Y-1588617D01*
X3723487Y-1583385D01*
X3725773Y-1580845D01*
X3728720Y-1579168D01*
X3732123Y-1578610D01*
X3879494Y-1578610D01*
X3887520Y-1577797D01*
X3894734Y-1575612D01*
X3901440Y-1572056D01*
X3907637Y-1566926D01*
X4005427Y-1469136D01*
X4008323Y-1467154D01*
X4011726Y-1466240D01*
X4019804Y-1465529D01*
X4029303Y-1462989D01*
X4038193Y-1458823D01*
X4046220Y-1453184D01*
X4054043Y-1445209D01*
X4057345Y-1442974D01*
X4061256Y-1442212D01*
X4065168Y-1442923D01*
X4068470Y-1445158D01*
X4070705Y-1448460D01*
X4071467Y-1452372D01*
X4071467Y-1559712D01*
X4070705Y-1563624D01*
X4068470Y-1566926D01*
X3674516Y-1960880D01*
X3671620Y-1962912D01*
X3668217Y-1963826D01*
X3660190Y-1964537D01*
X3650742Y-1967077D01*
X3641801Y-1971192D01*
X3633774Y-1976831D01*
X3626815Y-1983790D01*
X3621176Y-1991817D01*
X3617061Y-2000757D01*
X3614521Y-2010206D01*
X3613658Y-2020011D01*
X3614521Y-2029815D01*
X3617061Y-2039264D01*
X3621176Y-2048205D01*
X3626815Y-2056231D01*
X3633774Y-2063191D01*
X3641801Y-2068830D01*
X3650742Y-2072944D01*
X3660190Y-2075484D01*
X3669995Y-2076348D01*
X3679799Y-2075484D01*
X3689248Y-2072995D01*
X3699357Y-2068118D01*
X3703320Y-2067153D01*
X3707282Y-2067763D01*
X3710736Y-2069896D01*
X3713073Y-2073198D01*
X3713937Y-2077161D01*
X3713175Y-2081123D01*
X3710940Y-2084476D01*
X3694531Y-2100884D01*
X3691636Y-2102916D01*
X3688232Y-2103831D01*
X3680206Y-2104542D01*
X3670757Y-2107082D01*
X3661816Y-2111197D01*
X3653790Y-2116836D01*
X3646830Y-2123795D01*
X3641191Y-2131822D01*
X3637076Y-2140762D01*
X3634536Y-2150211D01*
X3633673Y-2160016D01*
X3634536Y-2169820D01*
X3637076Y-2179269D01*
X3641191Y-2188210D01*
X3646830Y-2196236D01*
X3653790Y-2203196D01*
X3661816Y-2208834D01*
X3670757Y-2212949D01*
X3680206Y-2215489D01*
X3690010Y-2216353D01*
X3699814Y-2215489D01*
X3709263Y-2212949D01*
X3718204Y-2208834D01*
X3726230Y-2203196D01*
X3733190Y-2196236D01*
X3738829Y-2188210D01*
X3742944Y-2179269D01*
X3745484Y-2169820D01*
X3746195Y-2161794D01*
X3747109Y-2158390D01*
X3749141Y-2155494D01*
X4196994Y-1707642D01*
X4202074Y-1701444D01*
X4205630Y-1694738D01*
X4207865Y-1687525D01*
X4208627Y-1679498D01*
X4208627Y-1522984D01*
X4209288Y-1519326D01*
X4211218Y-1516176D01*
X4214164Y-1513941D01*
X4217720Y-1512874D01*
X4221429Y-1513179D01*
X4230217Y-1515516D01*
X4240022Y-1516380D01*
X4249775Y-1515516D01*
X4259275Y-1512976D01*
X4268165Y-1508810D01*
X4276242Y-1503222D01*
X4277817Y-1501597D01*
X4281119Y-1499412D01*
X4285030Y-1498650D01*
X5501233Y-1498650D01*
X5505145Y-1499412D01*
X5508396Y-1501597D01*
X5510631Y-1504899D01*
X5511393Y-1508810D01*
X5511393Y-2175002D01*
X5510631Y-2178913D01*
X5508396Y-2182215D01*
X5506821Y-2183790D01*
X5504535Y-2187092D01*
X5502300Y-2189378D01*
X5499404Y-2190902D01*
X5496204Y-2191410D01*
X5398719Y-2191410D01*
X5394807Y-2190648D01*
X5391505Y-2188413D01*
X5389321Y-2185162D01*
X5388559Y-2181250D01*
X5388559Y-2170684D01*
X5387797Y-2164384D01*
X5385917Y-2158898D01*
X5382818Y-2154021D01*
X5378754Y-2149906D01*
X5373827Y-2146858D01*
X5368391Y-2144928D01*
X5362041Y-2144217D01*
X5263184Y-2144217D01*
X5256885Y-2144928D01*
X5252466Y-2146452D01*
X5249113Y-2147062D01*
X5245760Y-2146452D01*
X5241391Y-2144928D01*
X5235041Y-2144217D01*
X5136184Y-2144217D01*
X5129885Y-2144928D01*
X5125466Y-2146452D01*
X5122113Y-2147062D01*
X5118760Y-2146452D01*
X5114391Y-2144928D01*
X5108041Y-2144217D01*
X5009184Y-2144217D01*
X5002885Y-2144928D01*
X4998516Y-2146452D01*
X4995164Y-2147011D01*
X4991811Y-2146452D01*
X4987391Y-2144928D01*
X4981041Y-2144217D01*
X4882184Y-2144217D01*
X4875885Y-2144928D01*
X4871466Y-2146452D01*
X4868113Y-2147011D01*
X4864760Y-2146452D01*
X4860391Y-2144928D01*
X4854041Y-2144217D01*
X4755184Y-2144217D01*
X4748885Y-2144928D01*
X4744466Y-2146452D01*
X4741113Y-2147011D01*
X4737709Y-2146452D01*
X4733442Y-2144979D01*
X4725263Y-2144166D01*
X4721707Y-2143150D01*
X4718761Y-2140864D01*
X4716780Y-2137714D01*
X4716119Y-2134057D01*
X4716119Y-1957984D01*
X4715306Y-1949957D01*
X4713122Y-1942744D01*
X4709566Y-1936038D01*
X4704435Y-1929841D01*
X4389170Y-1614576D01*
X4387138Y-1611680D01*
X4386224Y-1608277D01*
X4385513Y-1600200D01*
X4382973Y-1590700D01*
X4378807Y-1581810D01*
X4373219Y-1573784D01*
X4366260Y-1566824D01*
X4358182Y-1561185D01*
X4349292Y-1557020D01*
X4339793Y-1554480D01*
X4330039Y-1553616D01*
X4320235Y-1554480D01*
X4310735Y-1557020D01*
X4301845Y-1561185D01*
X4293768Y-1566824D01*
X4286808Y-1573784D01*
X4281220Y-1581810D01*
X4277055Y-1590700D01*
X4274515Y-1600200D01*
X4273651Y-1610004D01*
X4274515Y-1619808D01*
X4277055Y-1629308D01*
X4281220Y-1638198D01*
X4286808Y-1646224D01*
X4293768Y-1653184D01*
X4301845Y-1658823D01*
X4310735Y-1662988D01*
X4320235Y-1665528D01*
X4328261Y-1666239D01*
X4331665Y-1667154D01*
X4334560Y-1669135D01*
X4635906Y-1970481D01*
X4638090Y-1973783D01*
X4638903Y-1977694D01*
X4638903Y-2134057D01*
X4638192Y-2137714D01*
X4636262Y-2140864D01*
X4633315Y-2143150D01*
X4629708Y-2144166D01*
X4621834Y-2144928D01*
X4617466Y-2146452D01*
X4614113Y-2147062D01*
X4610760Y-2146452D01*
X4606391Y-2144928D01*
X4600041Y-2144217D01*
X4581956Y-2144217D01*
X4581956Y-2193798D01*
X4591558Y-2193798D01*
X4595469Y-2194560D01*
X4598720Y-2196744D01*
X4600956Y-2200046D01*
X4601718Y-2203958D01*
X4601718Y-2256332D01*
X4600956Y-2260193D01*
X4598720Y-2263495D01*
X4595469Y-2265680D01*
X4591558Y-2266492D01*
X4581956Y-2266492D01*
X4581956Y-2316022D01*
X4600041Y-2316022D01*
X4606391Y-2315311D01*
X4610760Y-2313787D01*
X4614113Y-2313178D01*
X4617466Y-2313787D01*
X4621885Y-2315311D01*
X4628184Y-2316022D01*
X4727041Y-2316022D01*
X4733391Y-2315311D01*
X4737760Y-2313787D01*
X4741113Y-2313178D01*
X4746396Y-2314448D01*
X4749952Y-2316581D01*
X4752340Y-2319985D01*
X4753203Y-2324049D01*
X4753203Y-2434285D01*
X4753406Y-2438958D01*
X4754016Y-2443378D01*
X4754981Y-2447747D01*
X4756302Y-2452014D01*
X4758029Y-2456180D01*
X4760061Y-2460142D01*
X4762500Y-2463901D01*
X4765192Y-2467457D01*
X4768392Y-2470912D01*
X4913630Y-2616149D01*
X4917084Y-2619349D01*
X4920640Y-2622042D01*
X4924399Y-2624480D01*
X4928362Y-2626512D01*
X4932527Y-2628239D01*
X4936794Y-2629560D01*
X4941163Y-2630525D01*
X4945583Y-2631135D01*
X4950256Y-2631338D01*
X5388610Y-2631338D01*
X5392775Y-2632202D01*
X5396179Y-2634742D01*
X5398312Y-2638399D01*
X5398719Y-2642616D01*
X5398211Y-2647086D01*
X5398211Y-2745943D01*
X5398922Y-2752242D01*
X5400446Y-2756662D01*
X5401056Y-2760014D01*
X5400446Y-2763367D01*
X5398922Y-2767685D01*
X5398160Y-2775610D01*
X5397144Y-2779166D01*
X5394858Y-2782163D01*
X5391708Y-2784094D01*
X5388051Y-2784805D01*
X5288381Y-2784805D01*
X5284470Y-2783992D01*
X5281168Y-2781808D01*
X5276240Y-2776829D01*
X5268163Y-2771190D01*
X5259273Y-2767076D01*
X5249773Y-2764536D01*
X5240020Y-2763672D01*
X5230215Y-2764536D01*
X5220716Y-2767076D01*
X5211826Y-2771190D01*
X5203748Y-2776829D01*
X5196840Y-2783789D01*
X5191201Y-2791815D01*
X5187035Y-2800756D01*
X5184495Y-2810205D01*
X5183632Y-2820009D01*
X5184495Y-2829814D01*
X5187035Y-2839262D01*
X5191201Y-2848203D01*
X5196840Y-2856230D01*
X5203748Y-2863189D01*
X5211826Y-2868828D01*
X5220716Y-2872943D01*
X5230215Y-2875483D01*
X5240020Y-2876346D01*
X5249773Y-2875483D01*
X5259273Y-2872943D01*
X5268163Y-2868828D01*
X5275275Y-2863850D01*
X5278069Y-2862478D01*
X5281117Y-2862021D01*
X5388051Y-2862021D01*
X5391708Y-2862681D01*
X5394858Y-2864612D01*
X5397144Y-2867609D01*
X5398160Y-2871165D01*
X5398973Y-2879344D01*
X5400446Y-2883662D01*
X5401056Y-2887014D01*
X5400446Y-2890367D01*
X5398922Y-2894685D01*
X5398160Y-2902610D01*
X5397144Y-2906166D01*
X5394858Y-2909163D01*
X5391708Y-2911094D01*
X5388051Y-2911805D01*
G37*

%LPC*%
G36*
X4374184Y-2316022D02*
G01*
X4473041Y-2316022D01*
X4479391Y-2315311D01*
X4483760Y-2313787D01*
X4487113Y-2313178D01*
X4490466Y-2313787D01*
X4494885Y-2315311D01*
X4501184Y-2316022D01*
X4519269Y-2316022D01*
X4519269Y-2266492D01*
X4509719Y-2266492D01*
X4505807Y-2265680D01*
X4502505Y-2263495D01*
X4500321Y-2260193D01*
X4499559Y-2256332D01*
X4499559Y-2203958D01*
X4500321Y-2200046D01*
X4502505Y-2196744D01*
X4505807Y-2194560D01*
X4509719Y-2193798D01*
X4519269Y-2193798D01*
X4519269Y-2144217D01*
X4501184Y-2144217D01*
X4494885Y-2144928D01*
X4490466Y-2146452D01*
X4487113Y-2147062D01*
X4483760Y-2146452D01*
X4479391Y-2144928D01*
X4473041Y-2144217D01*
X4374184Y-2144217D01*
X4367885Y-2144928D01*
X4362399Y-2146858D01*
X4357522Y-2149906D01*
X4353407Y-2154021D01*
X4350359Y-2158898D01*
X4348429Y-2164384D01*
X4347718Y-2170684D01*
X4347718Y-2289556D01*
X4348429Y-2295855D01*
X4350359Y-2301341D01*
X4353407Y-2306218D01*
X4357522Y-2310333D01*
X4362399Y-2313381D01*
X4367885Y-2315311D01*
G37*

%LPD*%
G36*
X3098596Y-4821326D02*
G01*
X3094736Y-4820564D01*
X3091434Y-4818329D01*
X3089198Y-4815027D01*
X3088436Y-4811166D01*
X3088436Y-4769815D01*
X3081121Y-4769815D01*
X3077210Y-4769053D01*
X3073908Y-4766818D01*
X3071723Y-4763516D01*
X3070961Y-4759655D01*
X3070961Y-4740249D01*
X3071723Y-4736388D01*
X3073908Y-4733086D01*
X3077210Y-4730851D01*
X3081121Y-4730089D01*
X3088436Y-4730089D01*
X3088436Y-4697069D01*
X3075635Y-4697069D01*
X3069285Y-4697780D01*
X3063392Y-4699812D01*
X3060039Y-4700371D01*
X3056686Y-4699812D01*
X3050895Y-4697780D01*
X3047339Y-4695647D01*
X3044952Y-4692243D01*
X3044088Y-4688179D01*
X3044088Y-4631740D01*
X3044952Y-4627676D01*
X3047339Y-4624324D01*
X3050895Y-4622139D01*
X3056636Y-4620158D01*
X3059988Y-4619599D01*
X3063341Y-4620158D01*
X3069234Y-4622190D01*
X3075584Y-4622901D01*
X3088386Y-4622901D01*
X3088386Y-4589881D01*
X3081070Y-4589881D01*
X3077159Y-4589068D01*
X3073908Y-4586884D01*
X3071672Y-4583582D01*
X3070910Y-4579721D01*
X3070910Y-4560316D01*
X3071672Y-4556455D01*
X3073908Y-4553153D01*
X3077159Y-4550918D01*
X3081070Y-4550156D01*
X3088386Y-4550156D01*
X3088386Y-4517085D01*
X3075584Y-4517085D01*
X3069234Y-4517796D01*
X3063341Y-4519879D01*
X3059988Y-4520438D01*
X3056636Y-4519879D01*
X3050743Y-4517796D01*
X3044444Y-4517085D01*
X2966567Y-4517085D01*
X2960217Y-4517796D01*
X2951530Y-4521301D01*
X2948736Y-4521708D01*
X2932887Y-4521708D01*
X2928823Y-4520844D01*
X2925470Y-4518456D01*
X2923032Y-4514088D01*
X2919933Y-4509211D01*
X2915869Y-4505096D01*
X2910941Y-4502048D01*
X2905506Y-4500118D01*
X2899156Y-4499406D01*
X2850845Y-4499406D01*
X2846781Y-4498543D01*
X2843377Y-4496104D01*
X2841244Y-4492447D01*
X2840736Y-4488281D01*
X2841040Y-4484928D01*
X2841040Y-4435652D01*
X2842006Y-4431334D01*
X2842971Y-4429302D01*
X2845511Y-4419803D01*
X2846374Y-4410049D01*
X2845511Y-4400245D01*
X2842971Y-4390745D01*
X2842006Y-4388713D01*
X2841040Y-4384395D01*
X2841040Y-4353763D01*
X2840177Y-4344466D01*
X2837738Y-4335881D01*
X2833776Y-4327906D01*
X2831439Y-4324807D01*
X2829610Y-4320692D01*
X2829661Y-4316222D01*
X2831642Y-4312259D01*
X2835198Y-4309465D01*
X2839516Y-4308500D01*
X2956001Y-4308500D01*
X2959963Y-4309313D01*
X2963316Y-4311599D01*
X2965500Y-4315002D01*
X2966161Y-4318965D01*
X2965246Y-4322927D01*
X2962859Y-4326178D01*
X2959354Y-4328261D01*
X2954832Y-4329836D01*
X2949905Y-4332935D01*
X2945841Y-4336999D01*
X2942742Y-4341926D01*
X2940812Y-4347362D01*
X2940100Y-4353712D01*
X2940100Y-4360265D01*
X2979420Y-4360265D01*
X2979420Y-4318660D01*
X2980182Y-4314748D01*
X2982417Y-4311497D01*
X2985719Y-4309262D01*
X2989580Y-4308500D01*
X3021482Y-4308500D01*
X3025343Y-4309262D01*
X3028645Y-4311497D01*
X3030880Y-4314748D01*
X3031642Y-4318660D01*
X3031642Y-4360265D01*
X3038957Y-4360265D01*
X3042869Y-4361027D01*
X3046171Y-4363262D01*
X3048355Y-4366564D01*
X3049117Y-4370425D01*
X3049117Y-4389831D01*
X3048355Y-4393692D01*
X3046171Y-4396994D01*
X3042869Y-4399229D01*
X3038957Y-4399991D01*
X3031642Y-4399991D01*
X3031642Y-4433062D01*
X3044444Y-4433062D01*
X3050794Y-4432300D01*
X3056686Y-4430268D01*
X3060039Y-4429709D01*
X3063392Y-4430268D01*
X3069285Y-4432300D01*
X3075635Y-4433062D01*
X3153460Y-4433062D01*
X3159810Y-4432300D01*
X3165246Y-4430420D01*
X3170174Y-4427321D01*
X3176524Y-4420768D01*
X3179470Y-4419193D01*
X3182772Y-4418634D01*
X3209137Y-4418634D01*
X3213455Y-4419549D01*
X3220720Y-4422952D01*
X3230219Y-4425492D01*
X3238246Y-4426204D01*
X3241649Y-4427118D01*
X3244545Y-4429150D01*
X3268979Y-4453585D01*
X3270961Y-4456430D01*
X3271926Y-4459782D01*
X3272180Y-4462576D01*
X3273653Y-4467453D01*
X3274110Y-4470400D01*
X3274110Y-4483404D01*
X3273552Y-4486757D01*
X3271875Y-4489754D01*
X3268878Y-4492294D01*
X3264814Y-4496409D01*
X3261715Y-4501286D01*
X3259785Y-4506772D01*
X3259074Y-4513072D01*
X3259074Y-4646930D01*
X3259785Y-4653280D01*
X3261715Y-4658715D01*
X3264814Y-4663643D01*
X3271875Y-4670298D01*
X3273552Y-4673244D01*
X3274110Y-4676597D01*
X3274110Y-4679899D01*
X3303828Y-4679899D01*
X3307537Y-4680610D01*
X3310737Y-4682591D01*
X3312972Y-4685639D01*
X3313937Y-4689246D01*
X3313531Y-4693005D01*
X3312210Y-4697476D01*
X3311398Y-4705502D01*
X3311398Y-4719929D01*
X3310636Y-4723841D01*
X3308400Y-4727143D01*
X3305149Y-4729327D01*
X3301237Y-4730089D01*
X3274110Y-4730089D01*
X3274110Y-4741926D01*
X3274822Y-4748276D01*
X3276701Y-4753711D01*
X3279800Y-4758639D01*
X3283915Y-4762703D01*
X3288792Y-4765802D01*
X3294278Y-4767732D01*
X3300679Y-4768443D01*
X3305149Y-4768545D01*
X3308654Y-4769205D01*
X3311702Y-4771085D01*
X3313887Y-4773879D01*
X3317951Y-4781448D01*
X3323082Y-4787696D01*
X3339337Y-4804003D01*
X3341573Y-4807254D01*
X3342335Y-4811166D01*
X3341573Y-4815027D01*
X3339337Y-4818329D01*
X3336086Y-4820564D01*
X3332175Y-4821326D01*
X3164789Y-4821326D01*
X3160826Y-4820513D01*
X3157524Y-4818227D01*
X3155340Y-4814824D01*
X3154629Y-4810861D01*
X3155594Y-4806899D01*
X3157982Y-4803648D01*
X3161436Y-4801565D01*
X3165246Y-4800244D01*
X3170174Y-4797145D01*
X3174238Y-4793081D01*
X3177336Y-4788154D01*
X3179267Y-4782718D01*
X3179978Y-4776368D01*
X3179978Y-4769815D01*
X3140659Y-4769815D01*
X3140659Y-4811166D01*
X3139897Y-4815027D01*
X3137662Y-4818329D01*
X3134360Y-4820564D01*
X3130499Y-4821326D01*
G37*

%LPC*%
G36*
X3140659Y-4730089D02*
G01*
X3179978Y-4730089D01*
X3179978Y-4723536D01*
X3179267Y-4717186D01*
X3177336Y-4711750D01*
X3174238Y-4706823D01*
X3170174Y-4702759D01*
X3165246Y-4699660D01*
X3159810Y-4697780D01*
X3153460Y-4697069D01*
X3140659Y-4697069D01*
G37*
G36*
X3140608Y-4622901D02*
G01*
X3153460Y-4622901D01*
X3159760Y-4622190D01*
X3165246Y-4620310D01*
X3170123Y-4617212D01*
X3174238Y-4613148D01*
X3177286Y-4608220D01*
X3179216Y-4602784D01*
X3179927Y-4596434D01*
X3179927Y-4589881D01*
X3140608Y-4589881D01*
G37*
G36*
X3140608Y-4550156D02*
G01*
X3179927Y-4550156D01*
X3179927Y-4543602D01*
X3179216Y-4537252D01*
X3177286Y-4531817D01*
X3174238Y-4526889D01*
X3170123Y-4522825D01*
X3165246Y-4519726D01*
X3159760Y-4517796D01*
X3153460Y-4517085D01*
X3140608Y-4517085D01*
G37*
G36*
X2966618Y-4433062D02*
G01*
X2979420Y-4433062D01*
X2979420Y-4399991D01*
X2940100Y-4399991D01*
X2940100Y-4406544D01*
X2940812Y-4412894D01*
X2942742Y-4418330D01*
X2945841Y-4423257D01*
X2949905Y-4427321D01*
X2954832Y-4430420D01*
X2960268Y-4432300D01*
G37*

%LPD*%
G36*
X250748Y-4994097D02*
G01*
X230022Y-4993182D01*
X210667Y-4990592D01*
X191566Y-4986324D01*
X172974Y-4980381D01*
X154889Y-4972862D01*
X137566Y-4963820D01*
X121107Y-4953304D01*
X105664Y-4941366D01*
X91236Y-4928108D01*
X78079Y-4913680D01*
X66192Y-4898136D01*
X55727Y-4881676D01*
X46736Y-4864303D01*
X39319Y-4846218D01*
X33477Y-4827574D01*
X29260Y-4808474D01*
X26771Y-4789119D01*
X25908Y-4769256D01*
X25908Y-250748D01*
X26822Y-230022D01*
X29413Y-210667D01*
X33680Y-191617D01*
X39624Y-172974D01*
X47142Y-154940D01*
X56184Y-137617D01*
X66700Y-121158D01*
X78638Y-105664D01*
X91897Y-91287D01*
X106324Y-78079D01*
X121869Y-66243D01*
X138379Y-55778D01*
X155702Y-46786D01*
X173786Y-39319D01*
X192430Y-33477D01*
X211531Y-29311D01*
X230936Y-26771D01*
X250748Y-25908D01*
X7189317Y-25908D01*
X7209993Y-26873D01*
X7229348Y-29464D01*
X7248398Y-33731D01*
X7267041Y-39624D01*
X7285075Y-47142D01*
X7302398Y-56184D01*
X7318857Y-66751D01*
X7334351Y-78689D01*
X7348728Y-91897D01*
X7361936Y-106324D01*
X7373772Y-121869D01*
X7384237Y-138379D01*
X7393228Y-155702D01*
X7400696Y-173786D01*
X7406538Y-192430D01*
X7410703Y-211531D01*
X7413244Y-230936D01*
X7414107Y-250850D01*
X7414107Y-2108352D01*
X7413345Y-2112264D01*
X7411110Y-2115515D01*
X7407859Y-2117750D01*
X7403947Y-2118512D01*
X7246061Y-2118512D01*
X7242352Y-2118817D01*
X7235291Y-2120849D01*
X7230364Y-2123592D01*
X7227163Y-2126284D01*
X7191908Y-2161336D01*
X7189368Y-2164232D01*
X7185863Y-2170684D01*
X7184288Y-2176068D01*
X7183983Y-2180386D01*
X7183983Y-3279648D01*
X7184288Y-3283458D01*
X7186320Y-3290519D01*
X7189063Y-3295396D01*
X7191857Y-3298647D01*
X7241336Y-3348126D01*
X7244232Y-3350615D01*
X7250684Y-3354171D01*
X7256068Y-3355695D01*
X7260336Y-3356000D01*
X7403947Y-3356000D01*
X7407808Y-3356762D01*
X7411110Y-3358997D01*
X7413294Y-3362248D01*
X7414107Y-3366160D01*
X7414107Y-3485184D01*
X7413396Y-3488893D01*
X7411364Y-3492093D01*
X7408316Y-3494328D01*
X7404608Y-3495294D01*
X7394498Y-3494125D01*
X7055662Y-3494125D01*
X7049312Y-3494836D01*
X7043877Y-3496767D01*
X7038949Y-3499865D01*
X7034885Y-3503929D01*
X7031786Y-3508857D01*
X7029907Y-3514293D01*
X7029196Y-3520592D01*
X7029196Y-3669487D01*
X7029907Y-3675786D01*
X7031786Y-3681222D01*
X7034885Y-3686149D01*
X7038949Y-3690213D01*
X7043877Y-3693312D01*
X7049312Y-3695242D01*
X7055662Y-3695954D01*
X7394498Y-3695954D01*
X7404608Y-3694785D01*
X7408316Y-3695750D01*
X7411364Y-3697986D01*
X7413396Y-3701186D01*
X7414107Y-3704894D01*
X7414107Y-4155186D01*
X7413396Y-4158894D01*
X7411364Y-4162094D01*
X7408316Y-4164329D01*
X7404608Y-4165295D01*
X7394498Y-4164126D01*
X7055662Y-4164126D01*
X7049312Y-4164837D01*
X7043877Y-4166768D01*
X7038949Y-4169867D01*
X7034885Y-4173931D01*
X7031786Y-4178858D01*
X7029907Y-4184294D01*
X7029196Y-4190593D01*
X7029196Y-4339488D01*
X7029907Y-4345787D01*
X7031786Y-4351223D01*
X7034885Y-4356150D01*
X7038949Y-4360214D01*
X7043877Y-4363313D01*
X7049312Y-4365244D01*
X7055662Y-4365955D01*
X7394498Y-4365955D01*
X7404608Y-4364786D01*
X7408316Y-4365752D01*
X7411364Y-4367987D01*
X7413396Y-4371187D01*
X7414107Y-4374896D01*
X7414107Y-4769256D01*
X7413142Y-4789982D01*
X7410551Y-4809337D01*
X7406284Y-4828438D01*
X7400391Y-4847082D01*
X7392873Y-4865116D01*
X7383830Y-4882438D01*
X7373264Y-4898898D01*
X7361326Y-4914392D01*
X7348118Y-4928768D01*
X7333691Y-4941925D01*
X7318146Y-4953812D01*
X7301636Y-4964277D01*
X7284262Y-4973269D01*
X7266228Y-4980686D01*
X7247585Y-4986528D01*
X7228484Y-4990744D01*
X7209078Y-4993233D01*
X7189266Y-4994097D01*
X5155184Y-4994097D01*
X5151272Y-4993335D01*
X5147970Y-4991150D01*
X5145786Y-4987848D01*
X5145024Y-4983937D01*
X5145024Y-4436008D01*
X5144008Y-4434992D01*
X4334560Y-4434992D01*
X4330700Y-4434230D01*
X4327398Y-4432046D01*
X4325213Y-4428744D01*
X4324400Y-4424832D01*
X4325213Y-4420971D01*
X4327398Y-4417669D01*
X4330344Y-4414723D01*
X4333392Y-4409846D01*
X4335322Y-4404360D01*
X4336034Y-4398060D01*
X4336034Y-4299204D01*
X4335322Y-4292854D01*
X4333798Y-4288485D01*
X4333189Y-4285132D01*
X4333798Y-4281779D01*
X4335322Y-4277360D01*
X4336034Y-4271060D01*
X4336034Y-4172204D01*
X4335322Y-4165854D01*
X4333798Y-4161485D01*
X4333189Y-4158132D01*
X4333798Y-4154779D01*
X4335322Y-4150360D01*
X4336034Y-4144060D01*
X4336034Y-4045204D01*
X4335322Y-4038854D01*
X4333798Y-4034485D01*
X4333189Y-4031132D01*
X4333798Y-4027779D01*
X4335322Y-4023360D01*
X4336034Y-4017060D01*
X4336034Y-3918204D01*
X4335322Y-3911854D01*
X4333798Y-3907485D01*
X4333189Y-3904132D01*
X4333798Y-3900779D01*
X4335322Y-3896360D01*
X4336034Y-3890060D01*
X4336034Y-3791204D01*
X4335322Y-3784854D01*
X4333798Y-3780485D01*
X4333189Y-3777132D01*
X4333798Y-3773779D01*
X4335322Y-3769360D01*
X4336034Y-3763060D01*
X4336034Y-3664204D01*
X4335322Y-3657854D01*
X4333798Y-3653485D01*
X4333189Y-3650132D01*
X4333798Y-3646779D01*
X4335322Y-3642360D01*
X4336034Y-3636060D01*
X4336034Y-3537204D01*
X4335322Y-3530854D01*
X4333798Y-3526485D01*
X4333189Y-3523132D01*
X4333798Y-3519779D01*
X4335322Y-3515360D01*
X4336034Y-3509060D01*
X4336034Y-3410204D01*
X4335322Y-3403854D01*
X4333798Y-3399485D01*
X4333189Y-3396132D01*
X4333798Y-3392779D01*
X4335322Y-3388360D01*
X4336034Y-3382060D01*
X4336034Y-3283204D01*
X4335322Y-3276854D01*
X4333798Y-3272485D01*
X4333189Y-3269132D01*
X4333798Y-3265779D01*
X4335322Y-3261360D01*
X4336034Y-3255060D01*
X4336034Y-3156204D01*
X4335322Y-3149854D01*
X4333798Y-3145485D01*
X4333189Y-3142132D01*
X4333798Y-3138779D01*
X4335322Y-3134360D01*
X4336034Y-3128060D01*
X4336034Y-3029204D01*
X4335322Y-3022854D01*
X4333798Y-3018485D01*
X4333189Y-3015132D01*
X4333798Y-3011779D01*
X4335322Y-3007360D01*
X4336034Y-3001060D01*
X4336034Y-2902204D01*
X4335322Y-2895854D01*
X4333798Y-2891485D01*
X4333189Y-2888132D01*
X4333798Y-2884779D01*
X4335272Y-2880461D01*
X4336084Y-2872384D01*
X4336999Y-2869031D01*
X4338980Y-2866186D01*
X4341825Y-2864154D01*
X4345178Y-2863240D01*
X4353052Y-2862427D01*
X4360265Y-2860243D01*
X4366971Y-2856687D01*
X4373168Y-2851607D01*
X4445152Y-2779318D01*
X4450232Y-2773172D01*
X4453788Y-2766466D01*
X4455972Y-2759252D01*
X4456785Y-2751226D01*
X4456785Y-2656738D01*
X4455972Y-2648712D01*
X4453788Y-2641498D01*
X4450232Y-2634792D01*
X4445101Y-2628595D01*
X4369612Y-2553106D01*
X4363415Y-2547975D01*
X4356709Y-2544419D01*
X4349496Y-2542235D01*
X4341469Y-2541422D01*
X3760571Y-2541422D01*
X3752545Y-2542235D01*
X3745331Y-2544419D01*
X3738626Y-2547975D01*
X3732428Y-2553106D01*
X3432098Y-2853385D01*
X3428796Y-2855620D01*
X3424885Y-2856382D01*
X3336036Y-2856382D01*
X3332175Y-2855620D01*
X3328873Y-2853385D01*
X3326688Y-2850134D01*
X3325926Y-2846222D01*
X3325926Y-2830626D01*
X3325164Y-2824327D01*
X3324301Y-2820111D01*
X3325164Y-2815844D01*
X3325926Y-2809544D01*
X3325926Y-2780639D01*
X3325164Y-2774340D01*
X3324301Y-2770073D01*
X3325164Y-2765806D01*
X3325926Y-2759506D01*
X3325926Y-2730652D01*
X3325164Y-2724353D01*
X3324301Y-2720086D01*
X3325164Y-2715818D01*
X3325926Y-2709519D01*
X3325926Y-2680665D01*
X3325164Y-2674366D01*
X3324301Y-2670098D01*
X3325164Y-2665831D01*
X3325926Y-2659532D01*
X3325926Y-2630627D01*
X3325164Y-2624328D01*
X3324301Y-2620111D01*
X3325164Y-2615844D01*
X3325926Y-2609545D01*
X3325926Y-2580640D01*
X3325164Y-2574340D01*
X3324301Y-2570073D01*
X3325164Y-2565806D01*
X3325926Y-2559507D01*
X3325926Y-2530652D01*
X3325164Y-2524353D01*
X3324301Y-2520086D01*
X3325164Y-2515819D01*
X3325926Y-2509520D01*
X3325926Y-2480665D01*
X3325164Y-2474366D01*
X3324301Y-2470099D01*
X3325164Y-2465832D01*
X3325926Y-2459532D01*
X3325926Y-2430627D01*
X3325164Y-2424328D01*
X3324301Y-2420112D01*
X3325164Y-2415844D01*
X3325926Y-2409545D01*
X3325926Y-2380640D01*
X3325164Y-2374341D01*
X3324301Y-2370074D01*
X3325164Y-2365806D01*
X3325926Y-2359507D01*
X3325926Y-2330653D01*
X3325164Y-2324354D01*
X3324301Y-2320086D01*
X3325164Y-2315819D01*
X3325926Y-2309520D01*
X3325926Y-2280666D01*
X3325164Y-2274366D01*
X3324301Y-2270099D01*
X3325164Y-2265832D01*
X3325926Y-2259533D01*
X3325926Y-2230628D01*
X3325164Y-2224328D01*
X3324301Y-2220112D01*
X3325164Y-2215845D01*
X3325926Y-2209546D01*
X3325926Y-2180640D01*
X3325164Y-2174341D01*
X3324301Y-2170074D01*
X3325164Y-2165807D01*
X3325926Y-2159508D01*
X3325926Y-2130653D01*
X3325164Y-2124354D01*
X3324301Y-2120087D01*
X3325164Y-2115820D01*
X3325926Y-2109520D01*
X3325926Y-2080666D01*
X3325164Y-2074367D01*
X3324301Y-2070100D01*
X3325164Y-2065832D01*
X3325926Y-2059533D01*
X3325926Y-2055063D01*
X3326688Y-2051151D01*
X3328873Y-2047849D01*
X3332175Y-2045665D01*
X3336036Y-2044903D01*
X3339947Y-2045665D01*
X3343249Y-2047849D01*
X3732326Y-2436977D01*
X3738575Y-2442057D01*
X3745229Y-2445613D01*
X3752494Y-2447848D01*
X3760520Y-2448610D01*
X4439818Y-2448610D01*
X4443679Y-2449372D01*
X4446981Y-2451608D01*
X4972710Y-2977337D01*
X4978958Y-2982468D01*
X4985613Y-2986024D01*
X4992878Y-2988208D01*
X5000904Y-2989021D01*
X5388051Y-2989021D01*
X5391708Y-2989681D01*
X5394858Y-2991612D01*
X5397144Y-2994609D01*
X5398160Y-2998165D01*
X5398973Y-3006344D01*
X5400446Y-3010662D01*
X5401056Y-3014014D01*
X5400446Y-3017367D01*
X5398922Y-3021685D01*
X5398160Y-3029610D01*
X5397144Y-3033166D01*
X5394858Y-3036163D01*
X5391708Y-3038094D01*
X5388051Y-3038805D01*
X4911953Y-3038805D01*
X4908753Y-3038246D01*
X4905908Y-3036773D01*
X4896256Y-3026867D01*
X4888179Y-3021228D01*
X4879289Y-3017062D01*
X4869789Y-3014522D01*
X4860036Y-3013659D01*
X4850231Y-3014522D01*
X4840732Y-3017062D01*
X4831842Y-3021228D01*
X4823764Y-3026867D01*
X4816856Y-3033776D01*
X4811217Y-3041853D01*
X4807051Y-3050743D01*
X4804511Y-3060242D01*
X4803648Y-3070047D01*
X4804511Y-3079800D01*
X4807051Y-3089300D01*
X4811217Y-3098190D01*
X4816856Y-3106267D01*
X4823764Y-3113176D01*
X4831842Y-3118815D01*
X4840732Y-3122980D01*
X4850231Y-3125520D01*
X4860036Y-3126384D01*
X4869789Y-3125520D01*
X4879289Y-3122980D01*
X4888179Y-3118815D01*
X4892344Y-3116478D01*
X4895443Y-3116021D01*
X5388051Y-3116021D01*
X5391708Y-3116681D01*
X5394858Y-3118612D01*
X5397144Y-3121609D01*
X5398160Y-3125165D01*
X5398973Y-3133344D01*
X5400446Y-3137662D01*
X5401056Y-3141014D01*
X5400446Y-3144367D01*
X5398922Y-3148736D01*
X5398211Y-3155086D01*
X5398211Y-3253943D01*
X5398922Y-3260242D01*
X5400446Y-3264662D01*
X5401056Y-3268014D01*
X5400446Y-3271367D01*
X5398922Y-3275736D01*
X5398211Y-3282086D01*
X5398211Y-3380943D01*
X5398922Y-3387242D01*
X5400446Y-3391662D01*
X5401056Y-3395014D01*
X5400446Y-3398367D01*
X5398922Y-3402736D01*
X5398211Y-3409086D01*
X5398211Y-3507943D01*
X5398922Y-3514242D01*
X5400446Y-3518662D01*
X5401056Y-3522014D01*
X5400446Y-3525367D01*
X5398922Y-3529736D01*
X5398211Y-3536086D01*
X5398211Y-3634943D01*
X5398922Y-3641242D01*
X5400446Y-3645662D01*
X5401056Y-3649014D01*
X5400446Y-3652367D01*
X5398973Y-3656685D01*
X5398160Y-3664712D01*
X5397144Y-3668268D01*
X5394858Y-3671265D01*
X5391708Y-3673195D01*
X5388051Y-3673906D01*
X4575200Y-3673906D01*
X4572152Y-3673398D01*
X4568190Y-3671214D01*
X4559249Y-3667048D01*
X4549800Y-3664508D01*
X4539996Y-3663645D01*
X4530191Y-3664508D01*
X4520742Y-3667048D01*
X4511802Y-3671214D01*
X4503775Y-3676853D01*
X4496816Y-3683762D01*
X4491177Y-3691839D01*
X4487062Y-3700729D01*
X4484522Y-3710228D01*
X4483658Y-3720033D01*
X4484522Y-3729786D01*
X4487062Y-3739286D01*
X4491177Y-3748176D01*
X4496816Y-3756253D01*
X4503775Y-3763162D01*
X4511802Y-3768801D01*
X4520742Y-3772966D01*
X4530191Y-3775506D01*
X4539996Y-3776370D01*
X4549800Y-3775506D01*
X4559249Y-3772966D01*
X4568190Y-3768801D01*
X4576216Y-3763162D01*
X4583176Y-3756253D01*
X4585970Y-3753104D01*
X4588865Y-3751630D01*
X4592066Y-3751122D01*
X4908296Y-3751122D01*
X4912156Y-3751884D01*
X4915458Y-3754069D01*
X4917643Y-3757371D01*
X4918456Y-3761282D01*
X4917643Y-3765143D01*
X4915458Y-3768445D01*
X4881422Y-3802481D01*
X4939385Y-3860444D01*
X4947412Y-3852468D01*
X4950663Y-3850284D01*
X4954574Y-3849471D01*
X4958486Y-3850284D01*
X4961737Y-3852468D01*
X4963464Y-3854145D01*
X5015128Y-3802481D01*
X4981092Y-3768445D01*
X4978908Y-3765143D01*
X4978095Y-3761282D01*
X4978908Y-3757371D01*
X4981092Y-3754069D01*
X4984394Y-3751884D01*
X4988255Y-3751122D01*
X5388051Y-3751122D01*
X5391708Y-3751783D01*
X5394858Y-3753713D01*
X5397144Y-3756710D01*
X5398160Y-3760266D01*
X5398973Y-3768344D01*
X5400446Y-3772662D01*
X5401056Y-3776014D01*
X5400446Y-3779367D01*
X5398922Y-3783736D01*
X5398211Y-3790086D01*
X5398211Y-3888943D01*
X5398922Y-3895242D01*
X5400446Y-3899662D01*
X5401056Y-3903014D01*
X5400446Y-3906367D01*
X5398922Y-3910736D01*
X5398211Y-3917086D01*
X5398211Y-4015943D01*
X5398922Y-4022242D01*
X5400446Y-4026662D01*
X5401056Y-4030014D01*
X5400446Y-4033367D01*
X5398922Y-4037736D01*
X5398211Y-4044086D01*
X5398211Y-4142943D01*
X5398922Y-4149242D01*
X5400446Y-4153662D01*
X5401056Y-4157014D01*
X5400446Y-4160367D01*
X5398922Y-4164736D01*
X5398211Y-4171086D01*
X5398211Y-4181500D01*
X5397246Y-4185818D01*
X5394502Y-4189374D01*
X5389524Y-4193438D01*
X5274513Y-4308398D01*
X5271262Y-4310634D01*
X5267350Y-4311396D01*
X4465015Y-4311396D01*
X4461103Y-4310634D01*
X4457801Y-4308398D01*
X4456226Y-4306824D01*
X4448200Y-4301185D01*
X4439259Y-4297070D01*
X4429810Y-4294530D01*
X4420006Y-4293666D01*
X4410202Y-4294530D01*
X4400753Y-4297070D01*
X4391812Y-4301185D01*
X4383786Y-4306824D01*
X4376826Y-4313783D01*
X4371187Y-4321810D01*
X4367072Y-4330750D01*
X4364532Y-4340199D01*
X4363669Y-4350004D01*
X4364532Y-4359808D01*
X4367072Y-4369257D01*
X4371187Y-4378198D01*
X4376826Y-4386224D01*
X4383786Y-4393184D01*
X4391812Y-4398822D01*
X4400753Y-4402937D01*
X4410202Y-4405477D01*
X4420006Y-4406341D01*
X4429810Y-4405477D01*
X4439259Y-4402937D01*
X4448200Y-4398822D01*
X4456226Y-4393184D01*
X4457801Y-4391609D01*
X4461103Y-4389374D01*
X4465015Y-4388612D01*
X5287060Y-4388612D01*
X5295087Y-4387799D01*
X5302300Y-4385614D01*
X5308955Y-4382058D01*
X5315204Y-4376928D01*
X5380888Y-4311294D01*
X5384139Y-4309059D01*
X5388051Y-4308297D01*
X5391962Y-4309059D01*
X5395214Y-4311294D01*
X5397449Y-4314596D01*
X5398211Y-4318457D01*
X5398211Y-4396943D01*
X5398922Y-4403242D01*
X5400852Y-4408728D01*
X5403900Y-4413605D01*
X5408015Y-4417720D01*
X5412892Y-4420768D01*
X5418378Y-4422698D01*
X5424678Y-4423410D01*
X5489905Y-4423410D01*
X5493816Y-4424172D01*
X5497118Y-4426407D01*
X5828233Y-4757470D01*
X5830417Y-4760772D01*
X5831179Y-4764684D01*
X5831179Y-4802073D01*
X5868568Y-4802073D01*
X5872480Y-4802835D01*
X5875782Y-4805019D01*
X5886094Y-4815382D01*
X5888329Y-4818684D01*
X5889091Y-4822596D01*
X5889091Y-4847793D01*
X5888329Y-4851704D01*
X5886094Y-4855006D01*
X5882843Y-4857191D01*
X5878931Y-4857953D01*
X5831179Y-4857953D01*
X5831179Y-4899101D01*
X5844438Y-4899101D01*
X5850737Y-4898390D01*
X5856224Y-4896510D01*
X5861100Y-4893411D01*
X5865215Y-4889347D01*
X5868263Y-4884420D01*
X5870397Y-4878374D01*
X5872530Y-4874818D01*
X5875934Y-4872380D01*
X5879998Y-4871567D01*
X5884062Y-4872380D01*
X5887466Y-4874818D01*
X5889599Y-4878374D01*
X5891733Y-4884420D01*
X5894781Y-4889347D01*
X5898896Y-4893411D01*
X5903772Y-4896510D01*
X5909259Y-4898390D01*
X5915558Y-4899101D01*
X5995060Y-4899101D01*
X6001410Y-4898390D01*
X6006846Y-4896510D01*
X6011773Y-4893411D01*
X6015837Y-4889347D01*
X6018936Y-4884420D01*
X6020866Y-4878984D01*
X6022086Y-4874107D01*
X6024321Y-4871212D01*
X6027470Y-4869281D01*
X6031077Y-4868621D01*
X6141821Y-4868621D01*
X6145174Y-4869180D01*
X6148171Y-4870856D01*
X6150457Y-4873396D01*
X6154166Y-4879340D01*
X6158230Y-4883404D01*
X6163157Y-4886502D01*
X6168593Y-4888433D01*
X6174943Y-4889144D01*
X6254445Y-4889144D01*
X6260744Y-4888433D01*
X6266230Y-4886502D01*
X6271107Y-4883404D01*
X6275222Y-4879340D01*
X6278270Y-4874412D01*
X6280404Y-4868367D01*
X6282537Y-4864811D01*
X6285941Y-4862372D01*
X6290005Y-4861560D01*
X6294069Y-4862372D01*
X6297472Y-4864811D01*
X6299606Y-4868367D01*
X6301740Y-4874412D01*
X6304788Y-4879340D01*
X6308902Y-4883404D01*
X6313779Y-4886502D01*
X6319266Y-4888433D01*
X6325565Y-4889144D01*
X6405067Y-4889144D01*
X6411417Y-4888433D01*
X6416852Y-4886502D01*
X6421780Y-4883404D01*
X6425844Y-4879340D01*
X6428943Y-4874412D01*
X6430822Y-4868976D01*
X6431534Y-4862626D01*
X6431534Y-4777384D01*
X6430822Y-4771085D01*
X6428943Y-4765598D01*
X6425844Y-4760722D01*
X6418834Y-4754118D01*
X6417208Y-4751120D01*
X6416649Y-4747768D01*
X6416649Y-4091584D01*
X6417411Y-4087672D01*
X6419596Y-4084421D01*
X6422898Y-4082186D01*
X6426809Y-4081424D01*
X6461150Y-4081424D01*
X6465214Y-4082287D01*
X6468567Y-4084675D01*
X6470751Y-4088231D01*
X6471767Y-4091228D01*
X6474866Y-4096156D01*
X6478981Y-4100220D01*
X6483858Y-4103319D01*
X6489344Y-4105249D01*
X6495643Y-4105960D01*
X6844487Y-4105960D01*
X6850786Y-4105249D01*
X6856272Y-4103319D01*
X6861149Y-4100220D01*
X6865264Y-4096156D01*
X6868363Y-4091228D01*
X6870242Y-4085793D01*
X6870953Y-4079494D01*
X6870953Y-3980586D01*
X6870242Y-3974287D01*
X6868363Y-3968851D01*
X6865264Y-3963924D01*
X6861149Y-3959860D01*
X6856272Y-3956761D01*
X6850786Y-3954830D01*
X6844487Y-3954119D01*
X6495643Y-3954119D01*
X6489344Y-3954830D01*
X6485788Y-3956100D01*
X6481978Y-3956659D01*
X6478219Y-3955745D01*
X6475069Y-3953510D01*
X6472986Y-3950258D01*
X6472275Y-3946499D01*
X6472275Y-3913581D01*
X6472986Y-3909822D01*
X6475069Y-3906570D01*
X6478219Y-3904335D01*
X6481978Y-3903421D01*
X6485788Y-3903979D01*
X6489344Y-3905250D01*
X6495643Y-3905961D01*
X6576212Y-3905961D01*
X6576212Y-3861409D01*
X6482435Y-3861409D01*
X6478524Y-3860596D01*
X6475272Y-3858412D01*
X6473037Y-3855110D01*
X6472275Y-3851249D01*
X6472275Y-3808831D01*
X6473037Y-3804970D01*
X6475272Y-3801668D01*
X6478524Y-3799484D01*
X6482435Y-3798671D01*
X6576212Y-3798671D01*
X6576212Y-3754120D01*
X6495643Y-3754120D01*
X6489344Y-3754831D01*
X6485788Y-3756101D01*
X6481978Y-3756660D01*
X6478219Y-3755745D01*
X6475069Y-3753510D01*
X6472986Y-3750259D01*
X6472275Y-3746500D01*
X6472275Y-3488639D01*
X6473139Y-3484575D01*
X6475526Y-3481171D01*
X6479082Y-3479037D01*
X6481216Y-3478276D01*
X6486144Y-3475228D01*
X6490208Y-3471113D01*
X6491427Y-3469233D01*
X6494221Y-3466287D01*
X6497980Y-3464712D01*
X6502044Y-3464712D01*
X6505803Y-3466287D01*
X6508597Y-3469233D01*
X6509766Y-3471113D01*
X6513880Y-3475228D01*
X6518757Y-3478276D01*
X6524244Y-3480206D01*
X6530543Y-3480917D01*
X6543649Y-3480917D01*
X6543649Y-3438855D01*
X6506108Y-3438855D01*
X6502196Y-3438093D01*
X6498894Y-3435908D01*
X6496710Y-3432606D01*
X6495948Y-3428695D01*
X6495948Y-3391306D01*
X6496710Y-3387445D01*
X6498894Y-3384143D01*
X6502196Y-3381959D01*
X6506108Y-3381146D01*
X6543649Y-3381146D01*
X6543649Y-3339084D01*
X6530543Y-3339084D01*
X6524244Y-3339795D01*
X6518757Y-3341725D01*
X6513880Y-3344824D01*
X6509766Y-3348888D01*
X6508597Y-3350768D01*
X6505803Y-3353714D01*
X6502044Y-3355340D01*
X6497980Y-3355340D01*
X6494221Y-3353714D01*
X6491427Y-3350768D01*
X6490208Y-3348888D01*
X6486144Y-3344824D01*
X6481216Y-3341725D01*
X6475780Y-3339795D01*
X6469430Y-3339084D01*
X6391503Y-3339084D01*
X6387592Y-3338322D01*
X6384340Y-3336137D01*
X6382105Y-3332835D01*
X6381343Y-3328924D01*
X6381343Y-3181096D01*
X6382105Y-3177184D01*
X6384340Y-3173882D01*
X6387592Y-3171698D01*
X6391503Y-3170936D01*
X6469430Y-3170936D01*
X6475780Y-3170224D01*
X6481216Y-3168294D01*
X6486144Y-3165195D01*
X6490208Y-3161131D01*
X6491427Y-3159252D01*
X6494221Y-3156305D01*
X6497980Y-3154680D01*
X6502044Y-3154680D01*
X6505803Y-3156305D01*
X6508597Y-3159252D01*
X6509766Y-3161131D01*
X6513880Y-3165195D01*
X6518757Y-3168294D01*
X6524244Y-3170224D01*
X6530543Y-3170936D01*
X6543649Y-3170936D01*
X6543649Y-3128873D01*
X6506108Y-3128873D01*
X6502196Y-3128111D01*
X6498894Y-3125876D01*
X6496710Y-3122574D01*
X6495948Y-3118713D01*
X6495948Y-3081324D01*
X6496710Y-3077413D01*
X6498894Y-3074162D01*
X6502196Y-3071926D01*
X6506108Y-3071164D01*
X6543649Y-3071164D01*
X6543649Y-3029102D01*
X6530543Y-3029102D01*
X6524244Y-3029813D01*
X6518757Y-3031744D01*
X6513880Y-3034792D01*
X6509766Y-3038906D01*
X6508597Y-3040786D01*
X6505803Y-3043732D01*
X6502044Y-3045307D01*
X6497980Y-3045307D01*
X6494221Y-3043732D01*
X6491427Y-3040786D01*
X6490208Y-3038906D01*
X6483553Y-3032506D01*
X6481876Y-3029508D01*
X6481318Y-3026156D01*
X6481318Y-2931566D01*
X6482080Y-2927654D01*
X6484315Y-2924403D01*
X6487566Y-2922168D01*
X6491478Y-2921406D01*
X6648551Y-2921406D01*
X6652666Y-2922270D01*
X6656070Y-2924708D01*
X6658203Y-2928264D01*
X6658660Y-2932430D01*
X6657492Y-2936443D01*
X6651853Y-2946704D01*
X6647586Y-2958185D01*
X6644995Y-2970174D01*
X6644081Y-2982417D01*
X6644995Y-2994609D01*
X6647586Y-3006598D01*
X6651853Y-3018078D01*
X6657746Y-3028848D01*
X6665061Y-3038652D01*
X6673748Y-3047288D01*
X6683552Y-3054654D01*
X6694322Y-3060496D01*
X6705803Y-3064814D01*
X6717741Y-3067405D01*
X6729984Y-3068269D01*
X6742226Y-3067405D01*
X6754164Y-3064814D01*
X6765645Y-3060496D01*
X6776415Y-3054654D01*
X6786219Y-3047288D01*
X6794906Y-3038652D01*
X6802221Y-3028848D01*
X6808114Y-3018078D01*
X6812381Y-3006598D01*
X6814972Y-2994609D01*
X6815886Y-2982417D01*
X6814972Y-2970174D01*
X6812381Y-2958185D01*
X6808114Y-2946704D01*
X6802221Y-2935986D01*
X6794906Y-2926181D01*
X6786219Y-2917494D01*
X6776415Y-2910128D01*
X6772402Y-2907944D01*
X6769608Y-2905709D01*
X6767779Y-2902661D01*
X6767118Y-2899206D01*
X6768388Y-2889351D01*
X6768388Y-2850489D01*
X6767677Y-2844139D01*
X6766509Y-2840736D01*
X6765950Y-2837383D01*
X6766509Y-2834030D01*
X6767677Y-2830626D01*
X6768388Y-2824327D01*
X6768388Y-2785465D01*
X6767677Y-2779166D01*
X6766509Y-2775762D01*
X6765950Y-2772410D01*
X6766509Y-2769057D01*
X6767677Y-2765653D01*
X6768388Y-2759303D01*
X6768388Y-2720492D01*
X6767677Y-2714142D01*
X6766509Y-2710738D01*
X6765950Y-2707386D01*
X6766509Y-2704033D01*
X6767677Y-2700629D01*
X6768388Y-2694330D01*
X6768388Y-2655468D01*
X6767677Y-2649169D01*
X6766509Y-2645765D01*
X6765950Y-2642412D01*
X6766509Y-2639060D01*
X6767677Y-2635656D01*
X6768388Y-2629306D01*
X6768388Y-2626258D01*
X6714388Y-2626258D01*
X6711137Y-2628290D01*
X6707428Y-2629001D01*
X6652564Y-2629001D01*
X6648805Y-2628290D01*
X6645605Y-2626258D01*
X6591553Y-2626258D01*
X6591553Y-2629306D01*
X6592265Y-2635656D01*
X6593484Y-2639060D01*
X6594043Y-2642412D01*
X6593484Y-2645765D01*
X6592265Y-2649169D01*
X6591553Y-2655468D01*
X6591553Y-2692603D01*
X6590690Y-2696768D01*
X6588099Y-2700223D01*
X6584391Y-2702306D01*
X6577431Y-2704439D01*
X6570725Y-2707995D01*
X6566966Y-2711094D01*
X6563969Y-2712770D01*
X6560515Y-2713380D01*
X6512255Y-2713380D01*
X6508394Y-2712618D01*
X6505092Y-2710383D01*
X6186474Y-2392019D01*
X6180277Y-2386939D01*
X6173571Y-2383383D01*
X6166358Y-2381199D01*
X6158331Y-2380386D01*
X5078476Y-2380386D01*
X5074564Y-2379624D01*
X5071262Y-2377389D01*
X5069078Y-2374138D01*
X5068316Y-2370226D01*
X5069078Y-2366314D01*
X5071262Y-2363063D01*
X5085435Y-2348839D01*
X5090566Y-2342642D01*
X5094122Y-2335936D01*
X5096306Y-2328722D01*
X5096662Y-2325166D01*
X5097729Y-2321610D01*
X5099964Y-2318664D01*
X5103114Y-2316683D01*
X5114391Y-2315311D01*
X5118760Y-2313787D01*
X5122113Y-2313178D01*
X5125466Y-2313787D01*
X5129885Y-2315311D01*
X5136184Y-2316022D01*
X5235041Y-2316022D01*
X5241391Y-2315311D01*
X5245760Y-2313787D01*
X5249113Y-2313178D01*
X5252466Y-2313787D01*
X5256885Y-2315311D01*
X5263184Y-2316022D01*
X5362041Y-2316022D01*
X5368391Y-2315311D01*
X5373827Y-2313381D01*
X5378754Y-2310333D01*
X5382818Y-2306218D01*
X5385917Y-2301341D01*
X5387797Y-2295855D01*
X5388559Y-2289556D01*
X5388559Y-2278786D01*
X5389321Y-2274874D01*
X5391505Y-2271623D01*
X5394807Y-2269388D01*
X5398719Y-2268626D01*
X5519166Y-2268626D01*
X5523484Y-2269591D01*
X5530748Y-2272944D01*
X5540197Y-2275484D01*
X5550001Y-2276348D01*
X5559806Y-2275484D01*
X5569254Y-2272944D01*
X5578195Y-2268829D01*
X5586222Y-2263190D01*
X5593181Y-2256231D01*
X5598820Y-2248204D01*
X5602935Y-2239264D01*
X5605475Y-2229815D01*
X5606338Y-2220010D01*
X5605475Y-2210206D01*
X5602935Y-2200757D01*
X5598820Y-2191816D01*
X5593181Y-2183790D01*
X5591606Y-2182215D01*
X5589371Y-2178913D01*
X5588609Y-2175002D01*
X5588609Y-1505051D01*
X5589371Y-1501140D01*
X5591606Y-1497838D01*
X5593181Y-1496263D01*
X5598820Y-1488186D01*
X5602986Y-1479296D01*
X5605526Y-1469796D01*
X5606389Y-1460042D01*
X5605526Y-1450238D01*
X5603138Y-1441450D01*
X5602884Y-1437741D01*
X5603900Y-1434185D01*
X5606186Y-1431239D01*
X5609336Y-1429308D01*
X5612993Y-1428648D01*
X5919419Y-1428648D01*
X5923330Y-1429410D01*
X5926632Y-1431645D01*
X6462623Y-1967636D01*
X6464808Y-1970938D01*
X6465620Y-1974799D01*
X6465620Y-2168448D01*
X6466332Y-2174748D01*
X6468211Y-2180234D01*
X6471310Y-2185111D01*
X6475374Y-2189226D01*
X6480302Y-2192274D01*
X6485737Y-2194204D01*
X6492087Y-2194915D01*
X6807911Y-2194915D01*
X6814261Y-2194204D01*
X6819696Y-2192274D01*
X6824624Y-2189226D01*
X6828688Y-2185111D01*
X6831787Y-2180234D01*
X6833717Y-2174748D01*
X6834428Y-2168448D01*
X6834428Y-1915566D01*
X6833717Y-1909267D01*
X6831787Y-1903780D01*
X6828688Y-1898904D01*
X6824624Y-1894789D01*
X6819696Y-1891741D01*
X6814261Y-1889810D01*
X6807911Y-1889099D01*
X6497523Y-1889099D01*
X6493611Y-1888337D01*
X6490309Y-1886153D01*
X5967272Y-1363116D01*
X5961075Y-1357985D01*
X5954369Y-1354429D01*
X5947156Y-1352245D01*
X5939129Y-1351432D01*
X5895695Y-1351432D01*
X5891834Y-1350670D01*
X5888532Y-1348435D01*
X5886297Y-1345184D01*
X5885535Y-1341272D01*
X5886297Y-1337360D01*
X5888532Y-1334109D01*
X6548729Y-673912D01*
X6552031Y-671677D01*
X6555892Y-670915D01*
X6807911Y-670915D01*
X6814261Y-670204D01*
X6819696Y-668274D01*
X6824624Y-665226D01*
X6828688Y-661111D01*
X6831787Y-656234D01*
X6833717Y-650748D01*
X6834428Y-644448D01*
X6834428Y-391566D01*
X6833717Y-385267D01*
X6831787Y-379780D01*
X6828688Y-374904D01*
X6824624Y-370789D01*
X6819696Y-367741D01*
X6814261Y-365810D01*
X6807911Y-365099D01*
X6492087Y-365099D01*
X6485737Y-365810D01*
X6480302Y-367741D01*
X6475374Y-370789D01*
X6471310Y-374904D01*
X6468211Y-379780D01*
X6466332Y-385267D01*
X6465620Y-391566D01*
X6465620Y-643585D01*
X6464808Y-647496D01*
X6462623Y-650798D01*
X5764936Y-1348435D01*
X5761634Y-1350670D01*
X5757773Y-1351432D01*
X4590288Y-1351432D01*
X4586376Y-1350670D01*
X4583074Y-1348435D01*
X4357674Y-1123086D01*
X4351477Y-1117955D01*
X4344771Y-1114399D01*
X4337558Y-1112215D01*
X4329531Y-1111402D01*
X4294987Y-1111402D01*
X4291126Y-1110640D01*
X4287824Y-1108405D01*
X4286250Y-1106830D01*
X4278172Y-1101191D01*
X4269282Y-1097076D01*
X4259783Y-1094536D01*
X4254144Y-1094028D01*
X4250486Y-1092962D01*
X4247489Y-1090676D01*
X4245508Y-1087374D01*
X4244898Y-1083614D01*
X4245711Y-1079855D01*
X4247845Y-1076706D01*
X4258462Y-1066139D01*
X4261764Y-1063904D01*
X4265676Y-1063142D01*
X4311243Y-1063142D01*
X4315155Y-1063904D01*
X4326432Y-1071778D01*
X4335068Y-1075791D01*
X4344263Y-1078280D01*
X4354169Y-1079144D01*
X4535932Y-1079144D01*
X4545838Y-1078280D01*
X4555032Y-1075791D01*
X4563668Y-1071778D01*
X4571441Y-1066342D01*
X4578197Y-1059586D01*
X4583633Y-1051814D01*
X4587646Y-1043178D01*
X4590135Y-1034034D01*
X4590948Y-1024534D01*
X4590135Y-1015034D01*
X4587646Y-1005890D01*
X4583633Y-997254D01*
X4578197Y-989482D01*
X4571441Y-982726D01*
X4563668Y-977290D01*
X4555032Y-973277D01*
X4546041Y-970838D01*
X4542180Y-968806D01*
X4539488Y-965352D01*
X4538522Y-961034D01*
X4539488Y-956716D01*
X4542180Y-953262D01*
X4546041Y-951230D01*
X4555032Y-948791D01*
X4563668Y-944778D01*
X4571441Y-939342D01*
X4578197Y-932586D01*
X4583633Y-924814D01*
X4587646Y-916178D01*
X4590135Y-907034D01*
X4590948Y-897534D01*
X4590135Y-888034D01*
X4587646Y-878890D01*
X4583633Y-870254D01*
X4578197Y-862482D01*
X4571441Y-855726D01*
X4563668Y-850290D01*
X4555032Y-846277D01*
X4546041Y-843838D01*
X4542180Y-841806D01*
X4539488Y-838352D01*
X4538522Y-834034D01*
X4539488Y-829716D01*
X4542180Y-826262D01*
X4546041Y-824230D01*
X4555032Y-821791D01*
X4563668Y-817778D01*
X4571441Y-812342D01*
X4578197Y-805586D01*
X4583633Y-797814D01*
X4587646Y-789178D01*
X4590135Y-780034D01*
X4590948Y-770534D01*
X4590135Y-761034D01*
X4587646Y-751890D01*
X4583633Y-743254D01*
X4578197Y-735482D01*
X4571441Y-728726D01*
X4563668Y-723290D01*
X4555032Y-719277D01*
X4546041Y-716838D01*
X4542180Y-714806D01*
X4539488Y-711352D01*
X4538522Y-707034D01*
X4539488Y-702716D01*
X4542180Y-699262D01*
X4546041Y-697230D01*
X4555032Y-694791D01*
X4563668Y-690778D01*
X4571441Y-685342D01*
X4578197Y-678586D01*
X4583633Y-670814D01*
X4586732Y-664210D01*
X4511395Y-664210D01*
X4511395Y-705764D01*
X4510633Y-709676D01*
X4508449Y-712927D01*
X4505147Y-715162D01*
X4501235Y-715924D01*
X4388866Y-715924D01*
X4384954Y-715162D01*
X4381652Y-712927D01*
X4379468Y-709676D01*
X4378706Y-705764D01*
X4378706Y-664210D01*
X4303420Y-664210D01*
X4306468Y-670814D01*
X4311904Y-678586D01*
X4318660Y-685342D01*
X4326432Y-690778D01*
X4335068Y-694791D01*
X4344060Y-697230D01*
X4347972Y-699262D01*
X4350613Y-702716D01*
X4351578Y-707034D01*
X4350613Y-711352D01*
X4347972Y-714806D01*
X4344060Y-716838D01*
X4335068Y-719277D01*
X4326432Y-723290D01*
X4315155Y-731113D01*
X4311294Y-731926D01*
X4269994Y-731926D01*
X4261967Y-732688D01*
X4254754Y-734872D01*
X4248099Y-738428D01*
X4241850Y-743559D01*
X4214520Y-770890D01*
X4211624Y-772922D01*
X4208221Y-773836D01*
X4200194Y-774547D01*
X4190746Y-777087D01*
X4181805Y-781202D01*
X4173778Y-786841D01*
X4166819Y-793800D01*
X4161180Y-801827D01*
X4157065Y-810768D01*
X4154525Y-820216D01*
X4153662Y-830021D01*
X4154525Y-839825D01*
X4157065Y-849274D01*
X4161180Y-858215D01*
X4166819Y-866241D01*
X4173778Y-873201D01*
X4181805Y-878840D01*
X4190746Y-882954D01*
X4193336Y-883666D01*
X4197096Y-885596D01*
X4199737Y-888847D01*
X4200855Y-892962D01*
X4200194Y-897128D01*
X4197858Y-900684D01*
X4083100Y-1015441D01*
X4078020Y-1021638D01*
X4074464Y-1028344D01*
X4072280Y-1035558D01*
X4071467Y-1043584D01*
X4071467Y-1367637D01*
X4070654Y-1371600D01*
X4068419Y-1374902D01*
X4065066Y-1377086D01*
X4061155Y-1377797D01*
X4057192Y-1376984D01*
X4053941Y-1374648D01*
X4051401Y-1372006D01*
X4049318Y-1368755D01*
X4048607Y-1364996D01*
X4048607Y-1250492D01*
X4047794Y-1242466D01*
X4045610Y-1235252D01*
X4042054Y-1228598D01*
X4036923Y-1222349D01*
X3954830Y-1140256D01*
X3952646Y-1136954D01*
X3951884Y-1133094D01*
X3951884Y-1086459D01*
X3952443Y-1083106D01*
X3954119Y-1080160D01*
X3957675Y-1077214D01*
X3961790Y-1073150D01*
X3964838Y-1068222D01*
X3966768Y-1062786D01*
X3967479Y-1056436D01*
X3967479Y-1003604D01*
X3966768Y-997254D01*
X3964838Y-991819D01*
X3961790Y-986891D01*
X3957675Y-982827D01*
X3952798Y-979728D01*
X3947312Y-977798D01*
X3941013Y-977087D01*
X3885590Y-977087D01*
X3879240Y-977798D01*
X3873347Y-979881D01*
X3869994Y-980440D01*
X3866642Y-979881D01*
X3860749Y-977798D01*
X3854450Y-977087D01*
X3799027Y-977087D01*
X3792677Y-977798D01*
X3787241Y-979728D01*
X3782314Y-982827D01*
X3778250Y-986891D01*
X3775151Y-991819D01*
X3774186Y-994613D01*
X3772001Y-998169D01*
X3768648Y-1000556D01*
X3764584Y-1001420D01*
X3683558Y-1001420D01*
X3680206Y-1000861D01*
X3677208Y-999185D01*
X3674922Y-996645D01*
X3672179Y-992276D01*
X3668115Y-988212D01*
X3663187Y-985113D01*
X3657752Y-983234D01*
X3651453Y-982522D01*
X3548837Y-982522D01*
X3542487Y-983234D01*
X3537051Y-985113D01*
X3532124Y-988212D01*
X3528060Y-992276D01*
X3524961Y-997203D01*
X3523030Y-1002639D01*
X3522319Y-1008989D01*
X3522319Y-1061059D01*
X3523030Y-1067358D01*
X3524961Y-1072845D01*
X3528060Y-1077722D01*
X3532124Y-1081836D01*
X3537051Y-1084884D01*
X3542487Y-1086815D01*
X3548837Y-1087526D01*
X3651453Y-1087526D01*
X3657752Y-1086815D01*
X3663187Y-1084884D01*
X3671620Y-1079398D01*
X3675532Y-1078636D01*
X3767988Y-1078636D01*
X3771849Y-1079398D01*
X3775151Y-1081633D01*
X3777335Y-1084884D01*
X3778148Y-1088796D01*
X3778148Y-1243533D01*
X3777538Y-1246886D01*
X3775913Y-1249883D01*
X3772306Y-1252829D01*
X3768242Y-1256893D01*
X3765143Y-1261821D01*
X3763264Y-1267256D01*
X3762552Y-1273606D01*
X3762552Y-1326438D01*
X3763264Y-1332788D01*
X3765143Y-1338224D01*
X3768242Y-1343101D01*
X3772306Y-1347216D01*
X3777234Y-1350314D01*
X3782669Y-1352194D01*
X3789019Y-1352905D01*
X3844442Y-1352905D01*
X3850741Y-1352194D01*
X3856634Y-1350162D01*
X3859987Y-1349552D01*
X3863340Y-1350162D01*
X3869232Y-1352194D01*
X3875582Y-1352905D01*
X3881831Y-1353261D01*
X3890213Y-1355496D01*
X3900017Y-1356360D01*
X3909771Y-1355496D01*
X3918153Y-1353261D01*
X3920794Y-1352905D01*
X3931005Y-1352905D01*
X3937304Y-1352194D01*
X3942791Y-1350314D01*
X3947668Y-1347216D01*
X3951782Y-1343101D01*
X3952646Y-1341780D01*
X3955643Y-1338681D01*
X3959707Y-1337106D01*
X3964025Y-1337411D01*
X3967835Y-1339443D01*
X3970477Y-1342948D01*
X3971391Y-1347165D01*
X3971391Y-1364996D01*
X3970629Y-1368856D01*
X3968394Y-1372158D01*
X3966819Y-1373784D01*
X3961180Y-1381810D01*
X3957015Y-1390700D01*
X3954475Y-1400200D01*
X3953764Y-1408277D01*
X3952849Y-1411681D01*
X3950868Y-1414576D01*
X3866997Y-1498396D01*
X3863695Y-1500632D01*
X3859784Y-1501394D01*
X3735374Y-1501394D01*
X3731209Y-1500530D01*
X3727805Y-1497990D01*
X3725672Y-1494332D01*
X3725265Y-1490116D01*
X3725926Y-1484426D01*
X3725926Y-1435608D01*
X3725214Y-1429258D01*
X3723132Y-1423365D01*
X3722573Y-1420012D01*
X3723132Y-1416659D01*
X3725214Y-1410766D01*
X3725926Y-1404416D01*
X3725926Y-1355598D01*
X3725214Y-1349248D01*
X3723894Y-1343761D01*
X3724452Y-1340408D01*
X3725214Y-1338275D01*
X3725926Y-1331976D01*
X3725926Y-1268120D01*
X3725214Y-1261770D01*
X3723284Y-1256334D01*
X3720236Y-1251407D01*
X3716121Y-1247343D01*
X3711244Y-1244244D01*
X3705758Y-1242314D01*
X3699459Y-1241602D01*
X3620566Y-1241602D01*
X3614267Y-1242314D01*
X3608781Y-1244244D01*
X3603904Y-1247343D01*
X3599789Y-1251407D01*
X3596741Y-1256334D01*
X3594811Y-1261770D01*
X3594100Y-1268120D01*
X3594100Y-1331976D01*
X3594811Y-1338275D01*
X3596132Y-1343761D01*
X3595573Y-1347114D01*
X3594811Y-1349248D01*
X3594100Y-1355598D01*
X3594100Y-1404416D01*
X3594811Y-1410766D01*
X3596843Y-1416659D01*
X3597452Y-1420012D01*
X3596843Y-1423365D01*
X3594811Y-1429258D01*
X3594100Y-1435608D01*
X3594100Y-1484426D01*
X3594811Y-1490776D01*
X3596132Y-1496263D01*
X3595522Y-1499616D01*
X3594811Y-1501749D01*
X3594100Y-1508048D01*
X3594100Y-1572615D01*
X3593337Y-1576476D01*
X3591102Y-1579778D01*
X3567429Y-1603451D01*
X3564128Y-1605686D01*
X3560267Y-1606448D01*
X3546906Y-1606448D01*
X3542995Y-1605686D01*
X3539693Y-1603451D01*
X3537508Y-1600200D01*
X3536746Y-1596288D01*
X3537508Y-1592376D01*
X3540201Y-1588617D01*
X3543300Y-1583690D01*
X3545179Y-1578254D01*
X3545890Y-1571904D01*
X3545890Y-1508048D01*
X3545179Y-1501749D01*
X3543858Y-1496263D01*
X3544468Y-1492910D01*
X3545179Y-1490776D01*
X3545890Y-1484426D01*
X3545890Y-1435608D01*
X3545179Y-1429258D01*
X3543147Y-1423365D01*
X3542588Y-1420012D01*
X3543147Y-1416659D01*
X3545179Y-1410766D01*
X3545890Y-1404416D01*
X3545890Y-1355598D01*
X3545179Y-1349248D01*
X3543909Y-1343761D01*
X3544468Y-1340408D01*
X3545230Y-1338275D01*
X3545941Y-1331925D01*
X3545941Y-1268069D01*
X3545230Y-1261770D01*
X3543300Y-1256284D01*
X3540201Y-1251407D01*
X3536137Y-1247292D01*
X3531209Y-1244244D01*
X3525774Y-1242314D01*
X3519424Y-1241602D01*
X3440582Y-1241602D01*
X3434283Y-1242314D01*
X3428796Y-1244244D01*
X3423920Y-1247292D01*
X3419805Y-1251407D01*
X3416503Y-1256639D01*
X3414217Y-1259179D01*
X3411270Y-1260856D01*
X3407918Y-1261414D01*
X3390493Y-1261414D01*
X3382467Y-1262227D01*
X3378149Y-1263497D01*
X3373678Y-1263853D01*
X3369564Y-1262227D01*
X3366465Y-1259027D01*
X3365093Y-1254810D01*
X3365601Y-1250391D01*
X3367989Y-1246632D01*
X3406851Y-1207770D01*
X3411931Y-1201572D01*
X3415487Y-1194866D01*
X3417722Y-1187653D01*
X3418484Y-1179626D01*
X3418484Y-1002690D01*
X3419246Y-998778D01*
X3421481Y-995476D01*
X3424783Y-993292D01*
X3428644Y-992530D01*
X3431184Y-992530D01*
X3437483Y-991819D01*
X3442970Y-989888D01*
X3447846Y-986840D01*
X3451961Y-982726D01*
X3455060Y-977849D01*
X3456940Y-972362D01*
X3457651Y-966063D01*
X3457651Y-913993D01*
X3456940Y-907643D01*
X3455060Y-902208D01*
X3451961Y-897280D01*
X3447846Y-893216D01*
X3442970Y-890117D01*
X3437483Y-888237D01*
X3431184Y-887526D01*
X3328568Y-887526D01*
X3322269Y-888237D01*
X3316782Y-890117D01*
X3311906Y-893216D01*
X3307791Y-897280D01*
X3304692Y-902208D01*
X3302812Y-907643D01*
X3302101Y-913993D01*
X3302101Y-966063D01*
X3302812Y-972362D01*
X3304692Y-977849D01*
X3307791Y-982726D01*
X3311906Y-986840D01*
X3316782Y-989888D01*
X3322269Y-991819D01*
X3328568Y-992530D01*
X3331108Y-992530D01*
X3335020Y-993292D01*
X3338322Y-995476D01*
X3340506Y-998778D01*
X3341268Y-1002690D01*
X3341268Y-1159916D01*
X3340506Y-1163828D01*
X3338322Y-1167130D01*
X3254197Y-1251204D01*
X3250895Y-1253439D01*
X3247034Y-1254201D01*
X3180588Y-1254201D01*
X3174238Y-1254912D01*
X3168802Y-1256792D01*
X3163874Y-1259890D01*
X3159810Y-1264005D01*
X3156712Y-1268882D01*
X3154832Y-1274368D01*
X3154121Y-1280668D01*
X3154121Y-1309522D01*
X3154832Y-1315821D01*
X3155696Y-1320088D01*
X3154832Y-1324356D01*
X3154121Y-1330655D01*
X3154121Y-1359509D01*
X3154832Y-1365808D01*
X3155696Y-1370076D01*
X3154832Y-1374343D01*
X3154121Y-1380642D01*
X3154121Y-1409547D01*
X3154832Y-1415846D01*
X3155696Y-1420114D01*
X3154832Y-1424330D01*
X3154121Y-1430629D01*
X3154121Y-1459534D01*
X3154832Y-1465834D01*
X3155696Y-1470101D01*
X3154832Y-1474368D01*
X3154121Y-1480667D01*
X3154121Y-1509522D01*
X3154832Y-1515821D01*
X3155696Y-1520088D01*
X3154832Y-1524355D01*
X3154121Y-1531213D01*
X3162452Y-1531213D01*
X3165246Y-1531620D01*
X3168802Y-1533398D01*
X3174847Y-1535480D01*
X3178403Y-1537665D01*
X3180842Y-1541018D01*
X3181654Y-1545082D01*
X3180842Y-1549146D01*
X3178403Y-1552549D01*
X3174847Y-1554683D01*
X3168802Y-1556816D01*
X3165297Y-1558544D01*
X3162503Y-1558950D01*
X3154121Y-1558950D01*
X3154832Y-1565808D01*
X3155696Y-1570075D01*
X3154832Y-1574342D01*
X3154121Y-1580642D01*
X3154121Y-1596390D01*
X3153410Y-1600047D01*
X3151479Y-1603197D01*
X3148482Y-1605432D01*
X3144926Y-1606499D01*
X3137458Y-1607210D01*
X3130245Y-1609394D01*
X3123539Y-1612950D01*
X3117342Y-1618081D01*
X3053029Y-1682343D01*
X3047949Y-1688592D01*
X3044393Y-1695246D01*
X3042208Y-1702511D01*
X3041396Y-1710537D01*
X3041396Y-3239516D01*
X3042208Y-3247542D01*
X3044393Y-3254756D01*
X3047949Y-3261410D01*
X3053029Y-3267659D01*
X3107334Y-3321964D01*
X3113582Y-3327095D01*
X3120237Y-3330651D01*
X3127502Y-3332835D01*
X3135477Y-3333648D01*
X3143961Y-3333648D01*
X3147822Y-3334410D01*
X3151124Y-3336594D01*
X3153308Y-3339896D01*
X3154121Y-3343808D01*
X3154121Y-3359505D01*
X3154832Y-3365804D01*
X3155696Y-3370072D01*
X3154832Y-3374339D01*
X3154121Y-3381248D01*
X3162503Y-3381248D01*
X3165297Y-3381654D01*
X3168802Y-3383381D01*
X3174847Y-3385464D01*
X3178403Y-3387648D01*
X3180842Y-3391001D01*
X3181654Y-3395065D01*
X3180842Y-3399129D01*
X3178403Y-3402533D01*
X3174847Y-3404666D01*
X3168802Y-3406800D01*
X3165246Y-3408527D01*
X3162452Y-3408934D01*
X3154121Y-3408934D01*
X3154832Y-3415842D01*
X3155696Y-3420110D01*
X3154832Y-3424326D01*
X3154121Y-3430625D01*
X3154121Y-3459530D01*
X3154832Y-3465829D01*
X3155696Y-3470097D01*
X3154832Y-3474364D01*
X3154121Y-3480663D01*
X3154121Y-3509518D01*
X3154832Y-3515817D01*
X3155696Y-3520084D01*
X3154832Y-3524351D01*
X3154121Y-3530650D01*
X3154121Y-3559505D01*
X3154832Y-3565804D01*
X3155696Y-3570071D01*
X3154832Y-3574338D01*
X3154121Y-3580637D01*
X3154121Y-3609543D01*
X3154832Y-3615842D01*
X3155696Y-3620109D01*
X3154832Y-3624326D01*
X3154121Y-3631234D01*
X3162452Y-3631234D01*
X3165246Y-3631641D01*
X3168802Y-3633368D01*
X3174238Y-3635298D01*
X3180588Y-3636010D01*
X3299358Y-3636010D01*
X3306165Y-3635146D01*
X3311194Y-3633368D01*
X3314750Y-3631641D01*
X3317544Y-3631234D01*
X3325926Y-3631234D01*
X3325164Y-3624326D01*
X3324301Y-3620109D01*
X3325164Y-3615842D01*
X3325926Y-3609543D01*
X3325926Y-3580637D01*
X3325164Y-3574338D01*
X3324301Y-3570071D01*
X3325164Y-3565804D01*
X3325926Y-3559505D01*
X3325926Y-3530650D01*
X3325164Y-3524351D01*
X3324301Y-3520084D01*
X3325164Y-3515817D01*
X3325926Y-3509518D01*
X3325926Y-3480663D01*
X3325164Y-3474364D01*
X3324301Y-3470097D01*
X3325164Y-3465829D01*
X3325926Y-3459530D01*
X3325926Y-3430625D01*
X3325164Y-3424326D01*
X3324301Y-3420110D01*
X3325164Y-3415842D01*
X3325926Y-3408934D01*
X3317544Y-3408934D01*
X3314750Y-3408527D01*
X3311194Y-3406800D01*
X3305149Y-3404666D01*
X3301593Y-3402533D01*
X3299155Y-3399129D01*
X3298342Y-3395065D01*
X3299155Y-3391001D01*
X3301593Y-3387648D01*
X3305149Y-3385464D01*
X3311194Y-3383381D01*
X3314700Y-3381654D01*
X3317494Y-3381248D01*
X3325926Y-3381248D01*
X3325164Y-3374339D01*
X3324301Y-3370072D01*
X3325164Y-3365804D01*
X3325926Y-3359505D01*
X3325926Y-3338779D01*
X3326688Y-3334867D01*
X3328873Y-3331616D01*
X3332175Y-3329381D01*
X3336036Y-3328619D01*
X3439769Y-3328619D01*
X3443020Y-3329178D01*
X3445967Y-3330701D01*
X3452317Y-3337204D01*
X3455873Y-3340150D01*
X3457549Y-3343097D01*
X3458108Y-3346450D01*
X3458108Y-3743096D01*
X3457346Y-3746957D01*
X3455111Y-3750259D01*
X3244545Y-3960876D01*
X3241649Y-3962908D01*
X3238246Y-3963822D01*
X3230219Y-3964533D01*
X3220720Y-3967073D01*
X3211830Y-3971188D01*
X3203752Y-3976827D01*
X3196844Y-3983786D01*
X3191205Y-3991813D01*
X3187039Y-4000754D01*
X3184499Y-4010202D01*
X3183839Y-4018127D01*
X3182924Y-4021531D01*
X3180892Y-4024426D01*
X3133242Y-4072128D01*
X3129940Y-4074363D01*
X3126079Y-4075125D01*
X3122168Y-4074363D01*
X3118866Y-4072178D01*
X3116681Y-4068876D01*
X3115919Y-4064965D01*
X3115919Y-4021429D01*
X3036366Y-4021429D01*
X3036366Y-4081170D01*
X3035554Y-4085082D01*
X3033369Y-4088333D01*
X3030067Y-4090568D01*
X3026206Y-4091330D01*
X2913786Y-4091330D01*
X2909925Y-4090568D01*
X2906623Y-4088333D01*
X2904439Y-4085082D01*
X2903626Y-4081170D01*
X2903626Y-4021429D01*
X2824073Y-4021429D01*
X2824073Y-4074515D01*
X2824683Y-4080052D01*
X2824276Y-4084269D01*
X2822194Y-4087926D01*
X2818739Y-4090466D01*
X2814624Y-4091330D01*
X2430627Y-4091330D01*
X2422601Y-4092143D01*
X2415387Y-4094327D01*
X2408682Y-4097883D01*
X2402484Y-4103014D01*
X2183282Y-4322165D01*
X2180132Y-4324299D01*
X2176424Y-4325112D01*
X2172614Y-4324502D01*
X2169363Y-4322572D01*
X2167026Y-4319524D01*
X2166010Y-4315866D01*
X2165502Y-4310227D01*
X2162962Y-4300728D01*
X2158796Y-4291838D01*
X2153158Y-4283760D01*
X2146249Y-4276852D01*
X2138172Y-4271213D01*
X2129282Y-4267047D01*
X2119782Y-4264507D01*
X2110028Y-4263644D01*
X2100224Y-4264507D01*
X2090724Y-4267047D01*
X2081834Y-4271213D01*
X2073757Y-4276852D01*
X2072182Y-4278426D01*
X2068880Y-4280611D01*
X2065020Y-4281424D01*
X1470202Y-4281424D01*
X1466342Y-4280611D01*
X1463040Y-4278426D01*
X1171498Y-3986885D01*
X1169263Y-3983583D01*
X1168501Y-3979672D01*
X1168501Y-2870352D01*
X1167688Y-2862326D01*
X1165504Y-2855112D01*
X1161948Y-2848406D01*
X1156817Y-2842209D01*
X707694Y-2393086D01*
X701497Y-2387955D01*
X694842Y-2384399D01*
X687578Y-2382215D01*
X679551Y-2381402D01*
X451104Y-2381402D01*
X447192Y-2380640D01*
X443941Y-2378405D01*
X441706Y-2375154D01*
X440943Y-2371242D01*
X440943Y-2355646D01*
X440232Y-2349347D01*
X438302Y-2343861D01*
X435254Y-2338984D01*
X431139Y-2334869D01*
X426262Y-2331821D01*
X420776Y-2329891D01*
X414477Y-2329180D01*
X285597Y-2329180D01*
X279298Y-2329891D01*
X273812Y-2331821D01*
X268935Y-2334869D01*
X264820Y-2338984D01*
X261772Y-2343861D01*
X259638Y-2349957D01*
X257505Y-2353513D01*
X254101Y-2355900D01*
X250037Y-2356764D01*
X245973Y-2355900D01*
X242570Y-2353513D01*
X240436Y-2349957D01*
X238302Y-2343861D01*
X235254Y-2338984D01*
X231140Y-2334869D01*
X226263Y-2331821D01*
X220776Y-2329891D01*
X214477Y-2329180D01*
X188874Y-2329180D01*
X188874Y-2381250D01*
X248970Y-2381250D01*
X252882Y-2382012D01*
X256133Y-2384196D01*
X258368Y-2387498D01*
X259130Y-2391410D01*
X259130Y-2448763D01*
X258368Y-2452674D01*
X256133Y-2455976D01*
X252882Y-2458161D01*
X248970Y-2458923D01*
X188874Y-2458923D01*
X188874Y-2519019D01*
X188112Y-2522931D01*
X185928Y-2526182D01*
X182626Y-2528417D01*
X178714Y-2529179D01*
X121361Y-2529179D01*
X117449Y-2528417D01*
X114147Y-2526182D01*
X111963Y-2522931D01*
X111201Y-2519019D01*
X111201Y-2458923D01*
X59131Y-2458923D01*
X59131Y-2484526D01*
X59842Y-2490825D01*
X61772Y-2496312D01*
X64820Y-2501188D01*
X68935Y-2505303D01*
X73812Y-2508351D01*
X79908Y-2510485D01*
X83464Y-2512618D01*
X85852Y-2516022D01*
X86715Y-2520086D01*
X85852Y-2524150D01*
X83464Y-2527554D01*
X79908Y-2529687D01*
X73812Y-2531821D01*
X68935Y-2534869D01*
X64820Y-2538984D01*
X61772Y-2543860D01*
X59842Y-2549347D01*
X59131Y-2555646D01*
X59131Y-2684526D01*
X59842Y-2690825D01*
X61772Y-2696311D01*
X64820Y-2701188D01*
X68935Y-2705303D01*
X73812Y-2708351D01*
X79298Y-2710281D01*
X85598Y-2710992D01*
X101295Y-2710992D01*
X104952Y-2711653D01*
X108153Y-2713634D01*
X110388Y-2716580D01*
X111404Y-2720136D01*
X112166Y-2727502D01*
X114350Y-2734716D01*
X117906Y-2741422D01*
X123037Y-2747619D01*
X212344Y-2836976D01*
X218592Y-2842107D01*
X225247Y-2845663D01*
X232460Y-2847848D01*
X240487Y-2848660D01*
X698601Y-2848660D01*
X700938Y-2848813D01*
X704342Y-2849727D01*
X707237Y-2851708D01*
X840740Y-2984601D01*
X842924Y-2987802D01*
X843737Y-2991612D01*
X843026Y-2995422D01*
X840994Y-2998724D01*
X837844Y-3001010D01*
X834034Y-3001924D01*
X830224Y-3001365D01*
X825753Y-2999841D01*
X819454Y-2999130D01*
X806348Y-2999130D01*
X806348Y-3041142D01*
X843940Y-3041142D01*
X847801Y-3041954D01*
X851103Y-3044139D01*
X853287Y-3047441D01*
X854100Y-3051302D01*
X854100Y-3088690D01*
X853287Y-3092602D01*
X851103Y-3095904D01*
X847801Y-3098088D01*
X843940Y-3098850D01*
X806348Y-3098850D01*
X806348Y-3140913D01*
X819454Y-3140913D01*
X825753Y-3140202D01*
X831240Y-3138322D01*
X836117Y-3135223D01*
X840232Y-3131108D01*
X841400Y-3129229D01*
X844194Y-3126282D01*
X847953Y-3124708D01*
X852017Y-3124708D01*
X855776Y-3126282D01*
X858621Y-3129229D01*
X859790Y-3131108D01*
X863853Y-3135223D01*
X868781Y-3138322D01*
X874217Y-3140202D01*
X882243Y-3140913D01*
X886155Y-3141675D01*
X889406Y-3143910D01*
X891641Y-3147212D01*
X892403Y-3151073D01*
X892403Y-4084015D01*
X891641Y-4087876D01*
X889406Y-4091178D01*
X886815Y-4093768D01*
X881176Y-4101846D01*
X877062Y-4110736D01*
X874521Y-4120235D01*
X873658Y-4130040D01*
X874521Y-4139793D01*
X877062Y-4149293D01*
X881176Y-4158183D01*
X886815Y-4166260D01*
X893775Y-4173169D01*
X901801Y-4178808D01*
X910742Y-4182973D01*
X920191Y-4185513D01*
X929386Y-4186326D01*
X932789Y-4187240D01*
X935685Y-4189272D01*
X1342745Y-4597044D01*
X1348994Y-4602175D01*
X1355648Y-4605731D01*
X1362862Y-4607915D01*
X1370888Y-4608728D01*
X1969719Y-4608728D01*
X1973580Y-4609490D01*
X1976882Y-4611725D01*
X2093366Y-4728210D01*
X2099614Y-4733340D01*
X2106269Y-4736896D01*
X2113534Y-4739081D01*
X2121560Y-4739843D01*
X2334260Y-4739843D01*
X2338171Y-4740656D01*
X2341473Y-4742840D01*
X2343658Y-4746142D01*
X2344420Y-4750003D01*
X2344420Y-4766818D01*
X2345283Y-4776165D01*
X2347722Y-4784750D01*
X2351735Y-4792726D01*
X2357069Y-4799838D01*
X2363673Y-4805832D01*
X2371242Y-4810506D01*
X2379522Y-4813757D01*
X2388311Y-4815382D01*
X2397201Y-4815382D01*
X2405938Y-4813757D01*
X2414270Y-4810506D01*
X2421839Y-4805832D01*
X2425903Y-4802124D01*
X2429103Y-4800142D01*
X2432761Y-4799482D01*
X2436418Y-4800142D01*
X2439619Y-4802124D01*
X2443683Y-4805832D01*
X2451252Y-4810506D01*
X2455214Y-4812030D01*
X2455214Y-4751832D01*
X2451201Y-4751832D01*
X2447340Y-4751070D01*
X2444038Y-4748834D01*
X2441854Y-4745583D01*
X2441041Y-4741672D01*
X2441041Y-4660849D01*
X2441854Y-4656937D01*
X2444038Y-4653686D01*
X2447340Y-4651451D01*
X2451201Y-4650689D01*
X2455214Y-4650689D01*
X2455214Y-4620869D01*
X2455976Y-4617008D01*
X2458161Y-4613706D01*
X2460447Y-4611420D01*
X2463546Y-4606544D01*
X2465425Y-4601057D01*
X2466136Y-4594758D01*
X2466136Y-4525873D01*
X2465425Y-4519574D01*
X2463546Y-4514088D01*
X2460447Y-4509211D01*
X2458161Y-4506925D01*
X2455976Y-4503623D01*
X2455214Y-4499711D01*
X2455214Y-4469942D01*
X2451201Y-4469942D01*
X2447340Y-4469180D01*
X2444038Y-4466945D01*
X2441854Y-4463643D01*
X2441041Y-4459782D01*
X2441041Y-4378960D01*
X2441854Y-4375048D01*
X2444038Y-4371746D01*
X2447340Y-4369562D01*
X2451201Y-4368800D01*
X2455214Y-4368800D01*
X2455214Y-4318660D01*
X2455976Y-4314748D01*
X2458161Y-4311497D01*
X2461463Y-4309262D01*
X2465374Y-4308500D01*
X2480157Y-4308500D01*
X2484018Y-4309262D01*
X2487320Y-4311497D01*
X2489504Y-4314748D01*
X2490317Y-4318660D01*
X2490317Y-4368800D01*
X2494280Y-4368800D01*
X2498191Y-4369562D01*
X2501442Y-4371746D01*
X2503678Y-4375048D01*
X2504440Y-4378960D01*
X2504440Y-4459782D01*
X2503678Y-4463643D01*
X2501442Y-4466945D01*
X2498191Y-4469180D01*
X2494280Y-4469942D01*
X2490317Y-4469942D01*
X2490317Y-4530140D01*
X2494280Y-4528616D01*
X2501849Y-4523943D01*
X2505913Y-4520234D01*
X2509062Y-4518253D01*
X2512771Y-4517542D01*
X2516428Y-4518253D01*
X2519578Y-4520234D01*
X2523642Y-4523943D01*
X2531262Y-4528616D01*
X2539542Y-4531817D01*
X2548280Y-4533493D01*
X2557221Y-4533493D01*
X2565958Y-4531817D01*
X2574239Y-4528616D01*
X2581859Y-4523943D01*
X2585923Y-4520234D01*
X2589072Y-4518253D01*
X2592730Y-4517542D01*
X2596438Y-4518253D01*
X2599588Y-4520234D01*
X2603652Y-4523943D01*
X2611221Y-4528616D01*
X2619552Y-4531817D01*
X2628290Y-4533493D01*
X2637180Y-4533493D01*
X2645968Y-4531817D01*
X2654249Y-4528616D01*
X2661818Y-4523943D01*
X2665882Y-4520234D01*
X2669082Y-4518253D01*
X2672740Y-4517542D01*
X2676398Y-4518253D01*
X2679598Y-4520234D01*
X2683662Y-4523943D01*
X2691231Y-4528616D01*
X2699562Y-4531817D01*
X2713075Y-4534255D01*
X2716377Y-4536440D01*
X2718562Y-4539742D01*
X2719324Y-4543653D01*
X2719324Y-4594758D01*
X2720035Y-4601057D01*
X2721965Y-4606544D01*
X2725064Y-4611420D01*
X2727299Y-4613706D01*
X2729534Y-4617008D01*
X2730296Y-4620869D01*
X2730296Y-4650689D01*
X2734259Y-4650689D01*
X2738170Y-4651451D01*
X2741472Y-4653686D01*
X2743657Y-4656937D01*
X2744419Y-4660849D01*
X2744419Y-4741672D01*
X2743657Y-4745583D01*
X2741472Y-4748834D01*
X2738170Y-4751070D01*
X2734259Y-4751832D01*
X2730296Y-4751832D01*
X2730296Y-4812030D01*
X2734259Y-4810506D01*
X2741828Y-4805832D01*
X2745892Y-4802124D01*
X2749092Y-4800142D01*
X2752750Y-4799482D01*
X2756408Y-4800142D01*
X2759608Y-4802124D01*
X2763672Y-4805832D01*
X2771241Y-4810506D01*
X2779522Y-4813757D01*
X2788310Y-4815382D01*
X2797200Y-4815382D01*
X2805938Y-4813757D01*
X2814269Y-4810506D01*
X2821838Y-4805832D01*
X2828442Y-4799838D01*
X2833827Y-4792675D01*
X2836062Y-4790490D01*
X2838856Y-4789119D01*
X2841904Y-4788662D01*
X2937408Y-4788662D01*
X2940659Y-4789170D01*
X2943555Y-4790694D01*
X2949905Y-4797145D01*
X2954832Y-4800244D01*
X2960065Y-4802073D01*
X2963621Y-4804206D01*
X2966008Y-4807610D01*
X2966872Y-4811674D01*
X2966872Y-4835093D01*
X2967685Y-4843119D01*
X2969869Y-4850333D01*
X2973425Y-4857038D01*
X2978556Y-4863236D01*
X3002178Y-4886858D01*
X3008376Y-4891989D01*
X3015081Y-4895545D01*
X3022295Y-4897729D01*
X3030321Y-4898542D01*
X3398875Y-4898542D01*
X3406648Y-4897780D01*
X3413912Y-4895646D01*
X3420618Y-4892141D01*
X3426866Y-4887061D01*
X3476548Y-4837988D01*
X3478987Y-4836210D01*
X3486962Y-4832045D01*
X3493160Y-4826965D01*
X3621481Y-4698644D01*
X3624376Y-4696612D01*
X3629812Y-4695494D01*
X3638346Y-4693208D01*
X3640988Y-4692904D01*
X3664458Y-4692904D01*
X3670808Y-4692142D01*
X3676700Y-4690110D01*
X3680053Y-4689551D01*
X3683406Y-4690110D01*
X3689299Y-4692142D01*
X3695649Y-4692904D01*
X3708450Y-4692904D01*
X3708450Y-4659833D01*
X3701135Y-4659833D01*
X3697224Y-4659071D01*
X3693922Y-4656836D01*
X3691737Y-4653534D01*
X3690975Y-4649673D01*
X3690975Y-4630267D01*
X3691737Y-4626406D01*
X3693922Y-4623104D01*
X3697224Y-4620869D01*
X3701135Y-4620107D01*
X3708450Y-4620107D01*
X3708450Y-4587087D01*
X3695649Y-4587087D01*
X3689299Y-4587798D01*
X3683406Y-4589830D01*
X3680053Y-4590389D01*
X3676700Y-4589830D01*
X3670909Y-4587798D01*
X3667353Y-4585665D01*
X3664965Y-4582261D01*
X3664102Y-4578197D01*
X3664102Y-4284726D01*
X3664864Y-4280814D01*
X3667099Y-4277563D01*
X3790238Y-4154373D01*
X3795369Y-4148175D01*
X3798925Y-4141470D01*
X3801110Y-4134256D01*
X3801922Y-4126229D01*
X3801922Y-3746449D01*
X3802481Y-3743096D01*
X3804107Y-3740150D01*
X3807663Y-3737203D01*
X3811778Y-3733139D01*
X3814876Y-3728212D01*
X3816756Y-3722776D01*
X3817467Y-3716426D01*
X3817467Y-3663594D01*
X3816756Y-3657244D01*
X3814876Y-3651808D01*
X3811778Y-3646881D01*
X3807663Y-3642817D01*
X3802786Y-3639718D01*
X3797300Y-3637838D01*
X3791000Y-3637127D01*
X3738778Y-3637127D01*
X3734866Y-3636314D01*
X3731564Y-3634130D01*
X3729380Y-3630828D01*
X3728618Y-3626967D01*
X3728618Y-3439312D01*
X3729380Y-3435400D01*
X3731564Y-3432098D01*
X3789578Y-3374136D01*
X3792880Y-3371900D01*
X3796792Y-3371138D01*
X4154068Y-3371138D01*
X4157726Y-3371799D01*
X4160875Y-3373780D01*
X4163161Y-3376726D01*
X4164177Y-3380333D01*
X4164990Y-3388461D01*
X4166463Y-3392779D01*
X4167073Y-3396132D01*
X4166463Y-3399485D01*
X4164939Y-3403854D01*
X4164228Y-3410204D01*
X4164228Y-3509060D01*
X4164939Y-3515360D01*
X4166463Y-3519779D01*
X4167073Y-3523132D01*
X4166463Y-3526485D01*
X4164939Y-3530854D01*
X4164228Y-3537204D01*
X4164228Y-3636060D01*
X4164939Y-3642360D01*
X4166463Y-3646779D01*
X4167073Y-3650132D01*
X4166463Y-3653485D01*
X4164939Y-3657854D01*
X4164228Y-3664204D01*
X4164228Y-3763060D01*
X4164939Y-3769360D01*
X4166463Y-3773779D01*
X4167073Y-3777132D01*
X4166463Y-3780485D01*
X4164939Y-3784854D01*
X4164228Y-3791204D01*
X4164228Y-3890060D01*
X4164939Y-3896360D01*
X4166463Y-3900779D01*
X4167073Y-3904132D01*
X4166463Y-3907485D01*
X4164939Y-3911854D01*
X4164228Y-3918204D01*
X4164228Y-4017060D01*
X4164939Y-4023360D01*
X4166463Y-4027779D01*
X4167073Y-4031132D01*
X4166463Y-4034485D01*
X4164939Y-4038854D01*
X4164228Y-4045204D01*
X4164228Y-4144060D01*
X4164939Y-4150360D01*
X4166463Y-4154779D01*
X4167073Y-4158132D01*
X4166463Y-4161485D01*
X4164939Y-4165854D01*
X4164228Y-4172204D01*
X4164228Y-4271060D01*
X4164939Y-4277360D01*
X4166463Y-4281779D01*
X4167073Y-4285132D01*
X4166463Y-4288485D01*
X4164939Y-4292854D01*
X4164228Y-4299204D01*
X4164228Y-4398060D01*
X4164939Y-4404360D01*
X4166870Y-4409846D01*
X4169918Y-4414723D01*
X4172864Y-4417669D01*
X4175048Y-4420971D01*
X4175861Y-4424832D01*
X4175048Y-4428744D01*
X4172864Y-4432046D01*
X4169562Y-4434230D01*
X4165701Y-4434992D01*
X4118762Y-4434992D01*
X4114901Y-4434230D01*
X4111599Y-4432046D01*
X4109364Y-4428744D01*
X4108602Y-4424832D01*
X4108602Y-4395012D01*
X4109364Y-4391101D01*
X4111599Y-4387850D01*
X4113174Y-4386224D01*
X4118813Y-4378198D01*
X4122978Y-4369308D01*
X4125518Y-4359808D01*
X4126382Y-4350004D01*
X4125518Y-4340199D01*
X4122978Y-4330700D01*
X4118813Y-4321810D01*
X4113174Y-4313783D01*
X4106214Y-4306824D01*
X4098188Y-4301185D01*
X4089298Y-4297019D01*
X4079798Y-4294479D01*
X4069994Y-4293616D01*
X4060190Y-4294479D01*
X4050690Y-4297019D01*
X4043070Y-4300575D01*
X4039108Y-4301540D01*
X4035145Y-4300880D01*
X4031691Y-4298696D01*
X4029405Y-4295343D01*
X4028592Y-4291380D01*
X4028592Y-4213809D01*
X4029151Y-4210608D01*
X4030624Y-4207713D01*
X4032961Y-4205478D01*
X4036212Y-4203192D01*
X4043172Y-4196232D01*
X4048810Y-4188206D01*
X4052925Y-4179265D01*
X4055465Y-4169816D01*
X4056329Y-4160012D01*
X4055465Y-4150207D01*
X4052925Y-4140758D01*
X4048810Y-4131818D01*
X4043172Y-4123791D01*
X4036212Y-4116832D01*
X4028186Y-4111193D01*
X4019245Y-4107078D01*
X4009796Y-4104538D01*
X3999992Y-4103674D01*
X3990187Y-4104538D01*
X3980738Y-4107078D01*
X3971798Y-4111193D01*
X3963771Y-4116832D01*
X3956812Y-4123791D01*
X3951173Y-4131818D01*
X3947058Y-4140758D01*
X3944518Y-4150207D01*
X3943654Y-4160012D01*
X3944518Y-4169816D01*
X3947058Y-4179265D01*
X3950462Y-4186580D01*
X3951376Y-4190898D01*
X3951376Y-4559808D01*
X3950614Y-4563719D01*
X3948429Y-4566970D01*
X3756964Y-4758436D01*
X3753662Y-4760620D01*
X3749801Y-4761433D01*
X3704996Y-4761433D01*
X3701135Y-4760620D01*
X3697833Y-4758436D01*
X3696258Y-4756861D01*
X3688181Y-4751222D01*
X3679291Y-4747056D01*
X3669792Y-4744516D01*
X3659987Y-4743653D01*
X3650234Y-4744516D01*
X3640734Y-4747056D01*
X3631844Y-4751222D01*
X3623767Y-4756861D01*
X3616858Y-4763770D01*
X3611219Y-4771847D01*
X3607054Y-4780737D01*
X3604514Y-4790236D01*
X3603650Y-4800041D01*
X3604514Y-4809794D01*
X3607054Y-4819294D01*
X3611219Y-4828184D01*
X3616858Y-4836261D01*
X3623767Y-4843170D01*
X3628796Y-4846675D01*
X3631488Y-4849469D01*
X3632962Y-4853076D01*
X3632962Y-4856937D01*
X3631488Y-4860544D01*
X3628796Y-4863338D01*
X3623767Y-4866843D01*
X3616807Y-4873802D01*
X3611219Y-4881829D01*
X3607054Y-4890719D01*
X3604514Y-4900218D01*
X3603650Y-4910023D01*
X3604514Y-4919827D01*
X3607054Y-4929327D01*
X3611219Y-4938217D01*
X3616807Y-4946243D01*
X3623767Y-4953203D01*
X3631844Y-4958842D01*
X3640734Y-4963007D01*
X3650234Y-4965547D01*
X3659987Y-4966411D01*
X3669792Y-4965547D01*
X3679291Y-4963007D01*
X3688181Y-4958842D01*
X3696258Y-4953203D01*
X3697833Y-4951628D01*
X3701135Y-4949393D01*
X3705047Y-4948631D01*
X3779469Y-4948631D01*
X3787495Y-4947818D01*
X3794760Y-4945634D01*
X3801414Y-4942078D01*
X3807663Y-4936947D01*
X4087672Y-4656937D01*
X4090974Y-4654753D01*
X4094835Y-4653991D01*
X4098747Y-4654753D01*
X4102049Y-4656937D01*
X4104233Y-4660239D01*
X4104995Y-4664151D01*
X4104995Y-4983937D01*
X4104233Y-4987848D01*
X4102049Y-4991150D01*
X4098747Y-4993335D01*
X4094835Y-4994097D01*
G37*

%LPC*%
G36*
X2480005Y-4956403D02*
G01*
X2489809Y-4955540D01*
X2499309Y-4953000D01*
X2508199Y-4948834D01*
X2516225Y-4943195D01*
X2523185Y-4936236D01*
X2528824Y-4928209D01*
X2532989Y-4919319D01*
X2535529Y-4909820D01*
X2536393Y-4900015D01*
X2535529Y-4890211D01*
X2532989Y-4880711D01*
X2528824Y-4871821D01*
X2523185Y-4863795D01*
X2516225Y-4856835D01*
X2508199Y-4851196D01*
X2499309Y-4847031D01*
X2489809Y-4844491D01*
X2480005Y-4843627D01*
X2470200Y-4844491D01*
X2460701Y-4847031D01*
X2451811Y-4851196D01*
X2443784Y-4856835D01*
X2442108Y-4858461D01*
X2438806Y-4860696D01*
X2434945Y-4861458D01*
X1060196Y-4861458D01*
X1056284Y-4860696D01*
X1052982Y-4858461D01*
X648258Y-4453483D01*
X646023Y-4450181D01*
X645261Y-4446320D01*
X645261Y-4371644D01*
X645972Y-4367834D01*
X648055Y-4364634D01*
X651205Y-4362399D01*
X654964Y-4361484D01*
X659231Y-4362196D01*
X665581Y-4362907D01*
X672795Y-4362907D01*
X672795Y-4329430D01*
X669696Y-4327906D01*
X667308Y-4325416D01*
X665886Y-4322267D01*
X665581Y-4318812D01*
X666343Y-4310024D01*
X665581Y-4301185D01*
X665886Y-4297781D01*
X667308Y-4294632D01*
X669696Y-4292142D01*
X672795Y-4290568D01*
X672795Y-4257090D01*
X665581Y-4257090D01*
X659231Y-4257802D01*
X653338Y-4259884D01*
X649986Y-4260443D01*
X646633Y-4259884D01*
X640740Y-4257802D01*
X634441Y-4257090D01*
X628091Y-4256735D01*
X619810Y-4254550D01*
X610006Y-4253687D01*
X600202Y-4254550D01*
X591921Y-4256735D01*
X589280Y-4257090D01*
X579018Y-4257090D01*
X572668Y-4257802D01*
X567232Y-4259732D01*
X562305Y-4262831D01*
X558241Y-4266895D01*
X555142Y-4271822D01*
X553262Y-4277258D01*
X552551Y-4283608D01*
X552551Y-4336440D01*
X553262Y-4342790D01*
X555142Y-4348226D01*
X558241Y-4353102D01*
X562305Y-4357217D01*
X565810Y-4360113D01*
X567486Y-4363059D01*
X568045Y-4366412D01*
X568045Y-4465980D01*
X568858Y-4474006D01*
X571042Y-4481220D01*
X574598Y-4487926D01*
X579678Y-4494123D01*
X1012291Y-4926990D01*
X1018540Y-4932121D01*
X1025194Y-4935677D01*
X1032459Y-4937861D01*
X1040485Y-4938674D01*
X2435047Y-4938674D01*
X2438908Y-4939436D01*
X2442210Y-4941671D01*
X2443784Y-4943195D01*
X2451811Y-4948834D01*
X2460701Y-4953000D01*
X2470200Y-4955540D01*
G37*
G36*
X343865Y-4947462D02*
G01*
X347624Y-4945583D01*
X364134Y-4935372D01*
X379526Y-4923536D01*
X393750Y-4910328D01*
X406654Y-4895799D01*
X418033Y-4880102D01*
X427583Y-4863846D01*
X343865Y-4863846D01*
G37*
G36*
X7283856Y-4947462D02*
G01*
X7287666Y-4945583D01*
X7304125Y-4935372D01*
X7319568Y-4923536D01*
X7333742Y-4910328D01*
X7346645Y-4895799D01*
X7358024Y-4880102D01*
X7367574Y-4863846D01*
X7283856Y-4863846D01*
G37*
G36*
X156159Y-4947412D02*
G01*
X156159Y-4863846D01*
X72644Y-4863846D01*
X76809Y-4871872D01*
X87477Y-4888077D01*
X99618Y-4903216D01*
X113182Y-4917135D01*
X128016Y-4929632D01*
X144018Y-4940655D01*
G37*
G36*
X7096150Y-4947412D02*
G01*
X7096150Y-4863846D01*
X7012635Y-4863846D01*
X7016851Y-4871872D01*
X7027468Y-4888077D01*
X7039609Y-4903216D01*
X7053173Y-4917135D01*
X7068007Y-4929632D01*
X7084009Y-4940655D01*
G37*
G36*
X5764936Y-4899101D02*
G01*
X5778144Y-4899101D01*
X5778144Y-4857953D01*
X5738469Y-4857953D01*
X5738469Y-4872634D01*
X5739180Y-4878984D01*
X5741060Y-4884420D01*
X5744159Y-4889347D01*
X5748223Y-4893411D01*
X5753150Y-4896510D01*
X5758586Y-4898390D01*
G37*
G36*
X2548280Y-4815382D02*
G01*
X2557221Y-4815382D01*
X2565958Y-4813757D01*
X2574239Y-4810506D01*
X2581859Y-4805832D01*
X2585923Y-4802124D01*
X2589072Y-4800142D01*
X2592730Y-4799482D01*
X2596438Y-4800142D01*
X2599588Y-4802124D01*
X2603652Y-4805832D01*
X2611221Y-4810506D01*
X2615184Y-4812030D01*
X2615184Y-4751832D01*
X2611221Y-4751832D01*
X2607310Y-4751070D01*
X2604058Y-4748834D01*
X2601823Y-4745583D01*
X2601061Y-4741672D01*
X2601061Y-4660849D01*
X2601823Y-4656937D01*
X2604058Y-4653686D01*
X2607310Y-4651451D01*
X2611221Y-4650689D01*
X2615184Y-4650689D01*
X2615184Y-4590491D01*
X2611221Y-4592015D01*
X2603652Y-4596688D01*
X2599588Y-4600397D01*
X2596438Y-4602378D01*
X2592730Y-4603038D01*
X2589072Y-4602378D01*
X2585923Y-4600397D01*
X2581859Y-4596688D01*
X2574239Y-4592015D01*
X2565958Y-4588764D01*
X2557221Y-4587138D01*
X2548280Y-4587138D01*
X2539542Y-4588764D01*
X2531262Y-4592015D01*
X2523642Y-4596688D01*
X2519578Y-4600397D01*
X2516428Y-4602378D01*
X2512771Y-4603038D01*
X2509062Y-4602378D01*
X2505913Y-4600397D01*
X2501849Y-4596688D01*
X2494280Y-4592015D01*
X2490317Y-4590491D01*
X2490317Y-4650689D01*
X2494280Y-4650689D01*
X2498191Y-4651451D01*
X2501442Y-4653686D01*
X2503678Y-4656937D01*
X2504440Y-4660849D01*
X2504440Y-4741672D01*
X2503678Y-4745583D01*
X2501442Y-4748834D01*
X2498191Y-4751070D01*
X2494280Y-4751832D01*
X2490317Y-4751832D01*
X2490317Y-4812030D01*
X2494280Y-4810506D01*
X2501849Y-4805832D01*
X2505913Y-4802124D01*
X2509062Y-4800142D01*
X2512771Y-4799482D01*
X2516428Y-4800142D01*
X2519578Y-4802124D01*
X2523642Y-4805832D01*
X2531262Y-4810506D01*
X2539542Y-4813757D01*
G37*
G36*
X2650286Y-4812030D02*
G01*
X2654249Y-4810506D01*
X2661818Y-4805832D01*
X2665882Y-4802124D01*
X2669082Y-4800142D01*
X2672740Y-4799482D01*
X2676398Y-4800142D01*
X2679598Y-4802124D01*
X2683662Y-4805832D01*
X2691231Y-4810506D01*
X2695194Y-4812030D01*
X2695194Y-4751832D01*
X2650286Y-4751832D01*
G37*
G36*
X5738469Y-4802073D02*
G01*
X5778144Y-4802073D01*
X5778144Y-4760925D01*
X5764936Y-4760925D01*
X5758586Y-4761636D01*
X5753150Y-4763516D01*
X5748223Y-4766614D01*
X5744159Y-4770678D01*
X5741060Y-4775606D01*
X5739180Y-4781042D01*
X5738469Y-4787392D01*
G37*
G36*
X3760673Y-4692904D02*
G01*
X3773474Y-4692904D01*
X3779824Y-4692142D01*
X3785260Y-4690262D01*
X3790187Y-4687163D01*
X3794251Y-4683099D01*
X3797350Y-4678172D01*
X3799281Y-4672736D01*
X3799992Y-4666386D01*
X3799992Y-4659833D01*
X3760673Y-4659833D01*
G37*
G36*
X72644Y-4676140D02*
G01*
X156159Y-4676140D01*
X156159Y-4592624D01*
X144018Y-4599381D01*
X128016Y-4610404D01*
X113182Y-4622901D01*
X99618Y-4636770D01*
X87477Y-4651908D01*
X76809Y-4668164D01*
G37*
G36*
X7012635Y-4676140D02*
G01*
X7096150Y-4676140D01*
X7096150Y-4592624D01*
X7084009Y-4599381D01*
X7068007Y-4610404D01*
X7053173Y-4622901D01*
X7039609Y-4636770D01*
X7027468Y-4651908D01*
X7016851Y-4668164D01*
G37*
G36*
X343865Y-4676140D02*
G01*
X427583Y-4676140D01*
X418033Y-4659934D01*
X406654Y-4644237D01*
X393750Y-4629708D01*
X379526Y-4616450D01*
X364134Y-4604664D01*
X347624Y-4594453D01*
X343865Y-4592574D01*
G37*
G36*
X7283856Y-4676140D02*
G01*
X7367574Y-4676140D01*
X7358024Y-4659934D01*
X7346645Y-4644237D01*
X7333742Y-4629708D01*
X7319568Y-4616450D01*
X7304125Y-4604664D01*
X7287666Y-4594453D01*
X7283856Y-4592574D01*
G37*
G36*
X2650286Y-4650689D02*
G01*
X2695194Y-4650689D01*
X2695194Y-4590491D01*
X2691231Y-4592015D01*
X2683662Y-4596688D01*
X2679598Y-4600397D01*
X2676398Y-4602378D01*
X2672740Y-4603038D01*
X2669082Y-4602378D01*
X2665882Y-4600397D01*
X2661818Y-4596688D01*
X2654249Y-4592015D01*
X2650286Y-4590491D01*
G37*
G36*
X3760673Y-4620107D02*
G01*
X3799992Y-4620107D01*
X3799992Y-4613554D01*
X3799281Y-4607204D01*
X3797350Y-4601768D01*
X3794251Y-4596841D01*
X3790187Y-4592777D01*
X3785260Y-4589678D01*
X3779824Y-4587798D01*
X3773474Y-4587087D01*
X3760673Y-4587087D01*
G37*
G36*
X713790Y-4362907D02*
G01*
X721004Y-4362907D01*
X727303Y-4362196D01*
X732790Y-4360316D01*
X737666Y-4357217D01*
X741781Y-4353102D01*
X744829Y-4348226D01*
X746760Y-4342790D01*
X747471Y-4336440D01*
X747471Y-4329887D01*
X713790Y-4329887D01*
G37*
G36*
X713790Y-4290161D02*
G01*
X747471Y-4290161D01*
X747471Y-4283608D01*
X746760Y-4277258D01*
X744829Y-4271822D01*
X741781Y-4266895D01*
X737666Y-4262831D01*
X732790Y-4259732D01*
X727303Y-4257802D01*
X721004Y-4257090D01*
X713790Y-4257090D01*
G37*
G36*
X4881473Y-4222648D02*
G01*
X4891887Y-4222648D01*
X4891887Y-4186834D01*
X4845151Y-4186834D01*
X4841240Y-4186072D01*
X4837988Y-4183837D01*
X4835753Y-4180586D01*
X4834991Y-4176674D01*
X4834991Y-4162450D01*
X4822748Y-4174693D01*
X4865014Y-4216908D01*
X4869992Y-4220006D01*
X4875733Y-4222038D01*
G37*
G36*
X4937607Y-4222648D02*
G01*
X4947716Y-4222648D01*
X4954016Y-4221937D01*
X4959502Y-4220006D01*
X4964480Y-4216908D01*
X5015128Y-4166311D01*
X4996230Y-4147413D01*
X4994402Y-4149242D01*
X4994503Y-4176674D01*
X4993741Y-4180586D01*
X4991506Y-4183837D01*
X4988255Y-4186072D01*
X4984343Y-4186834D01*
X4937607Y-4186834D01*
G37*
G36*
X4723942Y-4075887D02*
G01*
X4782667Y-4017162D01*
X4723942Y-3958437D01*
X4683963Y-3998417D01*
X4680000Y-4003395D01*
X4677460Y-4008628D01*
X4676190Y-4014266D01*
X4676190Y-4020058D01*
X4677460Y-4025696D01*
X4680000Y-4030929D01*
X4683963Y-4035907D01*
G37*
G36*
X5130190Y-4051249D02*
G01*
X5178348Y-4003141D01*
X5182311Y-3998163D01*
X5184800Y-3992930D01*
X5186070Y-3987292D01*
X5186070Y-3981500D01*
X5184800Y-3975862D01*
X5182311Y-3970629D01*
X5178348Y-3965651D01*
X5130190Y-3917543D01*
X5063337Y-3984396D01*
G37*
G36*
X6763918Y-3905961D02*
G01*
X6844487Y-3905961D01*
X6850786Y-3905250D01*
X6856272Y-3903319D01*
X6861149Y-3900220D01*
X6865264Y-3896156D01*
X6868363Y-3891229D01*
X6870242Y-3885793D01*
X6870953Y-3879494D01*
X6870953Y-3861409D01*
X6763918Y-3861409D01*
G37*
G36*
X3036366Y-3888740D02*
G01*
X3115919Y-3888740D01*
X3115919Y-3835654D01*
X3115208Y-3829354D01*
X3113278Y-3823868D01*
X3110179Y-3818991D01*
X3106115Y-3814876D01*
X3101187Y-3811778D01*
X3095752Y-3809898D01*
X3089452Y-3809187D01*
X3036366Y-3809187D01*
G37*
G36*
X2824073Y-3888740D02*
G01*
X2903626Y-3888740D01*
X2903626Y-3809187D01*
X2850540Y-3809187D01*
X2844241Y-3809898D01*
X2838805Y-3811778D01*
X2833878Y-3814876D01*
X2829814Y-3818991D01*
X2826715Y-3823868D01*
X2824784Y-3829354D01*
X2824073Y-3835654D01*
G37*
G36*
X6763918Y-3798671D02*
G01*
X6870953Y-3798671D01*
X6870953Y-3780586D01*
X6870242Y-3774287D01*
X6868363Y-3768851D01*
X6865264Y-3763924D01*
X6861149Y-3759860D01*
X6856272Y-3756761D01*
X6850786Y-3754831D01*
X6844487Y-3754120D01*
X6763918Y-3754120D01*
G37*
G36*
X3276346Y-3785971D02*
G01*
X3299409Y-3785971D01*
X3305759Y-3785260D01*
X3311194Y-3783380D01*
X3316122Y-3780282D01*
X3320186Y-3776167D01*
X3323285Y-3771290D01*
X3325164Y-3765804D01*
X3325926Y-3758946D01*
X3276346Y-3758946D01*
G37*
G36*
X3180588Y-3785971D02*
G01*
X3203651Y-3785971D01*
X3203651Y-3758946D01*
X3154121Y-3758946D01*
X3154832Y-3765804D01*
X3156712Y-3771290D01*
X3159810Y-3776167D01*
X3163874Y-3780282D01*
X3168802Y-3783380D01*
X3174238Y-3785260D01*
G37*
G36*
X3276346Y-3731209D02*
G01*
X3325926Y-3731209D01*
X3325164Y-3724351D01*
X3324301Y-3720084D01*
X3325164Y-3715816D01*
X3325926Y-3708958D01*
X3276346Y-3708958D01*
G37*
G36*
X3154121Y-3731209D02*
G01*
X3203651Y-3731209D01*
X3203651Y-3708958D01*
X3154121Y-3708958D01*
X3154832Y-3715816D01*
X3155696Y-3720084D01*
X3154832Y-3724351D01*
G37*
G36*
X3154121Y-3681222D02*
G01*
X3203651Y-3681222D01*
X3203651Y-3658920D01*
X3154121Y-3658920D01*
X3154832Y-3665829D01*
X3155696Y-3670096D01*
X3154832Y-3674364D01*
G37*
G36*
X3276346Y-3681222D02*
G01*
X3325926Y-3681222D01*
X3325164Y-3674364D01*
X3324301Y-3670096D01*
X3325164Y-3665829D01*
X3325926Y-3658920D01*
X3276346Y-3658920D01*
G37*
G36*
X6596329Y-3480917D02*
G01*
X6609435Y-3480917D01*
X6615734Y-3480206D01*
X6621221Y-3478276D01*
X6626098Y-3475228D01*
X6630212Y-3471113D01*
X6633260Y-3466236D01*
X6635191Y-3460750D01*
X6635902Y-3454450D01*
X6635902Y-3438855D01*
X6596329Y-3438855D01*
G37*
G36*
X6596329Y-3381146D02*
G01*
X6635902Y-3381146D01*
X6635902Y-3365601D01*
X6635191Y-3359251D01*
X6633260Y-3353815D01*
X6630212Y-3348888D01*
X6626098Y-3344824D01*
X6621221Y-3341725D01*
X6615734Y-3339795D01*
X6609435Y-3339084D01*
X6596329Y-3339084D01*
G37*
G36*
X6955332Y-3190798D02*
G01*
X7044639Y-3190798D01*
X7057339Y-3189935D01*
X7069531Y-3187395D01*
X7081215Y-3183229D01*
X7092188Y-3177540D01*
X7102348Y-3170377D01*
X7111390Y-3161944D01*
X7119213Y-3152292D01*
X7125665Y-3141726D01*
X7130643Y-3130346D01*
X7133945Y-3118358D01*
X7135672Y-3106115D01*
X7135672Y-3093669D01*
X7133945Y-3081375D01*
X7130643Y-3069437D01*
X7125665Y-3058058D01*
X7119213Y-3047492D01*
X7111390Y-3037840D01*
X7102348Y-3029407D01*
X7092188Y-3022244D01*
X7081215Y-3016554D01*
X7069531Y-3012389D01*
X7057339Y-3009849D01*
X7044639Y-3008985D01*
X6955332Y-3008985D01*
X6942632Y-3009849D01*
X6930440Y-3012389D01*
X6918756Y-3016554D01*
X6907784Y-3022244D01*
X6897624Y-3029407D01*
X6888581Y-3037840D01*
X6880758Y-3047492D01*
X6874306Y-3058058D01*
X6869328Y-3069437D01*
X6866026Y-3081375D01*
X6864299Y-3093669D01*
X6864299Y-3106115D01*
X6866026Y-3118358D01*
X6869328Y-3130346D01*
X6874306Y-3141726D01*
X6880758Y-3152292D01*
X6888581Y-3161944D01*
X6897624Y-3170377D01*
X6907784Y-3177540D01*
X6918756Y-3183229D01*
X6930440Y-3187395D01*
X6942632Y-3189935D01*
G37*
G36*
X6596329Y-3170936D02*
G01*
X6609435Y-3170936D01*
X6615734Y-3170224D01*
X6621221Y-3168294D01*
X6626098Y-3165195D01*
X6630212Y-3161131D01*
X6633260Y-3156204D01*
X6635191Y-3150768D01*
X6635902Y-3144418D01*
X6635902Y-3128873D01*
X6596329Y-3128873D01*
G37*
G36*
X318871Y-3154070D02*
G01*
X330301Y-3147771D01*
X344068Y-3137966D01*
X356717Y-3126689D01*
X367995Y-3114090D01*
X377748Y-3100273D01*
X384098Y-3088843D01*
X318871Y-3088843D01*
G37*
G36*
X181152Y-3154070D02*
G01*
X181152Y-3088843D01*
X115925Y-3088843D01*
X122224Y-3100273D01*
X132029Y-3114090D01*
X143306Y-3126689D01*
X155905Y-3137966D01*
X169722Y-3147771D01*
G37*
G36*
X740562Y-3140913D02*
G01*
X753668Y-3140913D01*
X753668Y-3098850D01*
X714095Y-3098850D01*
X714095Y-3114446D01*
X714806Y-3120745D01*
X716737Y-3126232D01*
X719785Y-3131108D01*
X723900Y-3135223D01*
X728776Y-3138322D01*
X734263Y-3140202D01*
G37*
G36*
X6596329Y-3071164D02*
G01*
X6635902Y-3071164D01*
X6635902Y-3055569D01*
X6635191Y-3049270D01*
X6633260Y-3043783D01*
X6630212Y-3038906D01*
X6626098Y-3034792D01*
X6621221Y-3031744D01*
X6615734Y-3029813D01*
X6609435Y-3029102D01*
X6596329Y-3029102D01*
G37*
G36*
X714095Y-3041142D02*
G01*
X753668Y-3041142D01*
X753668Y-2999130D01*
X740562Y-2999130D01*
X734263Y-2999841D01*
X728776Y-3001721D01*
X723900Y-3004820D01*
X719785Y-3008884D01*
X716737Y-3013811D01*
X714806Y-3019247D01*
X714095Y-3025597D01*
G37*
G36*
X318871Y-2951175D02*
G01*
X384098Y-2951175D01*
X377748Y-2939745D01*
X367995Y-2925927D01*
X356717Y-2913329D01*
X344068Y-2902051D01*
X330301Y-2892247D01*
X318871Y-2885948D01*
G37*
G36*
X115925Y-2951175D02*
G01*
X181152Y-2951175D01*
X181152Y-2885948D01*
X169722Y-2892247D01*
X155905Y-2902051D01*
X143306Y-2913329D01*
X132029Y-2925927D01*
X122224Y-2939745D01*
G37*
G36*
X1650593Y-2645918D02*
G01*
X1849424Y-2645918D01*
X1855774Y-2645206D01*
X1861210Y-2643276D01*
X1866138Y-2640228D01*
X1870202Y-2636113D01*
X1873300Y-2631236D01*
X1875180Y-2625750D01*
X1875891Y-2619451D01*
X1875891Y-2420569D01*
X1875180Y-2414270D01*
X1873300Y-2408783D01*
X1870202Y-2403906D01*
X1866138Y-2399792D01*
X1861210Y-2396744D01*
X1855774Y-2394813D01*
X1849424Y-2394102D01*
X1650593Y-2394102D01*
X1644243Y-2394813D01*
X1638807Y-2396744D01*
X1633880Y-2399792D01*
X1629816Y-2403906D01*
X1626717Y-2408783D01*
X1624787Y-2414270D01*
X1624076Y-2420569D01*
X1624076Y-2619451D01*
X1624787Y-2625750D01*
X1626717Y-2631236D01*
X1629816Y-2636113D01*
X1633880Y-2640228D01*
X1638807Y-2643276D01*
X1644243Y-2645206D01*
G37*
G36*
X6591553Y-2593543D02*
G01*
X6642404Y-2593543D01*
X6642404Y-2563977D01*
X6618071Y-2563977D01*
X6611721Y-2564688D01*
X6606286Y-2566619D01*
X6601358Y-2569718D01*
X6597294Y-2573782D01*
X6594195Y-2578709D01*
X6592265Y-2584145D01*
X6591553Y-2590444D01*
G37*
G36*
X6717588Y-2593543D02*
G01*
X6768388Y-2593543D01*
X6768388Y-2590444D01*
X6767118Y-2580589D01*
X6767779Y-2577134D01*
X6769608Y-2574086D01*
X6772402Y-2571851D01*
X6776415Y-2569667D01*
X6786219Y-2562301D01*
X6794906Y-2553665D01*
X6802221Y-2543810D01*
X6808114Y-2533091D01*
X6812381Y-2521610D01*
X6814972Y-2509621D01*
X6815886Y-2497378D01*
X6814972Y-2485186D01*
X6812381Y-2473198D01*
X6808114Y-2461717D01*
X6802221Y-2450947D01*
X6794906Y-2441143D01*
X6786219Y-2432507D01*
X6776415Y-2425141D01*
X6765645Y-2419299D01*
X6754164Y-2414981D01*
X6742226Y-2412390D01*
X6729984Y-2411526D01*
X6717741Y-2412390D01*
X6705803Y-2414981D01*
X6694322Y-2419299D01*
X6683552Y-2425141D01*
X6673748Y-2432507D01*
X6665061Y-2441143D01*
X6657746Y-2450947D01*
X6651853Y-2461717D01*
X6647586Y-2473198D01*
X6644995Y-2485186D01*
X6644081Y-2497378D01*
X6644995Y-2509621D01*
X6647586Y-2521610D01*
X6651853Y-2533091D01*
X6657746Y-2543810D01*
X6665061Y-2553665D01*
X6673748Y-2562301D01*
X6683552Y-2569667D01*
X6694322Y-2575509D01*
X6705803Y-2579827D01*
X6709562Y-2580640D01*
X6712762Y-2581910D01*
X6715353Y-2584196D01*
X6717030Y-2587193D01*
X6717588Y-2590546D01*
G37*
G36*
X6955332Y-2470810D02*
G01*
X7044639Y-2470810D01*
X7057339Y-2469946D01*
X7069531Y-2467406D01*
X7081215Y-2463241D01*
X7092188Y-2457551D01*
X7102348Y-2450388D01*
X7111390Y-2441956D01*
X7119213Y-2432304D01*
X7125665Y-2421737D01*
X7130643Y-2410358D01*
X7133945Y-2398420D01*
X7135672Y-2386126D01*
X7135672Y-2373680D01*
X7133945Y-2361438D01*
X7130643Y-2349449D01*
X7125665Y-2338070D01*
X7119213Y-2327503D01*
X7111390Y-2317851D01*
X7102348Y-2309418D01*
X7092188Y-2302256D01*
X7081215Y-2296566D01*
X7069531Y-2292400D01*
X7057339Y-2289860D01*
X7044639Y-2288997D01*
X6955332Y-2288997D01*
X6942632Y-2289860D01*
X6930440Y-2292400D01*
X6918756Y-2296566D01*
X6907784Y-2302256D01*
X6897624Y-2309418D01*
X6888581Y-2317851D01*
X6880758Y-2327503D01*
X6874306Y-2338070D01*
X6869328Y-2349449D01*
X6866026Y-2361438D01*
X6864299Y-2373680D01*
X6864299Y-2386126D01*
X6866026Y-2398420D01*
X6869328Y-2410358D01*
X6874306Y-2421737D01*
X6880758Y-2432304D01*
X6888581Y-2441956D01*
X6897624Y-2450388D01*
X6907784Y-2457551D01*
X6918756Y-2463241D01*
X6930440Y-2467406D01*
X6942632Y-2469946D01*
G37*
G36*
X59131Y-2381250D02*
G01*
X111201Y-2381250D01*
X111201Y-2329180D01*
X85598Y-2329180D01*
X79298Y-2329891D01*
X73812Y-2331821D01*
X68935Y-2334869D01*
X64820Y-2338984D01*
X61772Y-2343861D01*
X59842Y-2349347D01*
X59131Y-2355646D01*
G37*
G36*
X318871Y-2154072D02*
G01*
X330301Y-2147773D01*
X344068Y-2137968D01*
X356717Y-2126691D01*
X367995Y-2114092D01*
X377748Y-2100275D01*
X384098Y-2088845D01*
X318871Y-2088845D01*
G37*
G36*
X181152Y-2154072D02*
G01*
X181152Y-2088845D01*
X115925Y-2088845D01*
X122224Y-2100275D01*
X132029Y-2114092D01*
X143306Y-2126691D01*
X155905Y-2137968D01*
X169722Y-2147773D01*
G37*
G36*
X318871Y-1951177D02*
G01*
X384098Y-1951177D01*
X377748Y-1939747D01*
X367995Y-1925929D01*
X356717Y-1913331D01*
X344068Y-1902053D01*
X330301Y-1892249D01*
X318871Y-1885950D01*
G37*
G36*
X115925Y-1951177D02*
G01*
X181152Y-1951177D01*
X181152Y-1885950D01*
X169722Y-1892249D01*
X155905Y-1902053D01*
X143306Y-1913331D01*
X132029Y-1925929D01*
X122224Y-1939747D01*
G37*
G36*
X6452565Y-1503934D02*
G01*
X6544665Y-1503934D01*
X6544665Y-1385366D01*
X6426098Y-1385366D01*
X6426098Y-1477467D01*
X6426809Y-1483766D01*
X6428689Y-1489252D01*
X6431788Y-1494129D01*
X6435902Y-1498244D01*
X6440779Y-1501292D01*
X6446266Y-1503222D01*
G37*
G36*
X6755333Y-1503934D02*
G01*
X6847433Y-1503934D01*
X6853783Y-1503222D01*
X6859219Y-1501292D01*
X6864146Y-1498244D01*
X6868210Y-1494129D01*
X6871309Y-1489252D01*
X6873189Y-1483766D01*
X6873900Y-1477467D01*
X6873900Y-1385366D01*
X6755333Y-1385366D01*
G37*
G36*
X5550001Y-1256385D02*
G01*
X5559806Y-1255522D01*
X5569254Y-1252982D01*
X5578195Y-1248816D01*
X5586222Y-1243177D01*
X5593181Y-1236268D01*
X5598820Y-1228191D01*
X5602935Y-1219301D01*
X5605475Y-1209802D01*
X5606186Y-1201775D01*
X5607100Y-1198372D01*
X5609132Y-1195476D01*
X5676950Y-1127658D01*
X5682081Y-1121410D01*
X5685637Y-1114755D01*
X5687822Y-1107541D01*
X5688634Y-1099515D01*
X5688634Y-979932D01*
X5689498Y-975868D01*
X5691886Y-972464D01*
X5695442Y-970330D01*
X5701233Y-968298D01*
X5706110Y-965200D01*
X5710224Y-961136D01*
X5711393Y-959256D01*
X5714238Y-956310D01*
X5717946Y-954684D01*
X5722061Y-954684D01*
X5725769Y-956310D01*
X5728614Y-959256D01*
X5729782Y-961136D01*
X5733897Y-965200D01*
X5738774Y-968298D01*
X5744260Y-970229D01*
X5750560Y-970940D01*
X5763666Y-970940D01*
X5763666Y-928878D01*
X5726074Y-928878D01*
X5722213Y-928065D01*
X5718911Y-925880D01*
X5716676Y-922578D01*
X5715914Y-918718D01*
X5715914Y-881329D01*
X5716676Y-877417D01*
X5718911Y-874115D01*
X5722213Y-871931D01*
X5726074Y-871169D01*
X5763666Y-871169D01*
X5763666Y-829106D01*
X5750560Y-829106D01*
X5744260Y-829818D01*
X5738774Y-831748D01*
X5733897Y-834796D01*
X5729782Y-838911D01*
X5728614Y-840790D01*
X5725769Y-843737D01*
X5722061Y-845312D01*
X5717946Y-845312D01*
X5714238Y-843737D01*
X5711393Y-840790D01*
X5710224Y-838911D01*
X5706110Y-834796D01*
X5701233Y-831748D01*
X5695746Y-829818D01*
X5689447Y-829106D01*
X5610606Y-829106D01*
X5604256Y-829818D01*
X5598820Y-831748D01*
X5593892Y-834796D01*
X5589828Y-838911D01*
X5586730Y-843787D01*
X5583682Y-853440D01*
X5581396Y-856335D01*
X5578297Y-858266D01*
X5574639Y-858926D01*
X5528919Y-858926D01*
X5525008Y-858164D01*
X5513730Y-850290D01*
X5505094Y-846277D01*
X5496102Y-843838D01*
X5492191Y-841806D01*
X5489549Y-838352D01*
X5488584Y-834034D01*
X5489549Y-829716D01*
X5492191Y-826262D01*
X5496102Y-824230D01*
X5505094Y-821791D01*
X5513730Y-817778D01*
X5521502Y-812342D01*
X5528259Y-805586D01*
X5533694Y-797814D01*
X5537708Y-789178D01*
X5540197Y-780034D01*
X5541010Y-770534D01*
X5540197Y-761034D01*
X5537708Y-751890D01*
X5533694Y-743254D01*
X5528259Y-735482D01*
X5521502Y-728726D01*
X5513730Y-723290D01*
X5505094Y-719277D01*
X5496102Y-716838D01*
X5492191Y-714806D01*
X5489549Y-711352D01*
X5488584Y-707034D01*
X5489549Y-702716D01*
X5492191Y-699262D01*
X5496102Y-697230D01*
X5505094Y-694791D01*
X5513730Y-690778D01*
X5521502Y-685342D01*
X5528259Y-678586D01*
X5533694Y-670814D01*
X5537708Y-662178D01*
X5540197Y-653034D01*
X5541010Y-643534D01*
X5540197Y-634034D01*
X5537708Y-624890D01*
X5533694Y-616254D01*
X5528259Y-608482D01*
X5521502Y-601726D01*
X5513730Y-596290D01*
X5505094Y-592277D01*
X5496102Y-589838D01*
X5492191Y-587806D01*
X5489549Y-584352D01*
X5488584Y-580034D01*
X5489549Y-575716D01*
X5492191Y-572262D01*
X5496102Y-570230D01*
X5505094Y-567791D01*
X5513730Y-563778D01*
X5521502Y-558342D01*
X5528259Y-551586D01*
X5533694Y-543814D01*
X5537708Y-535178D01*
X5540197Y-526034D01*
X5541010Y-516534D01*
X5540197Y-507034D01*
X5537708Y-497890D01*
X5533694Y-489254D01*
X5528259Y-481482D01*
X5521502Y-474726D01*
X5513730Y-469290D01*
X5505094Y-465277D01*
X5496102Y-462838D01*
X5492191Y-460806D01*
X5489549Y-457352D01*
X5488584Y-453034D01*
X5489549Y-448716D01*
X5492191Y-445262D01*
X5496102Y-443230D01*
X5505094Y-440791D01*
X5513730Y-436778D01*
X5521502Y-431342D01*
X5528259Y-424586D01*
X5533694Y-416814D01*
X5537708Y-408178D01*
X5540197Y-399034D01*
X5541010Y-389534D01*
X5540197Y-380034D01*
X5537708Y-370890D01*
X5533694Y-362254D01*
X5528259Y-354482D01*
X5521502Y-347726D01*
X5513730Y-342290D01*
X5505094Y-338277D01*
X5496102Y-335838D01*
X5492191Y-333806D01*
X5489549Y-330352D01*
X5488584Y-326034D01*
X5489549Y-321716D01*
X5492191Y-318262D01*
X5496102Y-316230D01*
X5505094Y-313791D01*
X5513730Y-309778D01*
X5521502Y-304342D01*
X5528259Y-297586D01*
X5533694Y-289814D01*
X5537708Y-281178D01*
X5540197Y-272034D01*
X5541010Y-262534D01*
X5540197Y-253034D01*
X5537708Y-243890D01*
X5533694Y-235254D01*
X5528259Y-227482D01*
X5521502Y-220725D01*
X5513730Y-215290D01*
X5505094Y-211277D01*
X5496102Y-208838D01*
X5492191Y-206806D01*
X5489549Y-203352D01*
X5488584Y-199034D01*
X5489549Y-194716D01*
X5492191Y-191262D01*
X5496102Y-189230D01*
X5505094Y-186791D01*
X5513730Y-182778D01*
X5521502Y-177342D01*
X5528259Y-170586D01*
X5533694Y-162814D01*
X5537708Y-154178D01*
X5540197Y-145034D01*
X5541010Y-135534D01*
X5540197Y-126034D01*
X5537708Y-116890D01*
X5533694Y-108254D01*
X5528259Y-100482D01*
X5521502Y-93726D01*
X5513730Y-88290D01*
X5505094Y-84277D01*
X5495899Y-81788D01*
X5485993Y-80924D01*
X5304231Y-80924D01*
X5294325Y-81788D01*
X5285130Y-84277D01*
X5276494Y-88290D01*
X5268722Y-93726D01*
X5261965Y-100482D01*
X5256530Y-108254D01*
X5252516Y-116890D01*
X5250027Y-126034D01*
X5249214Y-135534D01*
X5250027Y-145034D01*
X5252516Y-154178D01*
X5256530Y-162814D01*
X5261965Y-170586D01*
X5268722Y-177342D01*
X5276494Y-182778D01*
X5285130Y-186791D01*
X5294122Y-189230D01*
X5297982Y-191262D01*
X5300675Y-194716D01*
X5301640Y-199034D01*
X5300675Y-203352D01*
X5297982Y-206806D01*
X5294122Y-208838D01*
X5285130Y-211277D01*
X5276494Y-215290D01*
X5268722Y-220725D01*
X5261965Y-227482D01*
X5256530Y-235254D01*
X5252516Y-243890D01*
X5250027Y-253034D01*
X5249214Y-262534D01*
X5250027Y-272034D01*
X5252516Y-281178D01*
X5256530Y-289814D01*
X5261965Y-297586D01*
X5268722Y-304342D01*
X5276494Y-309778D01*
X5285130Y-313791D01*
X5294122Y-316230D01*
X5297982Y-318262D01*
X5300675Y-321716D01*
X5301640Y-326034D01*
X5300675Y-330352D01*
X5297982Y-333806D01*
X5294122Y-335838D01*
X5285130Y-338277D01*
X5276494Y-342290D01*
X5268722Y-347726D01*
X5261965Y-354482D01*
X5256530Y-362254D01*
X5252516Y-370890D01*
X5250027Y-380034D01*
X5249214Y-389534D01*
X5250027Y-399034D01*
X5252516Y-408178D01*
X5256530Y-416814D01*
X5261965Y-424586D01*
X5268722Y-431342D01*
X5276494Y-436778D01*
X5285130Y-440791D01*
X5294122Y-443230D01*
X5297982Y-445262D01*
X5300675Y-448716D01*
X5301640Y-453034D01*
X5300675Y-457352D01*
X5297982Y-460806D01*
X5294122Y-462838D01*
X5285130Y-465277D01*
X5276494Y-469290D01*
X5268722Y-474726D01*
X5261965Y-481482D01*
X5256530Y-489254D01*
X5252516Y-497890D01*
X5250027Y-507034D01*
X5249214Y-516534D01*
X5250027Y-526034D01*
X5252516Y-535178D01*
X5256530Y-543814D01*
X5261965Y-551586D01*
X5268722Y-558342D01*
X5276494Y-563778D01*
X5285130Y-567791D01*
X5294122Y-570230D01*
X5297982Y-572262D01*
X5300675Y-575716D01*
X5301640Y-580034D01*
X5300675Y-584352D01*
X5297982Y-587806D01*
X5294122Y-589838D01*
X5285130Y-592277D01*
X5276494Y-596290D01*
X5268722Y-601726D01*
X5261965Y-608482D01*
X5256530Y-616254D01*
X5252516Y-624890D01*
X5250027Y-634034D01*
X5249214Y-643534D01*
X5250027Y-653034D01*
X5252516Y-662178D01*
X5256530Y-670814D01*
X5261965Y-678586D01*
X5268722Y-685342D01*
X5276494Y-690778D01*
X5285130Y-694791D01*
X5294122Y-697230D01*
X5297982Y-699262D01*
X5300675Y-702716D01*
X5301640Y-707034D01*
X5300675Y-711352D01*
X5297982Y-714806D01*
X5294122Y-716838D01*
X5285130Y-719277D01*
X5276494Y-723290D01*
X5268722Y-728726D01*
X5261965Y-735482D01*
X5256530Y-743254D01*
X5252516Y-751890D01*
X5250027Y-761034D01*
X5249214Y-770534D01*
X5250027Y-780034D01*
X5252516Y-789178D01*
X5256530Y-797814D01*
X5261965Y-805586D01*
X5268722Y-812342D01*
X5276494Y-817778D01*
X5285130Y-821791D01*
X5294122Y-824230D01*
X5297982Y-826262D01*
X5300675Y-829716D01*
X5301640Y-834034D01*
X5300675Y-838352D01*
X5297982Y-841806D01*
X5294122Y-843838D01*
X5285130Y-846277D01*
X5276494Y-850290D01*
X5268722Y-855726D01*
X5261965Y-862482D01*
X5256530Y-870254D01*
X5252516Y-878890D01*
X5250027Y-888034D01*
X5249214Y-897534D01*
X5250027Y-907034D01*
X5252516Y-916178D01*
X5256530Y-924814D01*
X5261965Y-932586D01*
X5268722Y-939342D01*
X5276494Y-944778D01*
X5285130Y-948791D01*
X5294122Y-951230D01*
X5297982Y-953262D01*
X5300675Y-956716D01*
X5301640Y-961034D01*
X5300675Y-965352D01*
X5297982Y-968806D01*
X5294122Y-970838D01*
X5285130Y-973277D01*
X5276494Y-977290D01*
X5268722Y-982726D01*
X5261965Y-989482D01*
X5256530Y-997254D01*
X5252516Y-1005890D01*
X5250027Y-1015034D01*
X5249214Y-1024534D01*
X5250027Y-1034034D01*
X5252516Y-1043178D01*
X5256530Y-1051814D01*
X5261965Y-1059586D01*
X5268722Y-1066342D01*
X5276494Y-1071778D01*
X5285130Y-1075791D01*
X5294325Y-1078280D01*
X5304231Y-1079144D01*
X5485993Y-1079144D01*
X5495899Y-1078280D01*
X5505094Y-1075791D01*
X5513730Y-1071778D01*
X5521502Y-1066342D01*
X5528259Y-1059586D01*
X5533694Y-1051814D01*
X5537708Y-1043178D01*
X5540197Y-1034034D01*
X5541010Y-1024534D01*
X5540197Y-1015034D01*
X5537708Y-1005890D01*
X5533694Y-997254D01*
X5528259Y-989482D01*
X5521502Y-982726D01*
X5513730Y-977290D01*
X5505094Y-973277D01*
X5496102Y-970838D01*
X5492191Y-968806D01*
X5489549Y-965352D01*
X5488584Y-961034D01*
X5489549Y-956716D01*
X5492191Y-953262D01*
X5496102Y-951230D01*
X5505094Y-948791D01*
X5513730Y-944778D01*
X5525008Y-936904D01*
X5528919Y-936142D01*
X5574080Y-936142D01*
X5577738Y-936802D01*
X5580837Y-938733D01*
X5583123Y-941628D01*
X5584190Y-945184D01*
X5584799Y-950772D01*
X5586730Y-956208D01*
X5589828Y-961136D01*
X5593892Y-965200D01*
X5598820Y-968298D01*
X5604611Y-970330D01*
X5608167Y-972464D01*
X5610555Y-975868D01*
X5611418Y-979932D01*
X5611418Y-1079804D01*
X5610656Y-1083665D01*
X5608421Y-1086967D01*
X5554522Y-1140866D01*
X5551627Y-1142898D01*
X5548223Y-1143812D01*
X5540197Y-1144524D01*
X5530748Y-1147064D01*
X5521807Y-1151229D01*
X5513781Y-1156868D01*
X5506821Y-1163777D01*
X5501182Y-1171854D01*
X5497068Y-1180744D01*
X5494528Y-1190244D01*
X5493664Y-1200048D01*
X5494528Y-1209802D01*
X5497068Y-1219301D01*
X5501182Y-1228191D01*
X5506821Y-1236268D01*
X5513781Y-1243177D01*
X5521807Y-1248816D01*
X5530748Y-1252982D01*
X5540197Y-1255522D01*
G37*
G36*
X2850540Y-1230985D02*
G01*
X2903626Y-1230985D01*
X2903626Y-1151432D01*
X2824073Y-1151432D01*
X2824073Y-1204518D01*
X2824784Y-1210818D01*
X2826715Y-1216304D01*
X2829814Y-1221181D01*
X2833878Y-1225296D01*
X2838805Y-1228394D01*
X2844241Y-1230274D01*
G37*
G36*
X3036366Y-1230985D02*
G01*
X3089452Y-1230985D01*
X3095752Y-1230274D01*
X3101187Y-1228394D01*
X3106115Y-1225296D01*
X3110179Y-1221181D01*
X3113278Y-1216304D01*
X3115208Y-1210818D01*
X3115919Y-1204518D01*
X3115919Y-1151432D01*
X3036366Y-1151432D01*
G37*
G36*
X6755333Y-1174648D02*
G01*
X6873900Y-1174648D01*
X6873900Y-1082598D01*
X6873189Y-1076248D01*
X6871309Y-1070813D01*
X6868210Y-1065885D01*
X6864146Y-1061821D01*
X6859219Y-1058722D01*
X6853783Y-1056792D01*
X6847433Y-1056081D01*
X6755333Y-1056081D01*
G37*
G36*
X6426098Y-1174648D02*
G01*
X6544665Y-1174648D01*
X6544665Y-1056081D01*
X6452565Y-1056081D01*
X6446266Y-1056792D01*
X6440779Y-1058722D01*
X6435902Y-1061821D01*
X6431788Y-1065885D01*
X6428689Y-1070813D01*
X6426809Y-1076248D01*
X6426098Y-1082598D01*
G37*
G36*
X2824073Y-1018743D02*
G01*
X2903626Y-1018743D01*
X2903626Y-939190D01*
X2850540Y-939190D01*
X2844241Y-939901D01*
X2838805Y-941781D01*
X2833878Y-944880D01*
X2829814Y-948994D01*
X2826715Y-953871D01*
X2824784Y-959358D01*
X2824073Y-965657D01*
G37*
G36*
X3036366Y-1018743D02*
G01*
X3115919Y-1018743D01*
X3115919Y-965657D01*
X3115208Y-959358D01*
X3113278Y-953871D01*
X3110179Y-948994D01*
X3106115Y-944880D01*
X3101187Y-941781D01*
X3095752Y-939901D01*
X3089452Y-939190D01*
X3036366Y-939190D01*
G37*
G36*
X5816346Y-970940D02*
G01*
X5829401Y-970940D01*
X5835751Y-970229D01*
X5841187Y-968298D01*
X5846114Y-965200D01*
X5850178Y-961136D01*
X5853277Y-956208D01*
X5855208Y-950772D01*
X5855919Y-944422D01*
X5855919Y-928878D01*
X5816346Y-928878D01*
G37*
G36*
X3548837Y-897534D02*
G01*
X3567836Y-897534D01*
X3567836Y-864666D01*
X3522319Y-864666D01*
X3522319Y-871016D01*
X3523030Y-877366D01*
X3524961Y-882802D01*
X3528060Y-887730D01*
X3532124Y-891794D01*
X3537051Y-894892D01*
X3542487Y-896823D01*
G37*
G36*
X3632403Y-897534D02*
G01*
X3651453Y-897534D01*
X3657752Y-896823D01*
X3663187Y-894892D01*
X3668115Y-891794D01*
X3672179Y-887730D01*
X3675278Y-882802D01*
X3677208Y-877366D01*
X3677920Y-871016D01*
X3677920Y-864666D01*
X3632403Y-864666D01*
G37*
G36*
X5816346Y-871169D02*
G01*
X5855919Y-871169D01*
X5855919Y-855573D01*
X5855208Y-849274D01*
X5853277Y-843787D01*
X5850178Y-838911D01*
X5846114Y-834796D01*
X5841187Y-831748D01*
X5835751Y-829818D01*
X5829401Y-829106D01*
X5816346Y-829106D01*
G37*
G36*
X3632403Y-825347D02*
G01*
X3677920Y-825347D01*
X3677920Y-818997D01*
X3677208Y-812647D01*
X3675278Y-807212D01*
X3672179Y-802284D01*
X3668115Y-798220D01*
X3663187Y-795121D01*
X3657752Y-793191D01*
X3651453Y-792480D01*
X3632403Y-792480D01*
G37*
G36*
X3522319Y-825347D02*
G01*
X3567836Y-825347D01*
X3567836Y-792480D01*
X3548837Y-792480D01*
X3542487Y-793191D01*
X3537051Y-795121D01*
X3532124Y-798220D01*
X3528060Y-802284D01*
X3524961Y-807212D01*
X3523030Y-812647D01*
X3522319Y-818997D01*
G37*
G36*
X259994Y-666394D02*
G01*
X269798Y-665530D01*
X279298Y-662990D01*
X288188Y-658825D01*
X296214Y-653186D01*
X297840Y-651611D01*
X301142Y-649376D01*
X305003Y-648614D01*
X4064965Y-648614D01*
X4068876Y-649376D01*
X4072178Y-651611D01*
X4073753Y-653186D01*
X4081830Y-658825D01*
X4090720Y-662990D01*
X4100220Y-665530D01*
X4110024Y-666394D01*
X4119778Y-665530D01*
X4129278Y-662990D01*
X4138168Y-658825D01*
X4146245Y-653186D01*
X4153204Y-646226D01*
X4158792Y-638200D01*
X4162958Y-629310D01*
X4165498Y-619810D01*
X4166362Y-610006D01*
X4165498Y-600202D01*
X4162958Y-590702D01*
X4158792Y-581812D01*
X4153204Y-573786D01*
X4146245Y-566826D01*
X4138168Y-561187D01*
X4129278Y-557022D01*
X4119778Y-554482D01*
X4110024Y-553618D01*
X4100220Y-554482D01*
X4090720Y-557022D01*
X4081830Y-561187D01*
X4073753Y-566826D01*
X4072178Y-568401D01*
X4068876Y-570636D01*
X4064965Y-571398D01*
X305003Y-571398D01*
X301142Y-570636D01*
X297840Y-568401D01*
X296214Y-566826D01*
X288188Y-561187D01*
X279298Y-557022D01*
X269798Y-554482D01*
X259994Y-553618D01*
X250190Y-554482D01*
X240690Y-557022D01*
X231800Y-561187D01*
X223774Y-566826D01*
X216814Y-573786D01*
X211175Y-581812D01*
X207010Y-590702D01*
X204470Y-600202D01*
X203606Y-610006D01*
X204470Y-619810D01*
X207010Y-629310D01*
X211175Y-638200D01*
X216814Y-646226D01*
X223774Y-653186D01*
X231800Y-658825D01*
X240690Y-662990D01*
X250190Y-665530D01*
G37*
G36*
X4303420Y-622858D02*
G01*
X4378706Y-622858D01*
X4378706Y-581304D01*
X4379468Y-577392D01*
X4381652Y-574141D01*
X4384954Y-571906D01*
X4388866Y-571144D01*
X4501235Y-571144D01*
X4505147Y-571906D01*
X4508449Y-574141D01*
X4510633Y-577392D01*
X4511395Y-581304D01*
X4511395Y-622858D01*
X4586732Y-622858D01*
X4583633Y-616254D01*
X4578197Y-608482D01*
X4571441Y-601726D01*
X4563668Y-596290D01*
X4555032Y-592277D01*
X4546041Y-589838D01*
X4542180Y-587806D01*
X4539488Y-584352D01*
X4538522Y-580034D01*
X4539488Y-575716D01*
X4542180Y-572262D01*
X4546041Y-570230D01*
X4555032Y-567791D01*
X4563668Y-563778D01*
X4571441Y-558342D01*
X4578197Y-551586D01*
X4583633Y-543814D01*
X4587646Y-535178D01*
X4590135Y-526034D01*
X4590948Y-516534D01*
X4590135Y-507034D01*
X4587646Y-497890D01*
X4583633Y-489254D01*
X4578197Y-481482D01*
X4571441Y-474726D01*
X4563668Y-469290D01*
X4555032Y-465277D01*
X4546041Y-462838D01*
X4542180Y-460806D01*
X4539488Y-457352D01*
X4538522Y-453034D01*
X4539488Y-448716D01*
X4542180Y-445262D01*
X4546041Y-443230D01*
X4555032Y-440791D01*
X4563668Y-436778D01*
X4571441Y-431342D01*
X4578197Y-424586D01*
X4583633Y-416814D01*
X4587646Y-408178D01*
X4590135Y-399034D01*
X4590948Y-389534D01*
X4590135Y-380034D01*
X4587646Y-370890D01*
X4583633Y-362254D01*
X4578197Y-354482D01*
X4571441Y-347726D01*
X4563668Y-342290D01*
X4555032Y-338277D01*
X4546041Y-335838D01*
X4542180Y-333806D01*
X4539488Y-330352D01*
X4538522Y-326034D01*
X4539488Y-321716D01*
X4542180Y-318262D01*
X4546041Y-316230D01*
X4555032Y-313791D01*
X4563668Y-309778D01*
X4571441Y-304342D01*
X4578197Y-297586D01*
X4583633Y-289814D01*
X4587646Y-281178D01*
X4590135Y-272034D01*
X4590948Y-262534D01*
X4590135Y-253034D01*
X4587646Y-243890D01*
X4583633Y-235254D01*
X4578197Y-227482D01*
X4571441Y-220725D01*
X4563668Y-215290D01*
X4555032Y-211277D01*
X4546041Y-208838D01*
X4542180Y-206806D01*
X4539488Y-203352D01*
X4538522Y-199034D01*
X4539488Y-194716D01*
X4542180Y-191262D01*
X4546041Y-189230D01*
X4555032Y-186791D01*
X4563668Y-182778D01*
X4571441Y-177342D01*
X4578197Y-170586D01*
X4583633Y-162814D01*
X4587646Y-154178D01*
X4590135Y-145034D01*
X4590948Y-135534D01*
X4590135Y-126034D01*
X4587646Y-116890D01*
X4583633Y-108254D01*
X4578197Y-100482D01*
X4571441Y-93726D01*
X4563668Y-88290D01*
X4555032Y-84277D01*
X4545838Y-81788D01*
X4535932Y-80924D01*
X4354169Y-80924D01*
X4344263Y-81788D01*
X4335068Y-84277D01*
X4326432Y-88290D01*
X4318660Y-93726D01*
X4311904Y-100482D01*
X4306468Y-108254D01*
X4302455Y-116890D01*
X4299966Y-126034D01*
X4299153Y-135534D01*
X4299966Y-145034D01*
X4302455Y-154178D01*
X4306468Y-162814D01*
X4311904Y-170586D01*
X4318660Y-177342D01*
X4326432Y-182778D01*
X4335068Y-186791D01*
X4344060Y-189230D01*
X4347972Y-191262D01*
X4350613Y-194716D01*
X4351578Y-199034D01*
X4350613Y-203352D01*
X4347972Y-206806D01*
X4344060Y-208838D01*
X4335068Y-211277D01*
X4326432Y-215290D01*
X4318660Y-220725D01*
X4311904Y-227482D01*
X4306468Y-235254D01*
X4302455Y-243890D01*
X4299966Y-253034D01*
X4299153Y-262534D01*
X4299966Y-272034D01*
X4302455Y-281178D01*
X4306468Y-289814D01*
X4311904Y-297586D01*
X4318660Y-304342D01*
X4326432Y-309778D01*
X4335068Y-313791D01*
X4344060Y-316230D01*
X4347972Y-318262D01*
X4350613Y-321716D01*
X4351578Y-326034D01*
X4350613Y-330352D01*
X4347972Y-333806D01*
X4344060Y-335838D01*
X4335068Y-338277D01*
X4326432Y-342290D01*
X4318660Y-347726D01*
X4311904Y-354482D01*
X4306468Y-362254D01*
X4302455Y-370890D01*
X4299966Y-380034D01*
X4299153Y-389534D01*
X4299966Y-399034D01*
X4302455Y-408178D01*
X4306468Y-416814D01*
X4311904Y-424586D01*
X4318660Y-431342D01*
X4326432Y-436778D01*
X4335068Y-440791D01*
X4344060Y-443230D01*
X4347972Y-445262D01*
X4350613Y-448716D01*
X4351578Y-453034D01*
X4350613Y-457352D01*
X4347972Y-460806D01*
X4344060Y-462838D01*
X4335068Y-465277D01*
X4326432Y-469290D01*
X4318660Y-474726D01*
X4311904Y-481482D01*
X4306468Y-489254D01*
X4302455Y-497890D01*
X4299966Y-507034D01*
X4299153Y-516534D01*
X4299966Y-526034D01*
X4302455Y-535178D01*
X4306468Y-543814D01*
X4311904Y-551586D01*
X4318660Y-558342D01*
X4326432Y-563778D01*
X4335068Y-567791D01*
X4344060Y-570230D01*
X4347972Y-572262D01*
X4350613Y-575716D01*
X4351578Y-580034D01*
X4350613Y-584352D01*
X4347972Y-587806D01*
X4344060Y-589838D01*
X4335068Y-592277D01*
X4326432Y-596290D01*
X4318660Y-601726D01*
X4311904Y-608482D01*
X4306468Y-616254D01*
G37*
G36*
X156159Y-427431D02*
G01*
X156159Y-343865D01*
X72644Y-343865D01*
X76809Y-351840D01*
X87477Y-368096D01*
X99618Y-383235D01*
X113182Y-397103D01*
X128016Y-409651D01*
X144018Y-420674D01*
G37*
G36*
X7096150Y-427431D02*
G01*
X7096150Y-343865D01*
X7012635Y-343865D01*
X7016851Y-351840D01*
X7027468Y-368096D01*
X7039609Y-383235D01*
X7053173Y-397103D01*
X7068007Y-409651D01*
X7084009Y-420674D01*
G37*
G36*
X343865Y-427431D02*
G01*
X347624Y-425602D01*
X364134Y-415340D01*
X379526Y-403555D01*
X393750Y-390347D01*
X406654Y-375818D01*
X418033Y-360121D01*
X427583Y-343865D01*
X343865Y-343865D01*
G37*
G36*
X7283856Y-427431D02*
G01*
X7287666Y-425602D01*
X7304125Y-415340D01*
X7319568Y-403555D01*
X7333742Y-390347D01*
X7346645Y-375818D01*
X7358024Y-360121D01*
X7367574Y-343865D01*
X7283856Y-343865D01*
G37*
G36*
X72644Y-156159D02*
G01*
X156159Y-156159D01*
X156159Y-72593D01*
X144018Y-79349D01*
X128016Y-90373D01*
X113182Y-102920D01*
X99618Y-116789D01*
X87477Y-131927D01*
X76809Y-148183D01*
G37*
G36*
X7012635Y-156159D02*
G01*
X7096150Y-156159D01*
X7096150Y-72593D01*
X7084009Y-79349D01*
X7068007Y-90373D01*
X7053173Y-102920D01*
X7039609Y-116789D01*
X7027468Y-131927D01*
X7016851Y-148183D01*
G37*
G36*
X343865Y-156159D02*
G01*
X427583Y-156159D01*
X418033Y-139903D01*
X406654Y-124206D01*
X393750Y-109677D01*
X379526Y-96469D01*
X364134Y-84683D01*
X347624Y-74422D01*
X343865Y-72593D01*
G37*
G36*
X7283856Y-156159D02*
G01*
X7367574Y-156159D01*
X7358024Y-139903D01*
X7346645Y-124206D01*
X7333742Y-109677D01*
X7319568Y-96469D01*
X7304125Y-84683D01*
X7287666Y-74422D01*
X7283856Y-72593D01*
G37*

%LPD*%
D10*
X699871Y-2810141D02*
G01*
X720191Y-2810141D01*
X931011Y-3019945D01*
X931011Y-4129925D01*
X1370431Y-4570107D01*
X1989937Y-4570107D01*
X2430119Y-4129925D01*
X3130143Y-4129925D01*
X3239871Y-4019943D01*
X2460091Y-4209935D02*
G01*
X3170021Y-4209935D01*
X3429863Y-3950093D01*
X3239998Y-4019994D02*
G01*
X3496713Y-3763279D01*
X3496713Y-3289998D01*
X3389985Y-4455045D02*
G01*
X3389985Y-4339983D01*
X3339947Y-4289945D01*
X3339947Y-4159897D01*
D11*
X6420967Y-4030103D02*
G01*
X6420967Y-3410089D01*
X6430111Y-3410089D01*
D10*
X3236315Y-2894977D02*
G01*
X3445103Y-2894977D01*
X3760063Y-2580017D01*
X4341977Y-2580017D01*
X4418177Y-2656217D01*
X4418177Y-2751721D01*
X4345533Y-2824619D01*
X4250029Y-2824619D01*
X3583279Y-3289998D02*
G01*
X3583279Y-3214324D01*
X3574475Y-3205520D01*
X4250006Y-3205520D01*
X3005480Y-4750015D02*
G01*
X3005480Y-4835583D01*
X3029816Y-4859919D01*
X3399381Y-4859919D01*
X3460089Y-4799977D01*
X3350005Y-4705007D02*
G01*
X3350005Y-4760010D01*
X3389993Y-4800003D01*
X3465499Y-4800003D01*
X3625494Y-4640008D01*
X3240001Y-4370001D02*
G01*
X3230001Y-4380001D01*
X3130003Y-4380001D01*
X3389985Y-4705007D02*
G01*
X3350011Y-4704996D01*
X3350011Y-4704996D01*
X3005482Y-4570008D02*
G01*
X3005482Y-4750013D01*
X3005480Y-4750015D01*
X2990016Y-4765479D01*
X2990016Y-4770008D01*
X2822498Y-4560298D02*
G01*
X2970296Y-4560298D01*
X2980006Y-4570006D01*
X3005480Y-4570006D01*
X3020004Y-4584529D01*
X3020004Y-4594514D01*
X2792745Y-4701423D02*
G01*
X2792745Y-4750015D01*
X3005480Y-4750015D01*
X3429990Y-4455020D02*
G01*
X3429990Y-4369988D01*
X3429990Y-4369988D01*
X3429990Y-4210011D01*
X3309995Y-4455020D02*
G01*
X3309995Y-4440003D01*
X3239998Y-4370006D01*
X2392751Y-4701242D02*
G01*
X2121039Y-4701242D01*
X1989904Y-4570107D01*
X3625494Y-4640008D02*
G01*
X3625494Y-4264512D01*
X3763289Y-4126717D01*
X3763289Y-3690000D01*
X3660012Y-4800003D02*
G01*
X3770000Y-4800003D01*
X3990004Y-4579998D01*
X3990004Y-4159999D01*
X3999989Y-4159999D01*
X3660012Y-4910010D02*
G01*
X3779992Y-4910010D01*
X4069999Y-4620000D01*
X4069999Y-4349991D01*
X3620005Y-4640005D02*
G01*
X3625491Y-4640005D01*
X3625494Y-4640008D01*
X2389987Y-4319917D02*
G01*
X2440025Y-4269879D01*
X3229965Y-4269879D01*
X3676751Y-3823347D01*
X3676751Y-3689997D01*
X2392751Y-4419353D02*
G01*
X2390000Y-4416602D01*
X2390000Y-4320001D01*
X350116Y-2619895D02*
G01*
X350116Y-2580015D01*
X669897Y-2580015D01*
X1030074Y-2939935D01*
X1030074Y-4049915D01*
X1419961Y-4440062D01*
X1850110Y-4440062D01*
X1850057Y-4440008D01*
X1840001Y-4440008D01*
X3669995Y-2019998D02*
G01*
X4110073Y-1579920D01*
X4110073Y-1043066D01*
X4259930Y-893203D01*
X3690010Y-2160003D02*
G01*
X4170024Y-1679989D01*
X4170024Y-1099962D01*
X4245455Y-1024519D01*
X4444847Y-1024519D01*
X6130010Y-2979991D02*
G01*
X6130010Y-3550008D01*
X6170002Y-3590000D01*
X149961Y-2619895D02*
G01*
X149961Y-2719969D01*
X240007Y-2810014D01*
X699998Y-2810014D01*
X5650026Y-890003D02*
G01*
X5650026Y-1099982D01*
X5549996Y-1200012D01*
X4239996Y-1460004D02*
G01*
X5550006Y-1460004D01*
X5550009Y-1460002D01*
X5483992Y-3458372D02*
G01*
X5608187Y-3458372D01*
X5883173Y-3733358D01*
X5883173Y-3909885D01*
X5955334Y-4830000D02*
G01*
X5483992Y-4358657D01*
X5483992Y-4347372D01*
D11*
X6450009Y-2870085D02*
G01*
X6430010Y-2890085D01*
X6430010Y-3100006D01*
D10*
X4330014Y-1609991D02*
G01*
X4677491Y-1957468D01*
X4677491Y-2230008D01*
X5550004Y-1459999D02*
G01*
X5550004Y-2219995D01*
X350116Y-2420000D02*
G01*
X680062Y-2420000D01*
X1129893Y-2869831D01*
X1129893Y-3999877D01*
X1450009Y-4319993D01*
X2110003Y-4319993D01*
X3236239Y-3095002D02*
G01*
X3604999Y-3095002D01*
X3748483Y-2951518D01*
X4250004Y-2951518D01*
X5483992Y-3331372D02*
G01*
X5754494Y-3331372D01*
X5873013Y-3449891D01*
X5483992Y-3204372D02*
G01*
X5648632Y-3204372D01*
X5873013Y-2979991D01*
X3600119Y-1034986D02*
G01*
X3605136Y-1040002D01*
X3706723Y-1040002D01*
X5239999Y-2819999D02*
G01*
X5243375Y-2823375D01*
X5483987Y-2823375D01*
X4250004Y-3078518D02*
G01*
X3848610Y-3078518D01*
X3780132Y-3010042D01*
X5483987Y-3077375D02*
G01*
X4860005Y-3077375D01*
X4860005Y-3070006D01*
X6170002Y-3590000D02*
G01*
X6170002Y-3989999D01*
X6170002Y-3989999D02*
G01*
X6127013Y-4032989D01*
X6127013Y-4389945D01*
X5483992Y-3585372D02*
G01*
X5488531Y-3589919D01*
X5639912Y-3589919D01*
X5700115Y-3650119D01*
X5700115Y-4140085D01*
X5873013Y-4312986D01*
X5873013Y-4389945D01*
X4444974Y-897496D02*
G01*
X4440755Y-893277D01*
X4260016Y-893277D01*
X3429990Y-3949989D02*
G01*
X3583279Y-3796700D01*
X3583279Y-3289998D01*
X3236249Y-1645018D02*
G01*
X3144984Y-1645018D01*
X3080001Y-1710001D01*
X3080001Y-3240001D01*
X3135002Y-3295002D01*
X3236249Y-3295002D01*
X3236252Y-3045015D02*
G01*
X3515004Y-3045015D01*
X3550005Y-3010014D01*
X3236249Y-3245015D02*
G01*
X3236249Y-3295002D01*
X3236249Y-3345014D02*
G01*
X3236249Y-3295002D01*
X3236252Y-3295004D02*
G01*
X3241258Y-3289998D01*
X3496716Y-3289998D01*
X3236315Y-2945015D02*
G01*
X3534989Y-2945015D01*
X3782486Y-2697518D01*
X4250004Y-2697518D01*
X4009999Y-1409992D02*
G01*
X4009999Y-1249994D01*
X3920007Y-1160002D01*
X3913271Y-1153274D01*
X3913271Y-1029982D01*
X3706723Y-1040015D02*
G01*
X3816730Y-1040015D01*
X3816730Y-1300010D01*
X3236239Y-1645020D02*
G01*
X3580442Y-1645046D01*
X3660012Y-1565475D01*
X3660012Y-1539989D01*
X3660012Y-1300010D02*
G01*
X3660012Y-1389974D01*
X3660002Y-1389984D01*
X3660012Y-1379994D02*
G01*
X3660012Y-1469981D01*
X3660002Y-1469991D01*
X3660012Y-1460004D02*
G01*
X3660012Y-1549971D01*
X3660002Y-1549981D01*
X3660012Y-1539989D02*
G01*
X3879997Y-1539989D01*
X4009997Y-1409989D01*
X3236239Y-1345021D02*
G01*
X3344997Y-1345008D01*
X3389993Y-1300010D01*
X3480003Y-1300010D01*
X3236239Y-1395008D02*
G01*
X3364989Y-1395008D01*
X3380003Y-1379994D01*
X3480003Y-1379994D01*
X3236315Y-1494929D02*
G01*
X3335121Y-1494929D01*
X3380079Y-1539887D01*
X3479901Y-1539887D01*
X3236239Y-1445021D02*
G01*
X3365025Y-1445021D01*
X3380011Y-1460004D01*
X3480003Y-1460004D01*
X3236249Y-1595005D02*
G01*
X3236249Y-1645018D01*
X3236252Y-1745020D02*
G01*
X3325014Y-1745020D01*
X3369998Y-1790004D01*
X3369998Y-2019998D01*
X3760002Y-2409997D01*
X4460003Y-2409997D01*
X5000381Y-2950375D01*
X5483987Y-2950375D01*
X3236252Y-3145015D02*
G01*
X4094987Y-3145015D01*
X4099991Y-3140011D01*
X5483992Y-4220372D02*
G01*
X5417167Y-4220372D01*
X5287551Y-4349991D01*
X4420006Y-4349991D01*
X6680047Y-2740037D02*
G01*
X6592163Y-2740037D01*
X6580225Y-2751975D01*
X6492087Y-2751975D01*
X6158839Y-2418981D01*
X5009997Y-2418981D01*
X5009997Y-2369705D01*
X5058511Y-2321191D01*
X5058511Y-2230005D01*
X6680047Y-2805061D02*
G01*
X6592163Y-2805061D01*
X6580225Y-2793123D01*
X6473037Y-2793123D01*
X6140043Y-2459875D01*
X4970119Y-2459875D01*
X4970119Y-2370213D01*
X4931511Y-2331605D01*
X4931511Y-2230005D01*
D11*
X6680047Y-2870085D02*
G01*
X6449923Y-2870085D01*
X6159855Y-2580017D01*
X4950053Y-2580017D01*
X4804511Y-2434475D01*
X4804511Y-2230005D01*
D10*
X259994Y-609993D02*
G01*
X410004Y-609993D01*
X410006Y-609996D01*
X4109996Y-609996D01*
X3236249Y-1295006D02*
G01*
X3264994Y-1295006D01*
X3379886Y-1180114D01*
X3379886Y-939998D01*
X4444974Y-770496D02*
G01*
X4269506Y-770496D01*
X4210001Y-830000D01*
X5599780Y-1390027D02*
G01*
X5777966Y-1390027D01*
X6649999Y-517994D01*
X4250029Y-1149997D02*
G01*
X4330039Y-1149997D01*
X4570069Y-1390027D01*
X5939637Y-1390027D01*
X6650075Y-2100465D01*
X4540003Y-3720002D02*
G01*
X4547529Y-3712476D01*
X5484114Y-3712476D01*
X606653Y-4310011D02*
G01*
X606653Y-4466475D01*
X1039977Y-4900053D01*
X2479903Y-4900053D01*
X6214668Y-4820015D02*
G01*
X6204686Y-4829997D01*
X5955334Y-4829997D01*
X3676721Y-3690000D02*
G01*
X3690005Y-3676716D01*
X3690005Y-3419088D01*
X3776576Y-3332518D01*
X4250004Y-3332518D01*
D11*
X6669890Y-4030103D02*
G01*
X6399903Y-4030103D01*
X6365316Y-4064690D01*
X6365316Y-4820018D01*
X6669887Y-4030103D02*
G01*
X6389979Y-4030103D01*
X6330035Y-3970159D01*
X6330035Y-2870085D01*
X6156299Y-2696349D01*
X5483961Y-2696349D01*
D10*
X5395061Y-897521D02*
G01*
X5650077Y-897521D01*
X5650077Y-889901D01*
X5312486Y-2230005D02*
G01*
X5540001Y-2230005D01*
X5550009Y-2220000D01*
D12*
X2392756Y-4635197D02*
G01*
X2392756Y-4767298D01*
X2472766Y-4635197D02*
G01*
X2472766Y-4767298D01*
X2552750Y-4635197D02*
G01*
X2552750Y-4767298D01*
X2632760Y-4635197D02*
G01*
X2632760Y-4767298D01*
X2712745Y-4635197D02*
G01*
X2712745Y-4767298D01*
X2792755Y-4635197D02*
G01*
X2792755Y-4767298D01*
X2792755Y-4353308D02*
G01*
X2792755Y-4485408D01*
X2712745Y-4353308D02*
G01*
X2712745Y-4485408D01*
X2632760Y-4353308D02*
G01*
X2632760Y-4485408D01*
X2552750Y-4353308D02*
G01*
X2552750Y-4485408D01*
X2472766Y-4353308D02*
G01*
X2472766Y-4485408D01*
X2392756Y-4353308D02*
G01*
X2392756Y-4485408D01*
D13*
X5303786Y-1024521D02*
G01*
X5486438Y-1024521D01*
X5303786Y-897521D02*
G01*
X5486438Y-897521D01*
X5303786Y-770521D02*
G01*
X5486438Y-770521D01*
X5303786Y-643521D02*
G01*
X5486438Y-643521D01*
X5303786Y-516521D02*
G01*
X5486438Y-516521D01*
X5303786Y-389521D02*
G01*
X5486438Y-389521D01*
X5303786Y-262521D02*
G01*
X5486438Y-262521D01*
X5303786Y-135521D02*
G01*
X5486438Y-135521D01*
X4353725Y-1024521D02*
G01*
X4536376Y-1024521D01*
X4353725Y-897521D02*
G01*
X4536376Y-897521D01*
X4353725Y-770521D02*
G01*
X4536376Y-770521D01*
X4353725Y-643521D02*
G01*
X4536376Y-643521D01*
X4353725Y-516521D02*
G01*
X4536376Y-516521D01*
X4353725Y-389521D02*
G01*
X4536376Y-389521D01*
X4353725Y-262521D02*
G01*
X4536376Y-262521D01*
X4353725Y-135521D02*
G01*
X4536376Y-135521D01*
D16*
G01*
X6649999Y-2041994D03*
G01*
X6649999Y-517994D03*
D17*
G01*
X6649999Y-1279994D03*
G36*
X3075040Y-4776939D02*
G01*
X3075040Y-4722939D01*
X3154050Y-4722939D01*
X3154050Y-4776939D01*
G37*
G36*
X3045038Y-4776939D02*
G01*
X3045038Y-4722939D01*
X2966029Y-4722939D01*
X2966029Y-4776939D01*
G37*
G36*
X3695054Y-4666957D02*
G01*
X3695054Y-4612957D01*
X3774064Y-4612957D01*
X3774064Y-4666957D01*
G37*
G36*
X3665052Y-4666957D02*
G01*
X3665052Y-4612957D01*
X3586043Y-4612957D01*
X3586043Y-4666957D01*
G37*
G36*
X3075002Y-4597003D02*
G01*
X3075002Y-4543003D01*
X3154011Y-4543003D01*
X3154011Y-4597003D01*
G37*
G36*
X3045000Y-4597003D02*
G01*
X3045000Y-4543003D01*
X2965991Y-4543003D01*
X2965991Y-4597003D01*
G37*
G36*
X3045038Y-4353115D02*
G01*
X3045038Y-4407115D01*
X2966029Y-4407115D01*
X2966029Y-4353115D01*
G37*
G36*
X3075040Y-4353115D02*
G01*
X3075040Y-4407115D01*
X3154050Y-4407115D01*
X3154050Y-4353115D01*
G37*
D19*
G01*
X3429990Y-4455020D03*
G01*
X3389985Y-4455020D03*
G01*
X3350005Y-4455020D03*
G01*
X3310001Y-4455020D03*
G01*
X3310001Y-4705007D03*
G01*
X3350005Y-4705007D03*
G01*
X3389985Y-4705007D03*
G01*
X3429990Y-4705007D03*
G36*
X3284999Y-4512503D02*
G01*
X3455001Y-4512503D01*
X3455001Y-4647504D01*
X3284999Y-4647504D01*
G37*
G36*
X2899750Y-4595299D02*
G01*
X2899750Y-4525297D01*
X2745249Y-4525297D01*
X2745249Y-4595299D01*
G37*
G36*
X2440251Y-4595299D02*
G01*
X2440251Y-4525297D01*
X2285751Y-4525297D01*
X2285751Y-4595299D01*
G37*
G36*
X4881473Y-3837543D02*
G01*
X5061079Y-4017149D01*
X4881473Y-4196755D01*
X4701867Y-4017149D01*
G37*
G36*
X4310126Y-2647607D02*
G01*
X4310126Y-2747606D01*
X4190136Y-2747606D01*
X4190136Y-2647607D01*
G37*
G36*
X4310126Y-2774607D02*
G01*
X4310126Y-2874606D01*
X4190136Y-2874606D01*
X4190136Y-2774607D01*
G37*
G36*
X4310126Y-2901607D02*
G01*
X4310126Y-3001606D01*
X4190136Y-3001606D01*
X4190136Y-2901607D01*
G37*
G36*
X4310126Y-3028607D02*
G01*
X4310126Y-3128606D01*
X4190136Y-3128606D01*
X4190136Y-3028607D01*
G37*
G36*
X4310126Y-3155607D02*
G01*
X4310126Y-3255606D01*
X4190136Y-3255606D01*
X4190136Y-3155607D01*
G37*
G36*
X4310126Y-3282607D02*
G01*
X4310126Y-3382606D01*
X4190136Y-3382606D01*
X4190136Y-3282607D01*
G37*
G36*
X4310126Y-3409607D02*
G01*
X4310126Y-3509606D01*
X4190136Y-3509606D01*
X4190136Y-3409607D01*
G37*
G36*
X4310126Y-3536607D02*
G01*
X4310126Y-3636606D01*
X4190136Y-3636606D01*
X4190136Y-3536607D01*
G37*
G36*
X4310126Y-3663607D02*
G01*
X4310126Y-3763606D01*
X4190136Y-3763606D01*
X4190136Y-3663607D01*
G37*
G36*
X4310126Y-3790607D02*
G01*
X4310126Y-3890606D01*
X4190136Y-3890606D01*
X4190136Y-3790607D01*
G37*
G36*
X4310126Y-3917607D02*
G01*
X4310126Y-4017606D01*
X4190136Y-4017606D01*
X4190136Y-3917607D01*
G37*
G36*
X4310126Y-4044607D02*
G01*
X4310126Y-4144606D01*
X4190136Y-4144606D01*
X4190136Y-4044607D01*
G37*
G36*
X4310126Y-4171607D02*
G01*
X4310126Y-4271606D01*
X4190136Y-4271606D01*
X4190136Y-4171607D01*
G37*
G36*
X4310126Y-4298607D02*
G01*
X4310126Y-4398606D01*
X4190136Y-4398606D01*
X4190136Y-4298607D01*
G37*
G36*
X5544108Y-2646489D02*
G01*
X5544108Y-2746489D01*
X5424119Y-2746489D01*
X5424119Y-2646489D01*
G37*
G36*
X5544108Y-2773489D02*
G01*
X5544108Y-2873489D01*
X5424119Y-2873489D01*
X5424119Y-2773489D01*
G37*
G36*
X5544108Y-2900489D02*
G01*
X5544108Y-3000489D01*
X5424119Y-3000489D01*
X5424119Y-2900489D01*
G37*
G36*
X5544108Y-3027489D02*
G01*
X5544108Y-3127489D01*
X5424119Y-3127489D01*
X5424119Y-3027489D01*
G37*
G36*
X5544108Y-3154489D02*
G01*
X5544108Y-3254489D01*
X5424119Y-3254489D01*
X5424119Y-3154489D01*
G37*
G36*
X5544108Y-3281489D02*
G01*
X5544108Y-3381489D01*
X5424119Y-3381489D01*
X5424119Y-3281489D01*
G37*
G36*
X5544108Y-3408489D02*
G01*
X5544108Y-3508489D01*
X5424119Y-3508489D01*
X5424119Y-3408489D01*
G37*
G36*
X5544108Y-3535489D02*
G01*
X5544108Y-3635489D01*
X5424119Y-3635489D01*
X5424119Y-3535489D01*
G37*
G36*
X5544108Y-3662489D02*
G01*
X5544108Y-3762489D01*
X5424119Y-3762489D01*
X5424119Y-3662489D01*
G37*
G36*
X5544108Y-3789489D02*
G01*
X5544108Y-3889489D01*
X5424119Y-3889489D01*
X5424119Y-3789489D01*
G37*
G36*
X5544108Y-3916489D02*
G01*
X5544108Y-4016489D01*
X5424119Y-4016489D01*
X5424119Y-3916489D01*
G37*
G36*
X5544108Y-4043489D02*
G01*
X5544108Y-4143489D01*
X5424119Y-4143489D01*
X5424119Y-4043489D01*
G37*
G36*
X5544108Y-4170489D02*
G01*
X5544108Y-4270489D01*
X5424119Y-4270489D01*
X5424119Y-4170489D01*
G37*
G36*
X5544108Y-4297489D02*
G01*
X5544108Y-4397489D01*
X5424119Y-4397489D01*
X5424119Y-4297489D01*
G37*
G36*
X5362625Y-2290102D02*
G01*
X5262626Y-2290102D01*
X5262626Y-2170112D01*
X5362625Y-2170112D01*
G37*
G36*
X5235625Y-2290102D02*
G01*
X5135626Y-2290102D01*
X5135626Y-2170112D01*
X5235625Y-2170112D01*
G37*
G36*
X5108625Y-2290102D02*
G01*
X5008626Y-2290102D01*
X5008626Y-2170112D01*
X5108625Y-2170112D01*
G37*
G36*
X4981625Y-2290102D02*
G01*
X4881626Y-2290102D01*
X4881626Y-2170087D01*
X4981625Y-2170087D01*
G37*
G36*
X4854625Y-2290102D02*
G01*
X4754626Y-2290102D01*
X4754626Y-2170087D01*
X4854625Y-2170087D01*
G37*
G36*
X4727625Y-2290102D02*
G01*
X4627626Y-2290102D01*
X4627626Y-2170112D01*
X4727625Y-2170112D01*
G37*
G36*
X4600625Y-2290102D02*
G01*
X4500626Y-2290102D01*
X4500626Y-2170112D01*
X4600625Y-2170112D01*
G37*
G36*
X4473625Y-2290102D02*
G01*
X4373626Y-2290102D01*
X4373626Y-2170112D01*
X4473625Y-2170112D01*
G37*
G36*
X4948275Y-3772253D02*
G01*
X5160406Y-3984383D01*
X4948275Y-4196514D01*
X4736144Y-3984383D01*
G37*
G36*
X4948275Y-4130687D02*
G01*
X4948275Y-4196727D01*
X4881219Y-4196727D01*
X4881219Y-4130687D01*
G37*
G36*
X5796889Y-2853067D02*
G01*
X5949289Y-2853067D01*
X5949289Y-3107067D01*
X5796889Y-3107067D01*
G37*
G36*
X6050889Y-2853067D02*
G01*
X6203289Y-2853067D01*
X6203289Y-3107067D01*
X6050889Y-3107067D01*
G37*
G36*
X5796889Y-3322967D02*
G01*
X5949289Y-3322967D01*
X5949289Y-3576967D01*
X5796889Y-3576967D01*
G37*
G36*
X6050889Y-3322967D02*
G01*
X6203289Y-3322967D01*
X6203289Y-3576967D01*
X6050889Y-3576967D01*
G37*
G36*
X5807049Y-3782961D02*
G01*
X5959449Y-3782961D01*
X5959449Y-4036961D01*
X5807049Y-4036961D01*
G37*
G36*
X6061049Y-3782961D02*
G01*
X6213449Y-3782961D01*
X6213449Y-4036961D01*
X6061049Y-4036961D01*
G37*
G36*
X5796889Y-4263021D02*
G01*
X5949289Y-4263021D01*
X5949289Y-4517021D01*
X5796889Y-4517021D01*
G37*
G36*
X6050889Y-4263021D02*
G01*
X6203289Y-4263021D01*
X6203289Y-4517021D01*
X6050889Y-4517021D01*
G37*
G36*
X3180003Y-1280083D02*
G01*
X3299993Y-1280083D01*
X3299993Y-1310081D01*
X3180003Y-1310081D01*
G37*
G36*
X3180003Y-1330070D02*
G01*
X3299993Y-1330070D01*
X3299993Y-1360068D01*
X3180003Y-1360068D01*
G37*
G36*
X3180003Y-1380083D02*
G01*
X3299993Y-1380083D01*
X3299993Y-1410080D01*
X3180003Y-1410080D01*
G37*
G36*
X3180003Y-1430070D02*
G01*
X3299993Y-1430070D01*
X3299993Y-1460068D01*
X3180003Y-1460068D01*
G37*
G36*
X3180003Y-1480083D02*
G01*
X3299993Y-1480083D01*
X3299993Y-1510080D01*
X3180003Y-1510080D01*
G37*
G36*
X3180003Y-1530070D02*
G01*
X3299993Y-1530070D01*
X3299993Y-1560067D01*
X3180003Y-1560067D01*
G37*
G36*
X3180003Y-1580083D02*
G01*
X3299993Y-1580083D01*
X3299993Y-1610080D01*
X3180003Y-1610080D01*
G37*
G36*
X3180003Y-1630070D02*
G01*
X3299993Y-1630070D01*
X3299993Y-1660067D01*
X3180003Y-1660067D01*
G37*
G36*
X3180003Y-1680082D02*
G01*
X3299993Y-1680082D01*
X3299993Y-1710080D01*
X3180003Y-1710080D01*
G37*
G36*
X3180003Y-1730070D02*
G01*
X3299993Y-1730070D01*
X3299993Y-1760067D01*
X3180003Y-1760067D01*
G37*
G36*
X3180003Y-1780082D02*
G01*
X3299993Y-1780082D01*
X3299993Y-1810080D01*
X3180003Y-1810080D01*
G37*
G36*
X3180003Y-1830069D02*
G01*
X3299993Y-1830069D01*
X3299993Y-1860067D01*
X3180003Y-1860067D01*
G37*
G36*
X3180003Y-1880082D02*
G01*
X3299993Y-1880082D01*
X3299993Y-1910079D01*
X3180003Y-1910079D01*
G37*
G36*
X3180003Y-1930069D02*
G01*
X3299993Y-1930069D01*
X3299993Y-1960067D01*
X3180003Y-1960067D01*
G37*
G36*
X3180003Y-1980082D02*
G01*
X3299993Y-1980082D01*
X3299993Y-2010079D01*
X3180003Y-2010079D01*
G37*
G36*
X3180003Y-2030069D02*
G01*
X3299993Y-2030069D01*
X3299993Y-2060067D01*
X3180003Y-2060067D01*
G37*
G36*
X3180003Y-2080082D02*
G01*
X3299993Y-2080082D01*
X3299993Y-2110079D01*
X3180003Y-2110079D01*
G37*
G36*
X3180003Y-2130069D02*
G01*
X3299993Y-2130069D01*
X3299993Y-2160066D01*
X3180003Y-2160066D01*
G37*
G36*
X3180003Y-2180081D02*
G01*
X3299993Y-2180081D01*
X3299993Y-2210079D01*
X3180003Y-2210079D01*
G37*
G36*
X3180003Y-2230069D02*
G01*
X3299993Y-2230069D01*
X3299993Y-2260066D01*
X3180003Y-2260066D01*
G37*
G36*
X3180003Y-2280081D02*
G01*
X3299993Y-2280081D01*
X3299993Y-2310079D01*
X3180003Y-2310079D01*
G37*
G36*
X3180003Y-2330068D02*
G01*
X3299993Y-2330068D01*
X3299993Y-2360066D01*
X3180003Y-2360066D01*
G37*
G36*
X3180003Y-2380081D02*
G01*
X3299993Y-2380081D01*
X3299993Y-2410078D01*
X3180003Y-2410078D01*
G37*
G36*
X3180003Y-2430068D02*
G01*
X3299993Y-2430068D01*
X3299993Y-2460066D01*
X3180003Y-2460066D01*
G37*
G36*
X3180003Y-2480081D02*
G01*
X3299993Y-2480081D01*
X3299993Y-2510078D01*
X3180003Y-2510078D01*
G37*
G36*
X3180003Y-2530068D02*
G01*
X3299993Y-2530068D01*
X3299993Y-2560065D01*
X3180003Y-2560065D01*
G37*
G36*
X3180003Y-2580081D02*
G01*
X3299993Y-2580081D01*
X3299993Y-2610078D01*
X3180003Y-2610078D01*
G37*
G36*
X3180003Y-2630068D02*
G01*
X3299993Y-2630068D01*
X3299993Y-2660065D01*
X3180003Y-2660065D01*
G37*
G36*
X3180003Y-2680080D02*
G01*
X3299993Y-2680080D01*
X3299993Y-2710078D01*
X3180003Y-2710078D01*
G37*
G36*
X3180003Y-2730068D02*
G01*
X3299993Y-2730068D01*
X3299993Y-2760065D01*
X3180003Y-2760065D01*
G37*
G36*
X3180003Y-2780080D02*
G01*
X3299993Y-2780080D01*
X3299993Y-2810078D01*
X3180003Y-2810078D01*
G37*
G36*
X3180003Y-2830067D02*
G01*
X3299993Y-2830067D01*
X3299993Y-2860065D01*
X3180003Y-2860065D01*
G37*
G36*
X3180003Y-2880080D02*
G01*
X3299993Y-2880080D01*
X3299993Y-2910077D01*
X3180003Y-2910077D01*
G37*
G36*
X3180003Y-2930067D02*
G01*
X3299993Y-2930067D01*
X3299993Y-2960065D01*
X3180003Y-2960065D01*
G37*
G36*
X3180003Y-2980080D02*
G01*
X3299993Y-2980080D01*
X3299993Y-3010077D01*
X3180003Y-3010077D01*
G37*
G36*
X3180003Y-3030067D02*
G01*
X3299993Y-3030067D01*
X3299993Y-3060064D01*
X3180003Y-3060064D01*
G37*
G36*
X3180003Y-3080080D02*
G01*
X3299993Y-3080080D01*
X3299993Y-3110077D01*
X3180003Y-3110077D01*
G37*
G36*
X3180003Y-3130067D02*
G01*
X3299993Y-3130067D01*
X3299993Y-3160064D01*
X3180003Y-3160064D01*
G37*
G36*
X3180003Y-3180079D02*
G01*
X3299993Y-3180079D01*
X3299993Y-3210077D01*
X3180003Y-3210077D01*
G37*
G36*
X3180003Y-3230067D02*
G01*
X3299993Y-3230067D01*
X3299993Y-3260064D01*
X3180003Y-3260064D01*
G37*
G36*
X3180003Y-3280079D02*
G01*
X3299993Y-3280079D01*
X3299993Y-3310077D01*
X3180003Y-3310077D01*
G37*
G36*
X3180003Y-3330067D02*
G01*
X3299993Y-3330067D01*
X3299993Y-3360064D01*
X3180003Y-3360064D01*
G37*
G36*
X3180003Y-3380079D02*
G01*
X3299993Y-3380079D01*
X3299993Y-3410076D01*
X3180003Y-3410076D01*
G37*
G36*
X3180003Y-3430066D02*
G01*
X3299993Y-3430066D01*
X3299993Y-3460064D01*
X3180003Y-3460064D01*
G37*
G36*
X3180003Y-3480079D02*
G01*
X3299993Y-3480079D01*
X3299993Y-3510076D01*
X3180003Y-3510076D01*
G37*
G36*
X3180003Y-3530066D02*
G01*
X3299993Y-3530066D01*
X3299993Y-3560063D01*
X3180003Y-3560063D01*
G37*
G36*
X3180003Y-3580079D02*
G01*
X3299993Y-3580079D01*
X3299993Y-3610076D01*
X3180003Y-3610076D01*
G37*
G36*
X3180003Y-3630066D02*
G01*
X3299993Y-3630066D01*
X3299993Y-3660063D01*
X3180003Y-3660063D01*
G37*
G36*
X3180003Y-3680078D02*
G01*
X3299993Y-3680078D01*
X3299993Y-3710076D01*
X3180003Y-3710076D01*
G37*
G36*
X3180003Y-3730066D02*
G01*
X3299993Y-3730066D01*
X3299993Y-3760063D01*
X3180003Y-3760063D01*
G37*
G36*
X2849994Y-965072D02*
G01*
X3089998Y-965072D01*
X3089998Y-1205077D01*
X2849994Y-1205077D01*
G37*
G36*
X2849994Y-3835069D02*
G01*
X3089998Y-3835069D01*
X3089998Y-4075074D01*
X2849994Y-4075074D01*
G37*
G36*
X665002Y-4337001D02*
G01*
X665002Y-4283001D01*
X721565Y-4283001D01*
X721565Y-4337001D01*
G37*
G36*
X635000Y-4337001D02*
G01*
X635000Y-4283001D01*
X578436Y-4283001D01*
X578436Y-4337001D01*
G37*
D28*
G01*
X6670065Y-4030027D03*
G01*
X6670065Y-3830027D03*
D29*
G01*
X7225080Y-4265028D03*
G01*
X7225080Y-3595027D03*
G36*
X85039Y-2355075D02*
G01*
X215036Y-2355075D01*
X215036Y-2485072D01*
X85039Y-2485072D01*
G37*
G36*
X85039Y-2555074D02*
G01*
X215036Y-2555074D01*
X215036Y-2685072D01*
X85039Y-2685072D01*
G37*
G36*
X285038Y-2555074D02*
G01*
X415036Y-2555074D01*
X415036Y-2685072D01*
X285038Y-2685072D01*
G37*
G36*
X285038Y-2355075D02*
G01*
X415036Y-2355075D01*
X415036Y-2485072D01*
X285038Y-2485072D01*
G37*
G36*
X6617497Y-2589885D02*
G01*
X6742496Y-2589885D01*
X6742496Y-2629885D01*
X6617497Y-2629885D01*
G37*
G36*
X6617497Y-2654884D02*
G01*
X6742496Y-2654884D01*
X6742496Y-2694884D01*
X6617497Y-2694884D01*
G37*
G36*
X6617497Y-2719885D02*
G01*
X6742496Y-2719885D01*
X6742496Y-2759885D01*
X6617497Y-2759885D01*
G37*
G36*
X6617497Y-2784886D02*
G01*
X6742496Y-2784886D01*
X6742496Y-2824886D01*
X6617497Y-2824886D01*
G37*
G36*
X6617497Y-2849885D02*
G01*
X6742496Y-2849885D01*
X6742496Y-2889884D01*
X6617497Y-2889884D01*
G37*
G36*
X5915004Y-4873203D02*
G01*
X5915004Y-4786802D01*
X5995652Y-4786802D01*
X5995652Y-4873203D01*
G37*
G36*
X5845002Y-4873203D02*
G01*
X5845002Y-4786802D01*
X5764354Y-4786802D01*
X5764354Y-4873203D01*
G37*
G36*
X6325003Y-4863203D02*
G01*
X6325003Y-4776802D01*
X6405651Y-4776802D01*
X6405651Y-4863203D01*
G37*
G36*
X6255001Y-4863203D02*
G01*
X6255001Y-4776802D01*
X6174353Y-4776802D01*
X6174353Y-4863203D01*
G37*
D33*
G01*
X780008Y-3070009D03*
G01*
X919988Y-3070009D03*
G01*
X5650001Y-900010D03*
G01*
X5790006Y-900010D03*
G36*
X3652001Y-1061600D02*
G01*
X3652001Y-1008400D01*
X3548250Y-1008400D01*
X3548250Y-1061600D01*
G37*
G36*
X3652001Y-871600D02*
G01*
X3652001Y-818400D01*
X3548250Y-818400D01*
X3548250Y-871600D01*
G37*
G36*
X3431750Y-966599D02*
G01*
X3431750Y-913401D01*
X3327999Y-913401D01*
X3327999Y-966599D01*
G37*
G36*
X3855001Y-1003000D02*
G01*
X3855001Y-1057000D01*
X3798437Y-1057000D01*
X3798437Y-1003000D01*
G37*
G36*
X3885003Y-1003000D02*
G01*
X3885003Y-1057000D01*
X3941566Y-1057000D01*
X3941566Y-1003000D01*
G37*
G36*
X3845001Y-1272999D02*
G01*
X3845001Y-1327000D01*
X3788437Y-1327000D01*
X3788437Y-1272999D01*
G37*
G36*
X3875003Y-1272999D02*
G01*
X3875003Y-1327000D01*
X3931566Y-1327000D01*
X3931566Y-1272999D01*
G37*
D35*
G01*
X3659987Y-1539989D03*
G01*
X3480003Y-1539989D03*
D36*
G01*
X3659987Y-1460004D03*
G01*
X3480003Y-1460004D03*
G01*
X3659987Y-1379994D03*
G01*
X3480003Y-1379994D03*
D35*
G01*
X3659987Y-1300010D03*
G01*
X3480003Y-1300010D03*
G36*
X3735003Y-3717002D02*
G01*
X3735003Y-3663002D01*
X3791567Y-3663002D01*
X3791567Y-3717002D01*
G37*
G36*
X3705001Y-3717002D02*
G01*
X3705001Y-3663002D01*
X3648438Y-3663002D01*
X3648438Y-3717002D01*
G37*
G36*
X3555004Y-3317001D02*
G01*
X3555004Y-3263000D01*
X3611567Y-3263000D01*
X3611567Y-3317001D01*
G37*
G36*
X3525001Y-3317001D02*
G01*
X3525001Y-3263000D01*
X3468438Y-3263000D01*
X3468438Y-3317001D01*
G37*
G36*
X6530004Y-3364999D02*
G01*
X6610004Y-3364999D01*
X6610004Y-3455001D01*
X6530004Y-3455001D01*
G37*
G36*
X6390005Y-3364999D02*
G01*
X6470004Y-3364999D01*
X6470004Y-3455001D01*
X6390005Y-3455001D01*
G37*
G36*
X6530004Y-3055000D02*
G01*
X6610004Y-3055000D01*
X6610004Y-3145002D01*
X6530004Y-3145002D01*
G37*
G36*
X6390005Y-3055000D02*
G01*
X6470004Y-3055000D01*
X6470004Y-3145002D01*
X6390005Y-3145002D01*
G37*
D37*
G01*
X6729984Y-2982379D03*
G01*
X6729984Y-2497391D03*
D38*
G01*
X250012Y-4770005D03*
G01*
X250012Y-249999D03*
G01*
X7190003Y-249999D03*
G01*
X7190003Y-4770005D03*
D39*
G01*
X250012Y-3019996D03*
G01*
X250012Y-2019998D03*
D40*
G01*
X1750001Y-2520002D03*
D14*
G01*
X3550005Y-3010014D03*
G01*
X4860010Y-3070009D03*
G01*
X4099991Y-3140011D03*
G01*
X5239994Y-2819996D03*
G01*
X2459989Y-4210011D03*
G01*
X2390012Y-4319993D03*
G01*
X1840001Y-4440008D03*
G01*
X2110003Y-4319993D03*
G01*
X3899992Y-1300010D03*
G01*
X3780002Y-3010014D03*
G01*
X3429990Y-3949992D03*
G01*
X3339998Y-4159999D03*
G01*
X3690010Y-2160003D03*
G01*
X4420006Y-4349991D03*
G01*
X3669995Y-2019998D03*
G01*
X929995Y-4130001D03*
G01*
X5550001Y-1200010D03*
G01*
X5550001Y-2219998D03*
G01*
X3239998Y-4019994D03*
G01*
X3620007Y-4640008D03*
G01*
X6130010Y-2979991D03*
G01*
X250012Y-1300010D03*
G01*
X789990Y-3230003D03*
G01*
X4769993Y-1740014D03*
G01*
X5809996Y-409994D03*
G01*
X80010Y-4459998D03*
G01*
X2629992Y-2500007D03*
G01*
X140004Y-2260003D03*
G01*
X4280001Y-639991D03*
G01*
X6570014Y-2610015D03*
G01*
X6570014Y-3719995D03*
D15*
G01*
X5550001Y-1460004D03*
G01*
X4009999Y-1409992D03*
G01*
X4239996Y-1460004D03*
G01*
X259994Y-609993D03*
G01*
X4109999Y-609993D03*
G01*
X4269994Y-1270012D03*
G01*
X4330014Y-1609991D03*
G01*
X2480005Y-4900002D03*
G01*
X3660012Y-4910010D03*
G01*
X4069994Y-4349991D03*
D14*
G01*
X3980002Y-4919992D03*
G01*
X2650007Y-4959997D03*
G01*
X4209999Y-830008D03*
G01*
X4250004Y-1149997D03*
G01*
X3429990Y-4210011D03*
G01*
X2790012Y-4410011D03*
G01*
X3660012Y-4800003D03*
G01*
X3999992Y-4159999D03*
G01*
X4539996Y-3719995D03*
G01*
X610006Y-4310011D03*
G01*
X3290011Y-4959997D03*
D15*
G01*
X3983228Y-2071484D03*
G01*
X4491228Y-1563484D03*
G01*
X4491228Y-2071484D03*
G01*
X4999228Y-1563484D03*
G01*
X4999228Y-2071484D03*
G01*
X107213Y-1123200D03*
G01*
X107213Y-1631200D03*
G01*
X107213Y-3663200D03*
G01*
X107213Y-4171200D03*
G01*
X615213Y-107200D03*
G01*
X615213Y-1123200D03*
G01*
X615213Y-1631200D03*
G01*
X615213Y-2139200D03*
G01*
X615213Y-3155200D03*
G01*
X615213Y-3663200D03*
G01*
X689990Y-4200004D03*
G01*
X615213Y-4679200D03*
G01*
X1123213Y-107200D03*
G01*
X1123213Y-1123200D03*
G01*
X1123213Y-1631200D03*
G01*
X1123213Y-2139200D03*
G01*
X1123213Y-2647200D03*
G01*
X1123213Y-4679200D03*
G01*
X1631213Y-107200D03*
G01*
X2139213Y-107200D03*
G01*
X2139213Y-1123200D03*
G01*
X2139213Y-1631200D03*
G01*
X2139213Y-2139200D03*
G01*
X2139213Y-2647200D03*
G01*
X2139213Y-3155200D03*
G01*
X2139213Y-3663200D03*
G01*
X2140000Y-4110012D03*
G01*
X2647213Y-107200D03*
G01*
X2647213Y-1123200D03*
G01*
X2647213Y-1631200D03*
G01*
X2647213Y-2139200D03*
G01*
X2647213Y-2647200D03*
G01*
X2647213Y-3155200D03*
G01*
X2647213Y-3663200D03*
G01*
X3155213Y-107200D03*
G01*
X3663213Y-107200D03*
G01*
X4171213Y-107200D03*
G01*
X4679213Y-107200D03*
G01*
X4679213Y-615200D03*
G01*
X4679213Y-1123200D03*
G01*
X4679213Y-4171200D03*
G01*
X5187213Y-107200D03*
G01*
X5187213Y-615200D03*
G01*
X5187213Y-1123200D03*
G01*
X5187213Y-4171200D03*
G01*
X5695213Y-107200D03*
G01*
X5695213Y-615200D03*
G01*
X5695213Y-1631200D03*
G01*
X5695213Y-2139200D03*
G01*
X6203213Y-107200D03*
G01*
X6203213Y-615200D03*
G01*
X6203213Y-1123200D03*
G01*
X6203213Y-2139200D03*
G01*
X6711213Y-107200D03*
G01*
X6711213Y-1631200D03*
G01*
X6711213Y-3155200D03*
G01*
X6711213Y-3663200D03*
G01*
X6711213Y-4171200D03*
G01*
X6711213Y-4679200D03*
G01*
X7219213Y-615200D03*
D14*
G01*
X2363012Y-4560303D03*
G01*
X3120009Y-4570006D03*
G01*
X3239998Y-4370006D03*
G01*
X2999994Y-4380014D03*
D15*
G01*
X5369991Y-4680013D03*
G01*
X4680000Y-3370008D03*
G01*
X5190007Y-3370008D03*
G01*
X2472766Y-4419358D03*
G01*
X4033393Y-3452431D03*
G01*
X4033393Y-3960431D03*
G01*
X615213Y-4171200D03*
G01*
X1631213Y-4679200D03*
G01*
X4033393Y-3452431D03*
G01*
X4033393Y-3960431D03*
G01*
X615213Y-4171200D03*
G01*
X1631213Y-4679200D03*
D41*
X6954987Y-2379891D02*
G01*
X7044987Y-2379891D01*
X6954987Y-3099879D02*
G01*
X7044987Y-3099879D01*
M02*
