M48
METRIC,LZ,000.000
;FILE_FORMAT=3:3
;TYPE=PLATED
;Layer: Drill PTH
;EasyEDA v6.4.25, 2021-09-15T07:48:06+01:00
;1eb5522c02d34d8f89c77509865788c0,48bc864c7916494db8d10f71d93e82f1,10
;Gerber Generator version 0.2
;Holesize 1 = 0.305 mm
T01C0.305
;Holesize 2 = 0.306 mm
T02C0.306
;Holesize 3 = 0.701 mm
T03C0.701
;Holesize 4 = 2.032 mm
T04C2.032
;Holesize 5 = 3.048 mm
T05C3.048
%
G05
G90
T01
X035500Y-030100
X048600Y-030700
X041000Y-031400
X052400Y-028200
X024600Y-042100
X023900Y-043200
X018400Y-044400
X021100Y-043200
X039000Y-013000
X037800Y-030100
X034300Y-039500
X033400Y-041600
X036900Y-021600
X044200Y-043500
X036700Y-020200
X009300Y-041300
X055500Y-012000
X055500Y-022200
X032400Y-040200
X036200Y-046400
X061300Y-029800
X002500Y-013000
X007900Y-032300
X047700Y-017400
X058100Y-004100
X000800Y-044600
X026300Y-025000
X001400Y-022600
X042800Y-006400
X065700Y-026100
X065700Y-037200
X039800Y-049200
X026500Y-049600
X042100Y-008300
X042500Y-011500
X034300Y-042100
X027900Y-044100
X036600Y-048000
X040000Y-041600
X045400Y-037200
X006100Y-043100
X032900Y-049600
X023630Y-045603
X031200Y-045700
X032400Y-043700
X030000Y-043800
T02
X055500Y-014600
X040100Y-014100
X042400Y-014600
X002600Y-006100
X041100Y-006100
X042700Y-012700
X043300Y-016100
X024800Y-049000
X036600Y-049100
X040700Y-043500
X039832Y-020715
X044912Y-015635
X044912Y-020715
X049992Y-015635
X049992Y-020715
X001072Y-011232
X001072Y-016312
X001072Y-036632
X001072Y-041712
X006152Y-001072
X006152Y-011232
X006152Y-016312
X006152Y-021392
X006152Y-031552
X006152Y-036632
X006900Y-042000
X006152Y-046792
X011232Y-001072
X011232Y-011232
X011232Y-016312
X011232Y-021392
X011232Y-026472
X011232Y-046792
X016312Y-001072
X021392Y-001072
X021392Y-011232
X021392Y-016312
X021392Y-021392
X021392Y-026472
X021392Y-031552
X021392Y-036632
X021400Y-041100
X026472Y-001072
X026472Y-011232
X026472Y-016312
X026472Y-021392
X026472Y-026472
X026472Y-031552
X026472Y-036632
X031552Y-001072
X036632Y-001072
X041712Y-001072
X046792Y-001072
X046792Y-006152
X046792Y-011232
X046792Y-041712
X051872Y-001072
X051872Y-006152
X051872Y-011232
X051872Y-041712
X056952Y-001072
X056952Y-006152
X056952Y-016312
X056952Y-021392
X062032Y-001072
X062032Y-006152
X062032Y-011232
X062032Y-021392
X067112Y-001072
X067112Y-016312
X067112Y-031552
X067112Y-036632
X067112Y-041712
X067112Y-046792
X072192Y-006152
X053700Y-046800
X046800Y-033700
X051900Y-033700
X024728Y-044194
X040334Y-034524
X040334Y-039604
X006152Y-041712
X016312Y-046792
X040334Y-034524
X040334Y-039604
X006152Y-041712
X016312Y-046792
T03
X070400Y-023799G85X069600Y-023799
X070400Y-030999G85X069600Y-030999
X067300Y-029824
X067300Y-024974
T04
X002500Y-030200
X002500Y-020200
T05
X002500Y-047700
X002500Y-002500
X071900Y-002500
X071900Y-047700
M30
